G04 #@! TF.FileFunction,Copper,L2,Bot,Signal*
%FSLAX46Y46*%
G04 Gerber Fmt 4.6, Leading zero omitted, Abs format (unit mm)*
G04 Created by KiCad (PCBNEW 4.0.1-stable) date 2016/03/20 16:03:40*
%MOMM*%
G01*
G04 APERTURE LIST*
%ADD10C,0.100000*%
%ADD11R,2.032000X1.727200*%
%ADD12O,2.032000X1.727200*%
%ADD13C,1.500000*%
%ADD14C,0.500000*%
G04 APERTURE END LIST*
D10*
D11*
X93980000Y-71120000D03*
D12*
X93980000Y-73660000D03*
X93980000Y-76200000D03*
X93980000Y-78740000D03*
D11*
X111760000Y-83820000D03*
D12*
X111760000Y-86360000D03*
X111760000Y-88900000D03*
D13*
X120220740Y-71120000D03*
X120220740Y-79121000D03*
X120220740Y-83118960D03*
X120220740Y-81119980D03*
X120220740Y-75120500D03*
X120220740Y-77119480D03*
X120220740Y-73118980D03*
X120220740Y-87119460D03*
X120220740Y-89120980D03*
X120220740Y-85120480D03*
X98219260Y-85120480D03*
X98219260Y-89120980D03*
X98219260Y-87119460D03*
X98219260Y-73118980D03*
X98219260Y-77119480D03*
X98219260Y-75120500D03*
X98219260Y-81119980D03*
X98219260Y-83118960D03*
X98219260Y-79121000D03*
X98219260Y-71120000D03*
D14*
X93980000Y-73660000D02*
X94615000Y-73025000D01*
X94615000Y-73025000D02*
X98425000Y-73025000D01*
X98425000Y-73025000D02*
X98219260Y-73118980D01*
X98219260Y-79121000D02*
X98425000Y-79375000D01*
X98425000Y-79375000D02*
X99060000Y-79375000D01*
X99060000Y-79375000D02*
X103505000Y-83820000D01*
X103505000Y-83820000D02*
X111760000Y-83820000D01*
X98219260Y-87119460D02*
X98425000Y-86995000D01*
X98425000Y-86995000D02*
X99060000Y-87630000D01*
X99060000Y-87630000D02*
X99695000Y-87630000D01*
X99695000Y-87630000D02*
X100965000Y-88900000D01*
X100965000Y-88900000D02*
X111760000Y-88900000D01*
M02*
