G04 #@! TF.FileFunction,Legend,Bot*
%FSLAX46Y46*%
G04 Gerber Fmt 4.6, Leading zero omitted, Abs format (unit mm)*
G04 Created by KiCad (PCBNEW 4.0.1-stable) date 2016/02/14 23:16:42*
%MOMM*%
G01*
G04 APERTURE LIST*
%ADD10C,0.100000*%
%ADD11C,0.150000*%
%ADD12C,0.010000*%
G04 APERTURE END LIST*
D10*
X106549999Y-90809286D02*
X106407142Y-90809286D01*
X106335714Y-90845000D01*
X106264285Y-90916429D01*
X106228571Y-91059286D01*
X106228571Y-91309286D01*
X106264285Y-91452143D01*
X106335714Y-91523571D01*
X106407142Y-91559286D01*
X106549999Y-91559286D01*
X106621428Y-91523571D01*
X106692857Y-91452143D01*
X106728571Y-91309286D01*
X106728571Y-91059286D01*
X106692857Y-90916429D01*
X106621428Y-90845000D01*
X106549999Y-90809286D01*
X105907143Y-91559286D02*
X105907143Y-91059286D01*
X105907143Y-90809286D02*
X105942857Y-90845000D01*
X105907143Y-90880714D01*
X105871428Y-90845000D01*
X105907143Y-90809286D01*
X105907143Y-90880714D01*
X105621428Y-91059286D02*
X105228571Y-91059286D01*
X105621428Y-91559286D01*
X105228571Y-91559286D01*
X104621428Y-91059286D02*
X104621428Y-91559286D01*
X104942857Y-91059286D02*
X104942857Y-91452143D01*
X104907142Y-91523571D01*
X104835714Y-91559286D01*
X104728571Y-91559286D01*
X104657142Y-91523571D01*
X104621428Y-91487857D01*
X104264286Y-91559286D02*
X104264286Y-91059286D01*
X104264286Y-91130714D02*
X104228571Y-91095000D01*
X104157143Y-91059286D01*
X104050000Y-91059286D01*
X103978571Y-91095000D01*
X103942857Y-91166429D01*
X103942857Y-91559286D01*
X103942857Y-91166429D02*
X103907143Y-91095000D01*
X103835714Y-91059286D01*
X103728571Y-91059286D01*
X103657143Y-91095000D01*
X103621428Y-91166429D01*
X103621428Y-91559286D01*
X103264286Y-91559286D02*
X103264286Y-91059286D01*
X103264286Y-90809286D02*
X103300000Y-90845000D01*
X103264286Y-90880714D01*
X103228571Y-90845000D01*
X103264286Y-90809286D01*
X103264286Y-90880714D01*
X102907143Y-91273571D02*
X102335714Y-91273571D01*
X101978572Y-91559286D02*
X101978572Y-90809286D01*
X101550000Y-91559286D02*
X101871429Y-91130714D01*
X101550000Y-90809286D02*
X101978572Y-91237857D01*
X101121429Y-91559286D02*
X101192857Y-91523571D01*
X101228572Y-91487857D01*
X101264286Y-91416429D01*
X101264286Y-91202143D01*
X101228572Y-91130714D01*
X101192857Y-91095000D01*
X101121429Y-91059286D01*
X101014286Y-91059286D01*
X100942857Y-91095000D01*
X100907143Y-91130714D01*
X100871429Y-91202143D01*
X100871429Y-91416429D01*
X100907143Y-91487857D01*
X100942857Y-91523571D01*
X101014286Y-91559286D01*
X101121429Y-91559286D01*
X100228572Y-91059286D02*
X100228572Y-91666429D01*
X100264286Y-91737857D01*
X100300001Y-91773571D01*
X100371429Y-91809286D01*
X100478572Y-91809286D01*
X100550001Y-91773571D01*
X100228572Y-91523571D02*
X100300001Y-91559286D01*
X100442858Y-91559286D01*
X100514286Y-91523571D01*
X100550001Y-91487857D01*
X100585715Y-91416429D01*
X100585715Y-91202143D01*
X100550001Y-91130714D01*
X100514286Y-91095000D01*
X100442858Y-91059286D01*
X100300001Y-91059286D01*
X100228572Y-91095000D01*
X99942858Y-91059286D02*
X99764287Y-91559286D01*
X99585715Y-91059286D02*
X99764287Y-91559286D01*
X99835715Y-91737857D01*
X99871430Y-91773571D01*
X99942858Y-91809286D01*
X99192858Y-91559286D02*
X99264286Y-91523571D01*
X99300001Y-91487857D01*
X99335715Y-91416429D01*
X99335715Y-91202143D01*
X99300001Y-91130714D01*
X99264286Y-91095000D01*
X99192858Y-91059286D01*
X99085715Y-91059286D01*
X99014286Y-91095000D01*
X98978572Y-91130714D01*
X98942858Y-91202143D01*
X98942858Y-91416429D01*
X98978572Y-91487857D01*
X99014286Y-91523571D01*
X99085715Y-91559286D01*
X99192858Y-91559286D01*
X97692858Y-91559286D02*
X98050001Y-91559286D01*
X98050001Y-90809286D01*
X97550000Y-91059286D02*
X97264286Y-91059286D01*
X97442858Y-90809286D02*
X97442858Y-91452143D01*
X97407143Y-91523571D01*
X97335715Y-91559286D01*
X97264286Y-91559286D01*
X96692858Y-91559286D02*
X96692858Y-90809286D01*
X96692858Y-91523571D02*
X96764287Y-91559286D01*
X96907144Y-91559286D01*
X96978572Y-91523571D01*
X97014287Y-91487857D01*
X97050001Y-91416429D01*
X97050001Y-91202143D01*
X97014287Y-91130714D01*
X96978572Y-91095000D01*
X96907144Y-91059286D01*
X96764287Y-91059286D01*
X96692858Y-91095000D01*
X96335716Y-91487857D02*
X96300001Y-91523571D01*
X96335716Y-91559286D01*
X96371430Y-91523571D01*
X96335716Y-91487857D01*
X96335716Y-91559286D01*
X95442858Y-90880714D02*
X95407144Y-90845000D01*
X95335715Y-90809286D01*
X95157144Y-90809286D01*
X95085715Y-90845000D01*
X95050001Y-90880714D01*
X95014286Y-90952143D01*
X95014286Y-91023571D01*
X95050001Y-91130714D01*
X95478572Y-91559286D01*
X95014286Y-91559286D01*
X94550000Y-90809286D02*
X94478572Y-90809286D01*
X94407143Y-90845000D01*
X94371429Y-90880714D01*
X94335715Y-90952143D01*
X94300000Y-91095000D01*
X94300000Y-91273571D01*
X94335715Y-91416429D01*
X94371429Y-91487857D01*
X94407143Y-91523571D01*
X94478572Y-91559286D01*
X94550000Y-91559286D01*
X94621429Y-91523571D01*
X94657143Y-91487857D01*
X94692858Y-91416429D01*
X94728572Y-91273571D01*
X94728572Y-91095000D01*
X94692858Y-90952143D01*
X94657143Y-90880714D01*
X94621429Y-90845000D01*
X94550000Y-90809286D01*
X93585714Y-91559286D02*
X94014286Y-91559286D01*
X93800000Y-91559286D02*
X93800000Y-90809286D01*
X93871429Y-90916429D01*
X93942857Y-90987857D01*
X94014286Y-91023571D01*
X92942857Y-90809286D02*
X93085714Y-90809286D01*
X93157143Y-90845000D01*
X93192857Y-90880714D01*
X93264286Y-90987857D01*
X93300000Y-91130714D01*
X93300000Y-91416429D01*
X93264286Y-91487857D01*
X93228571Y-91523571D01*
X93157143Y-91559286D01*
X93014286Y-91559286D01*
X92942857Y-91523571D01*
X92907143Y-91487857D01*
X92871428Y-91416429D01*
X92871428Y-91237857D01*
X92907143Y-91166429D01*
X92942857Y-91130714D01*
X93014286Y-91095000D01*
X93157143Y-91095000D01*
X93228571Y-91130714D01*
X93264286Y-91166429D01*
X93300000Y-91237857D01*
D11*
X116117619Y-85262381D02*
X116450953Y-84786190D01*
X116689048Y-85262381D02*
X116689048Y-84262381D01*
X116308095Y-84262381D01*
X116212857Y-84310000D01*
X116165238Y-84357619D01*
X116117619Y-84452857D01*
X116117619Y-84595714D01*
X116165238Y-84690952D01*
X116212857Y-84738571D01*
X116308095Y-84786190D01*
X116689048Y-84786190D01*
X115736667Y-85214762D02*
X115593810Y-85262381D01*
X115355714Y-85262381D01*
X115260476Y-85214762D01*
X115212857Y-85167143D01*
X115165238Y-85071905D01*
X115165238Y-84976667D01*
X115212857Y-84881429D01*
X115260476Y-84833810D01*
X115355714Y-84786190D01*
X115546191Y-84738571D01*
X115641429Y-84690952D01*
X115689048Y-84643333D01*
X115736667Y-84548095D01*
X115736667Y-84452857D01*
X115689048Y-84357619D01*
X115641429Y-84310000D01*
X115546191Y-84262381D01*
X115308095Y-84262381D01*
X115165238Y-84310000D01*
X114879524Y-84262381D02*
X114308095Y-84262381D01*
X114593810Y-85262381D02*
X114593810Y-84262381D01*
X116331904Y-85860000D02*
X116427142Y-85812381D01*
X116569999Y-85812381D01*
X116712857Y-85860000D01*
X116808095Y-85955238D01*
X116855714Y-86050476D01*
X116903333Y-86240952D01*
X116903333Y-86383810D01*
X116855714Y-86574286D01*
X116808095Y-86669524D01*
X116712857Y-86764762D01*
X116569999Y-86812381D01*
X116474761Y-86812381D01*
X116331904Y-86764762D01*
X116284285Y-86717143D01*
X116284285Y-86383810D01*
X116474761Y-86383810D01*
X115855714Y-86812381D02*
X115855714Y-85812381D01*
X115284285Y-86812381D01*
X115284285Y-85812381D01*
X114808095Y-86812381D02*
X114808095Y-85812381D01*
X114570000Y-85812381D01*
X114427142Y-85860000D01*
X114331904Y-85955238D01*
X114284285Y-86050476D01*
X114236666Y-86240952D01*
X114236666Y-86383810D01*
X114284285Y-86574286D01*
X114331904Y-86669524D01*
X114427142Y-86764762D01*
X114570000Y-86812381D01*
X114808095Y-86812381D01*
X116712857Y-88362381D02*
X116712857Y-87362381D01*
X116474762Y-87362381D01*
X116331904Y-87410000D01*
X116236666Y-87505238D01*
X116189047Y-87600476D01*
X116141428Y-87790952D01*
X116141428Y-87933810D01*
X116189047Y-88124286D01*
X116236666Y-88219524D01*
X116331904Y-88314762D01*
X116474762Y-88362381D01*
X116712857Y-88362381D01*
X115855714Y-87362381D02*
X115284285Y-87362381D01*
X115570000Y-88362381D02*
X115570000Y-87362381D01*
X114379523Y-88362381D02*
X114712857Y-87886190D01*
X114950952Y-88362381D02*
X114950952Y-87362381D01*
X114569999Y-87362381D01*
X114474761Y-87410000D01*
X114427142Y-87457619D01*
X114379523Y-87552857D01*
X114379523Y-87695714D01*
X114427142Y-87790952D01*
X114474761Y-87838571D01*
X114569999Y-87886190D01*
X114950952Y-87886190D01*
X94146666Y-81312381D02*
X94480000Y-80836190D01*
X94718095Y-81312381D02*
X94718095Y-80312381D01*
X94337142Y-80312381D01*
X94241904Y-80360000D01*
X94194285Y-80407619D01*
X94146666Y-80502857D01*
X94146666Y-80645714D01*
X94194285Y-80740952D01*
X94241904Y-80788571D01*
X94337142Y-80836190D01*
X94718095Y-80836190D01*
X93813333Y-80312381D02*
X93146666Y-81312381D01*
X93146666Y-80312381D02*
X93813333Y-81312381D01*
X94741905Y-81862381D02*
X94170476Y-81862381D01*
X94456191Y-82862381D02*
X94456191Y-81862381D01*
X93932381Y-81862381D02*
X93265714Y-82862381D01*
X93265714Y-81862381D02*
X93932381Y-82862381D01*
X94741904Y-83460000D02*
X94837142Y-83412381D01*
X94979999Y-83412381D01*
X95122857Y-83460000D01*
X95218095Y-83555238D01*
X95265714Y-83650476D01*
X95313333Y-83840952D01*
X95313333Y-83983810D01*
X95265714Y-84174286D01*
X95218095Y-84269524D01*
X95122857Y-84364762D01*
X94979999Y-84412381D01*
X94884761Y-84412381D01*
X94741904Y-84364762D01*
X94694285Y-84317143D01*
X94694285Y-83983810D01*
X94884761Y-83983810D01*
X94265714Y-84412381D02*
X94265714Y-83412381D01*
X93694285Y-84412381D01*
X93694285Y-83412381D01*
X93218095Y-84412381D02*
X93218095Y-83412381D01*
X92980000Y-83412381D01*
X92837142Y-83460000D01*
X92741904Y-83555238D01*
X92694285Y-83650476D01*
X92646666Y-83840952D01*
X92646666Y-83983810D01*
X92694285Y-84174286D01*
X92741904Y-84269524D01*
X92837142Y-84364762D01*
X92980000Y-84412381D01*
X93218095Y-84412381D01*
X95313333Y-84962381D02*
X94980000Y-85962381D01*
X94646666Y-84962381D01*
X93741904Y-85867143D02*
X93789523Y-85914762D01*
X93932380Y-85962381D01*
X94027618Y-85962381D01*
X94170476Y-85914762D01*
X94265714Y-85819524D01*
X94313333Y-85724286D01*
X94360952Y-85533810D01*
X94360952Y-85390952D01*
X94313333Y-85200476D01*
X94265714Y-85105238D01*
X94170476Y-85010000D01*
X94027618Y-84962381D01*
X93932380Y-84962381D01*
X93789523Y-85010000D01*
X93741904Y-85057619D01*
X92741904Y-85867143D02*
X92789523Y-85914762D01*
X92932380Y-85962381D01*
X93027618Y-85962381D01*
X93170476Y-85914762D01*
X93265714Y-85819524D01*
X93313333Y-85724286D01*
X93360952Y-85533810D01*
X93360952Y-85390952D01*
X93313333Y-85200476D01*
X93265714Y-85105238D01*
X93170476Y-85010000D01*
X93027618Y-84962381D01*
X92932380Y-84962381D01*
X92789523Y-85010000D01*
X92741904Y-85057619D01*
X95250000Y-72390000D02*
X95250000Y-80010000D01*
X92710000Y-72390000D02*
X92710000Y-80010000D01*
X92430000Y-69570000D02*
X92430000Y-71120000D01*
X95250000Y-80010000D02*
X92710000Y-80010000D01*
X92710000Y-72390000D02*
X95250000Y-72390000D01*
X95530000Y-71120000D02*
X95530000Y-69570000D01*
X95530000Y-69570000D02*
X92430000Y-69570000D01*
X113030000Y-85090000D02*
X113030000Y-90170000D01*
X113030000Y-90170000D02*
X110490000Y-90170000D01*
X110490000Y-90170000D02*
X110490000Y-85090000D01*
X110210000Y-82270000D02*
X110210000Y-83820000D01*
X110490000Y-85090000D02*
X113030000Y-85090000D01*
X113310000Y-83820000D02*
X113310000Y-82270000D01*
X113310000Y-82270000D02*
X110210000Y-82270000D01*
D12*
G36*
X103468828Y-80839006D02*
X103252521Y-80847475D01*
X103096482Y-80867508D01*
X102988582Y-80902466D01*
X102916691Y-80955710D01*
X102868679Y-81030602D01*
X102844811Y-81091654D01*
X102824031Y-81199688D01*
X102809044Y-81369056D01*
X102800133Y-81576602D01*
X102797583Y-81799172D01*
X102801677Y-82013613D01*
X102812701Y-82196770D01*
X102829744Y-82320222D01*
X102878484Y-82429892D01*
X102950358Y-82502125D01*
X103021147Y-82518322D01*
X103159218Y-82531941D01*
X103347634Y-82542771D01*
X103569455Y-82550600D01*
X103807745Y-82555218D01*
X104045564Y-82556414D01*
X104265976Y-82553975D01*
X104452041Y-82547692D01*
X104586823Y-82537352D01*
X104652359Y-82523349D01*
X104701271Y-82463134D01*
X104745923Y-82356958D01*
X104752779Y-82332849D01*
X104769143Y-82232269D01*
X104783318Y-82075861D01*
X104794817Y-81882262D01*
X104803151Y-81670108D01*
X104807835Y-81458035D01*
X104807924Y-81426410D01*
X104389546Y-81426410D01*
X104387299Y-81590557D01*
X104383814Y-81720961D01*
X104370020Y-82155421D01*
X103211500Y-82133167D01*
X103199010Y-81773334D01*
X103191184Y-81559785D01*
X103193200Y-81409899D01*
X103217352Y-81312465D01*
X103275935Y-81256269D01*
X103381244Y-81230099D01*
X103545573Y-81222743D01*
X103781218Y-81222988D01*
X103802475Y-81223000D01*
X104012186Y-81225233D01*
X104189041Y-81231350D01*
X104317079Y-81240481D01*
X104380338Y-81251753D01*
X104384139Y-81254750D01*
X104388497Y-81307996D01*
X104389546Y-81426410D01*
X104807924Y-81426410D01*
X104808380Y-81264680D01*
X104804300Y-81108680D01*
X104795106Y-81008670D01*
X104788027Y-80984790D01*
X104708387Y-80930564D01*
X104545674Y-80888721D01*
X104300585Y-80859362D01*
X103973816Y-80842585D01*
X103757534Y-80838740D01*
X103468828Y-80839006D01*
X103468828Y-80839006D01*
G37*
X103468828Y-80839006D02*
X103252521Y-80847475D01*
X103096482Y-80867508D01*
X102988582Y-80902466D01*
X102916691Y-80955710D01*
X102868679Y-81030602D01*
X102844811Y-81091654D01*
X102824031Y-81199688D01*
X102809044Y-81369056D01*
X102800133Y-81576602D01*
X102797583Y-81799172D01*
X102801677Y-82013613D01*
X102812701Y-82196770D01*
X102829744Y-82320222D01*
X102878484Y-82429892D01*
X102950358Y-82502125D01*
X103021147Y-82518322D01*
X103159218Y-82531941D01*
X103347634Y-82542771D01*
X103569455Y-82550600D01*
X103807745Y-82555218D01*
X104045564Y-82556414D01*
X104265976Y-82553975D01*
X104452041Y-82547692D01*
X104586823Y-82537352D01*
X104652359Y-82523349D01*
X104701271Y-82463134D01*
X104745923Y-82356958D01*
X104752779Y-82332849D01*
X104769143Y-82232269D01*
X104783318Y-82075861D01*
X104794817Y-81882262D01*
X104803151Y-81670108D01*
X104807835Y-81458035D01*
X104807924Y-81426410D01*
X104389546Y-81426410D01*
X104387299Y-81590557D01*
X104383814Y-81720961D01*
X104370020Y-82155421D01*
X103211500Y-82133167D01*
X103199010Y-81773334D01*
X103191184Y-81559785D01*
X103193200Y-81409899D01*
X103217352Y-81312465D01*
X103275935Y-81256269D01*
X103381244Y-81230099D01*
X103545573Y-81222743D01*
X103781218Y-81222988D01*
X103802475Y-81223000D01*
X104012186Y-81225233D01*
X104189041Y-81231350D01*
X104317079Y-81240481D01*
X104380338Y-81251753D01*
X104384139Y-81254750D01*
X104388497Y-81307996D01*
X104389546Y-81426410D01*
X104807924Y-81426410D01*
X104808380Y-81264680D01*
X104804300Y-81108680D01*
X104795106Y-81008670D01*
X104788027Y-80984790D01*
X104708387Y-80930564D01*
X104545674Y-80888721D01*
X104300585Y-80859362D01*
X103973816Y-80842585D01*
X103757534Y-80838740D01*
X103468828Y-80839006D01*
G36*
X109619203Y-79113337D02*
X109560950Y-79149123D01*
X109515611Y-79205916D01*
X109504618Y-79282692D01*
X109531025Y-79392149D01*
X109597888Y-79546988D01*
X109707642Y-79758755D01*
X109800677Y-79933888D01*
X109856374Y-80050112D01*
X109879376Y-80122043D01*
X109874326Y-80164297D01*
X109845865Y-80191491D01*
X109845225Y-80191896D01*
X109821776Y-80214660D01*
X109803583Y-80256688D01*
X109789762Y-80328443D01*
X109779427Y-80440388D01*
X109771694Y-80602983D01*
X109765676Y-80826692D01*
X109760491Y-81121977D01*
X109759214Y-81208653D01*
X109756753Y-81495650D01*
X109757587Y-81761726D01*
X109761423Y-81992644D01*
X109767970Y-82174164D01*
X109776938Y-82292048D01*
X109781967Y-82321656D01*
X109844034Y-82446758D01*
X109938861Y-82504514D01*
X110050850Y-82487355D01*
X110083365Y-82467950D01*
X110112377Y-82443882D01*
X110134057Y-82410313D01*
X110149411Y-82355830D01*
X110159444Y-82269019D01*
X110165161Y-82138464D01*
X110167567Y-81952753D01*
X110167667Y-81700470D01*
X110167058Y-81517431D01*
X110166896Y-81251874D01*
X110168409Y-81016121D01*
X110171378Y-80822890D01*
X110175586Y-80684900D01*
X110180814Y-80614870D01*
X110182628Y-80608928D01*
X110213244Y-80632748D01*
X110279591Y-80712427D01*
X110370126Y-80833584D01*
X110423523Y-80909053D01*
X110533650Y-81062527D01*
X110612583Y-81156612D01*
X110673854Y-81203807D01*
X110730998Y-81216612D01*
X110754812Y-81215017D01*
X110860353Y-81173352D01*
X110919762Y-81117167D01*
X110939130Y-81074187D01*
X110936764Y-81021838D01*
X110906575Y-80945993D01*
X110842474Y-80832528D01*
X110738371Y-80667317D01*
X110700775Y-80609167D01*
X110568555Y-80401201D01*
X110413956Y-80151723D01*
X110256612Y-79892727D01*
X110121655Y-79665595D01*
X109977722Y-79428253D01*
X109862662Y-79260944D01*
X109769324Y-79157079D01*
X109690555Y-79110073D01*
X109619203Y-79113337D01*
X109619203Y-79113337D01*
G37*
X109619203Y-79113337D02*
X109560950Y-79149123D01*
X109515611Y-79205916D01*
X109504618Y-79282692D01*
X109531025Y-79392149D01*
X109597888Y-79546988D01*
X109707642Y-79758755D01*
X109800677Y-79933888D01*
X109856374Y-80050112D01*
X109879376Y-80122043D01*
X109874326Y-80164297D01*
X109845865Y-80191491D01*
X109845225Y-80191896D01*
X109821776Y-80214660D01*
X109803583Y-80256688D01*
X109789762Y-80328443D01*
X109779427Y-80440388D01*
X109771694Y-80602983D01*
X109765676Y-80826692D01*
X109760491Y-81121977D01*
X109759214Y-81208653D01*
X109756753Y-81495650D01*
X109757587Y-81761726D01*
X109761423Y-81992644D01*
X109767970Y-82174164D01*
X109776938Y-82292048D01*
X109781967Y-82321656D01*
X109844034Y-82446758D01*
X109938861Y-82504514D01*
X110050850Y-82487355D01*
X110083365Y-82467950D01*
X110112377Y-82443882D01*
X110134057Y-82410313D01*
X110149411Y-82355830D01*
X110159444Y-82269019D01*
X110165161Y-82138464D01*
X110167567Y-81952753D01*
X110167667Y-81700470D01*
X110167058Y-81517431D01*
X110166896Y-81251874D01*
X110168409Y-81016121D01*
X110171378Y-80822890D01*
X110175586Y-80684900D01*
X110180814Y-80614870D01*
X110182628Y-80608928D01*
X110213244Y-80632748D01*
X110279591Y-80712427D01*
X110370126Y-80833584D01*
X110423523Y-80909053D01*
X110533650Y-81062527D01*
X110612583Y-81156612D01*
X110673854Y-81203807D01*
X110730998Y-81216612D01*
X110754812Y-81215017D01*
X110860353Y-81173352D01*
X110919762Y-81117167D01*
X110939130Y-81074187D01*
X110936764Y-81021838D01*
X110906575Y-80945993D01*
X110842474Y-80832528D01*
X110738371Y-80667317D01*
X110700775Y-80609167D01*
X110568555Y-80401201D01*
X110413956Y-80151723D01*
X110256612Y-79892727D01*
X110121655Y-79665595D01*
X109977722Y-79428253D01*
X109862662Y-79260944D01*
X109769324Y-79157079D01*
X109690555Y-79110073D01*
X109619203Y-79113337D01*
G36*
X108282716Y-79447737D02*
X108239578Y-79461806D01*
X108206399Y-79496000D01*
X108181872Y-79559109D01*
X108164694Y-79659924D01*
X108153559Y-79807236D01*
X108147162Y-80009834D01*
X108144199Y-80276511D01*
X108143364Y-80616057D01*
X108143333Y-80750462D01*
X108143333Y-81954324D01*
X107901686Y-81925923D01*
X107726468Y-81906274D01*
X107605585Y-81886196D01*
X107529029Y-81851453D01*
X107486796Y-81787812D01*
X107468881Y-81681039D01*
X107465277Y-81516899D01*
X107466000Y-81306101D01*
X107464019Y-81070110D01*
X107457044Y-80904555D01*
X107443530Y-80795279D01*
X107421930Y-80728121D01*
X107399476Y-80696857D01*
X107318101Y-80638711D01*
X107231951Y-80644079D01*
X107166884Y-80674156D01*
X107137929Y-80694836D01*
X107116720Y-80729320D01*
X107102061Y-80789622D01*
X107092756Y-80887756D01*
X107087609Y-81035737D01*
X107085423Y-81245579D01*
X107085000Y-81496632D01*
X107086051Y-81780254D01*
X107089821Y-81991007D01*
X107097238Y-82140671D01*
X107109229Y-82241024D01*
X107126721Y-82303846D01*
X107150641Y-82340916D01*
X107151524Y-82341810D01*
X107243304Y-82401555D01*
X107340978Y-82387350D01*
X107403664Y-82349991D01*
X107474868Y-82319528D01*
X107584329Y-82309259D01*
X107751915Y-82317832D01*
X107804667Y-82322706D01*
X107978181Y-82335903D01*
X108204815Y-82347837D01*
X108453023Y-82357064D01*
X108655027Y-82361663D01*
X108883066Y-82363500D01*
X109042469Y-82359906D01*
X109149188Y-82349132D01*
X109219173Y-82329429D01*
X109268375Y-82299047D01*
X109274677Y-82293699D01*
X109345982Y-82209997D01*
X109399789Y-82092272D01*
X109438985Y-81928138D01*
X109466459Y-81705210D01*
X109485097Y-81411100D01*
X109486191Y-81386465D01*
X109509414Y-80851430D01*
X109400712Y-80780207D01*
X109303244Y-80734374D01*
X109219759Y-80748159D01*
X109204506Y-80755814D01*
X109135713Y-80815293D01*
X109117000Y-80861698D01*
X109113444Y-81078630D01*
X109103751Y-81302926D01*
X109089384Y-81516867D01*
X109071806Y-81702730D01*
X109052481Y-81842793D01*
X109032871Y-81919335D01*
X109029186Y-81925293D01*
X108950893Y-81965349D01*
X108812485Y-81984221D01*
X108773150Y-81985000D01*
X108566667Y-81985000D01*
X108563989Y-81783917D01*
X108562687Y-81684116D01*
X108560506Y-81514603D01*
X108557637Y-81290321D01*
X108554270Y-81026219D01*
X108550598Y-80737243D01*
X108548580Y-80578108D01*
X108543468Y-80238647D01*
X108536602Y-79974477D01*
X108526232Y-79776221D01*
X108510609Y-79634504D01*
X108487982Y-79539950D01*
X108456603Y-79483182D01*
X108414721Y-79454825D01*
X108360586Y-79445502D01*
X108337117Y-79445000D01*
X108282716Y-79447737D01*
X108282716Y-79447737D01*
G37*
X108282716Y-79447737D02*
X108239578Y-79461806D01*
X108206399Y-79496000D01*
X108181872Y-79559109D01*
X108164694Y-79659924D01*
X108153559Y-79807236D01*
X108147162Y-80009834D01*
X108144199Y-80276511D01*
X108143364Y-80616057D01*
X108143333Y-80750462D01*
X108143333Y-81954324D01*
X107901686Y-81925923D01*
X107726468Y-81906274D01*
X107605585Y-81886196D01*
X107529029Y-81851453D01*
X107486796Y-81787812D01*
X107468881Y-81681039D01*
X107465277Y-81516899D01*
X107466000Y-81306101D01*
X107464019Y-81070110D01*
X107457044Y-80904555D01*
X107443530Y-80795279D01*
X107421930Y-80728121D01*
X107399476Y-80696857D01*
X107318101Y-80638711D01*
X107231951Y-80644079D01*
X107166884Y-80674156D01*
X107137929Y-80694836D01*
X107116720Y-80729320D01*
X107102061Y-80789622D01*
X107092756Y-80887756D01*
X107087609Y-81035737D01*
X107085423Y-81245579D01*
X107085000Y-81496632D01*
X107086051Y-81780254D01*
X107089821Y-81991007D01*
X107097238Y-82140671D01*
X107109229Y-82241024D01*
X107126721Y-82303846D01*
X107150641Y-82340916D01*
X107151524Y-82341810D01*
X107243304Y-82401555D01*
X107340978Y-82387350D01*
X107403664Y-82349991D01*
X107474868Y-82319528D01*
X107584329Y-82309259D01*
X107751915Y-82317832D01*
X107804667Y-82322706D01*
X107978181Y-82335903D01*
X108204815Y-82347837D01*
X108453023Y-82357064D01*
X108655027Y-82361663D01*
X108883066Y-82363500D01*
X109042469Y-82359906D01*
X109149188Y-82349132D01*
X109219173Y-82329429D01*
X109268375Y-82299047D01*
X109274677Y-82293699D01*
X109345982Y-82209997D01*
X109399789Y-82092272D01*
X109438985Y-81928138D01*
X109466459Y-81705210D01*
X109485097Y-81411100D01*
X109486191Y-81386465D01*
X109509414Y-80851430D01*
X109400712Y-80780207D01*
X109303244Y-80734374D01*
X109219759Y-80748159D01*
X109204506Y-80755814D01*
X109135713Y-80815293D01*
X109117000Y-80861698D01*
X109113444Y-81078630D01*
X109103751Y-81302926D01*
X109089384Y-81516867D01*
X109071806Y-81702730D01*
X109052481Y-81842793D01*
X109032871Y-81919335D01*
X109029186Y-81925293D01*
X108950893Y-81965349D01*
X108812485Y-81984221D01*
X108773150Y-81985000D01*
X108566667Y-81985000D01*
X108563989Y-81783917D01*
X108562687Y-81684116D01*
X108560506Y-81514603D01*
X108557637Y-81290321D01*
X108554270Y-81026219D01*
X108550598Y-80737243D01*
X108548580Y-80578108D01*
X108543468Y-80238647D01*
X108536602Y-79974477D01*
X108526232Y-79776221D01*
X108510609Y-79634504D01*
X108487982Y-79539950D01*
X108456603Y-79483182D01*
X108414721Y-79454825D01*
X108360586Y-79445502D01*
X108337117Y-79445000D01*
X108282716Y-79447737D01*
G36*
X103813791Y-78669324D02*
X103751079Y-78745794D01*
X103747919Y-78855827D01*
X103805290Y-78985173D01*
X103903418Y-79100641D01*
X104013313Y-79215675D01*
X104142326Y-79367929D01*
X104279667Y-79542485D01*
X104414543Y-79724426D01*
X104536162Y-79898834D01*
X104633731Y-80050793D01*
X104696460Y-80165385D01*
X104714333Y-80221523D01*
X104673897Y-80237645D01*
X104559088Y-80243931D01*
X104379659Y-80240119D01*
X104259250Y-80233764D01*
X104000526Y-80214872D01*
X103753197Y-80191455D01*
X103530991Y-80165373D01*
X103347636Y-80138486D01*
X103216858Y-80112653D01*
X103152386Y-80089734D01*
X103148000Y-80083221D01*
X103170931Y-80030161D01*
X103210154Y-79971675D01*
X103265454Y-79851105D01*
X103264139Y-79732826D01*
X103215999Y-79637414D01*
X103130828Y-79585447D01*
X103029984Y-79593050D01*
X102981569Y-79636373D01*
X102898369Y-79737668D01*
X102790757Y-79883287D01*
X102669105Y-80059583D01*
X102626537Y-80123860D01*
X102473657Y-80365546D01*
X102371509Y-80550027D01*
X102317745Y-80686058D01*
X102310019Y-80782397D01*
X102345984Y-80847800D01*
X102421123Y-80890234D01*
X102501555Y-80901896D01*
X102578311Y-80860890D01*
X102632790Y-80808911D01*
X102734794Y-80695863D01*
X102826912Y-80583139D01*
X102830500Y-80578377D01*
X102915167Y-80465366D01*
X103211500Y-80523930D01*
X103563882Y-80578514D01*
X103991234Y-80618438D01*
X104485014Y-80642968D01*
X104650833Y-80647344D01*
X104881476Y-80650448D01*
X105042064Y-80646377D01*
X105147096Y-80632339D01*
X105211072Y-80605542D01*
X105248490Y-80563194D01*
X105264199Y-80529222D01*
X105262303Y-80435549D01*
X105212257Y-80290746D01*
X105122438Y-80106716D01*
X105001223Y-79895362D01*
X104856990Y-79668586D01*
X104698114Y-79438292D01*
X104532974Y-79216382D01*
X104369946Y-79014760D01*
X104217407Y-78845327D01*
X104083735Y-78719988D01*
X103977306Y-78650646D01*
X103935074Y-78640667D01*
X103813791Y-78669324D01*
X103813791Y-78669324D01*
G37*
X103813791Y-78669324D02*
X103751079Y-78745794D01*
X103747919Y-78855827D01*
X103805290Y-78985173D01*
X103903418Y-79100641D01*
X104013313Y-79215675D01*
X104142326Y-79367929D01*
X104279667Y-79542485D01*
X104414543Y-79724426D01*
X104536162Y-79898834D01*
X104633731Y-80050793D01*
X104696460Y-80165385D01*
X104714333Y-80221523D01*
X104673897Y-80237645D01*
X104559088Y-80243931D01*
X104379659Y-80240119D01*
X104259250Y-80233764D01*
X104000526Y-80214872D01*
X103753197Y-80191455D01*
X103530991Y-80165373D01*
X103347636Y-80138486D01*
X103216858Y-80112653D01*
X103152386Y-80089734D01*
X103148000Y-80083221D01*
X103170931Y-80030161D01*
X103210154Y-79971675D01*
X103265454Y-79851105D01*
X103264139Y-79732826D01*
X103215999Y-79637414D01*
X103130828Y-79585447D01*
X103029984Y-79593050D01*
X102981569Y-79636373D01*
X102898369Y-79737668D01*
X102790757Y-79883287D01*
X102669105Y-80059583D01*
X102626537Y-80123860D01*
X102473657Y-80365546D01*
X102371509Y-80550027D01*
X102317745Y-80686058D01*
X102310019Y-80782397D01*
X102345984Y-80847800D01*
X102421123Y-80890234D01*
X102501555Y-80901896D01*
X102578311Y-80860890D01*
X102632790Y-80808911D01*
X102734794Y-80695863D01*
X102826912Y-80583139D01*
X102830500Y-80578377D01*
X102915167Y-80465366D01*
X103211500Y-80523930D01*
X103563882Y-80578514D01*
X103991234Y-80618438D01*
X104485014Y-80642968D01*
X104650833Y-80647344D01*
X104881476Y-80650448D01*
X105042064Y-80646377D01*
X105147096Y-80632339D01*
X105211072Y-80605542D01*
X105248490Y-80563194D01*
X105264199Y-80529222D01*
X105262303Y-80435549D01*
X105212257Y-80290746D01*
X105122438Y-80106716D01*
X105001223Y-79895362D01*
X104856990Y-79668586D01*
X104698114Y-79438292D01*
X104532974Y-79216382D01*
X104369946Y-79014760D01*
X104217407Y-78845327D01*
X104083735Y-78719988D01*
X103977306Y-78650646D01*
X103935074Y-78640667D01*
X103813791Y-78669324D01*
G36*
X105729154Y-64745858D02*
X105365085Y-64774169D01*
X105095333Y-64811876D01*
X104343337Y-64990227D01*
X103626851Y-65243165D01*
X102949995Y-65566646D01*
X102316889Y-65956627D01*
X101731652Y-66409061D01*
X101198404Y-66919905D01*
X100721265Y-67485115D01*
X100304355Y-68100644D01*
X99951794Y-68762450D01*
X99667700Y-69466486D01*
X99456195Y-70208710D01*
X99417991Y-70385667D01*
X99368989Y-70693598D01*
X99332701Y-71057266D01*
X99310246Y-71448539D01*
X99302748Y-71839282D01*
X99311326Y-72201365D01*
X99334342Y-72484666D01*
X99464245Y-73235557D01*
X99667143Y-73961706D01*
X99939474Y-74654650D01*
X100277676Y-75305931D01*
X100678186Y-75907088D01*
X100885074Y-76167690D01*
X101062743Y-76376976D01*
X101208559Y-76540913D01*
X101343351Y-76680436D01*
X101487946Y-76816477D01*
X101663172Y-76969970D01*
X101793333Y-77080551D01*
X102404073Y-77541247D01*
X103059868Y-77930842D01*
X103757512Y-78247797D01*
X104493796Y-78490573D01*
X104968333Y-78603177D01*
X105158517Y-78632772D01*
X105411780Y-78659231D01*
X105706563Y-78681547D01*
X106021304Y-78698713D01*
X106334444Y-78709724D01*
X106624423Y-78713573D01*
X106869680Y-78709254D01*
X107021500Y-78698997D01*
X107509441Y-78619500D01*
X107254333Y-78619500D01*
X107233167Y-78640667D01*
X107212000Y-78619500D01*
X107233167Y-78598334D01*
X107254333Y-78619500D01*
X107509441Y-78619500D01*
X107765305Y-78577814D01*
X108489734Y-78377932D01*
X109187934Y-78103536D01*
X109853050Y-77758816D01*
X110478228Y-77347959D01*
X111056615Y-76875153D01*
X111581355Y-76344585D01*
X112045595Y-75760442D01*
X112197276Y-75536788D01*
X112569653Y-74886208D01*
X112868283Y-74200223D01*
X113092114Y-73486829D01*
X113240096Y-72754019D01*
X113311178Y-72009791D01*
X113305724Y-71416134D01*
X113268810Y-71416134D01*
X113260199Y-72162682D01*
X113172839Y-72904883D01*
X113007040Y-73634709D01*
X112763111Y-74344131D01*
X112608536Y-74695889D01*
X112273826Y-75311654D01*
X111866515Y-75906016D01*
X111398379Y-76464557D01*
X110881196Y-76972863D01*
X110475863Y-77306644D01*
X109967489Y-77650111D01*
X109398346Y-77958263D01*
X108788242Y-78221768D01*
X108156989Y-78431299D01*
X107995167Y-78474933D01*
X107774390Y-78528439D01*
X107590921Y-78566911D01*
X107452420Y-78589720D01*
X107366544Y-78596235D01*
X107340953Y-78585827D01*
X107383307Y-78557866D01*
X107487167Y-78516702D01*
X107965009Y-78302345D01*
X108403652Y-78017296D01*
X108795994Y-77669212D01*
X109134935Y-77265750D01*
X109413373Y-76814564D01*
X109624208Y-76323310D01*
X109677172Y-76155666D01*
X109736002Y-75873885D01*
X109770412Y-75538904D01*
X109780402Y-75178589D01*
X109765971Y-74820809D01*
X109761540Y-74783470D01*
X107325316Y-74783470D01*
X107314765Y-74860388D01*
X107277465Y-74902895D01*
X107268571Y-74908207D01*
X107176971Y-74934487D01*
X107113791Y-74889243D01*
X107104831Y-74862292D01*
X106660257Y-74862292D01*
X106655397Y-75034817D01*
X106636732Y-75205908D01*
X106605358Y-75347445D01*
X106594994Y-75376585D01*
X106492253Y-75536628D01*
X106327472Y-75682572D01*
X106123097Y-75794790D01*
X106111333Y-75799522D01*
X105978174Y-75832974D01*
X105830128Y-75842700D01*
X105698117Y-75829427D01*
X105613062Y-75793884D01*
X105607056Y-75787652D01*
X105590278Y-75716458D01*
X105637901Y-75648450D01*
X105731074Y-75602228D01*
X105804658Y-75592667D01*
X105950235Y-75565488D01*
X106109763Y-75495748D01*
X106251195Y-75401143D01*
X106342488Y-75299368D01*
X106345322Y-75294100D01*
X106394489Y-75191107D01*
X106401242Y-75141967D01*
X106365941Y-75127469D01*
X106348472Y-75127000D01*
X106284284Y-75113155D01*
X106162290Y-75076092D01*
X106003881Y-75022520D01*
X105923035Y-74993583D01*
X105748242Y-74927271D01*
X105640193Y-74877527D01*
X105584861Y-74835534D01*
X105568219Y-74792474D01*
X105569480Y-74771333D01*
X105593656Y-74711681D01*
X105659368Y-74688477D01*
X105739331Y-74687188D01*
X105872316Y-74707386D01*
X106031729Y-74753345D01*
X106107012Y-74782438D01*
X106255369Y-74843056D01*
X106344052Y-74865037D01*
X106389980Y-74845821D01*
X106410075Y-74782848D01*
X106415568Y-74735764D01*
X106449949Y-74633057D01*
X106514351Y-74579418D01*
X106586418Y-74586671D01*
X106624196Y-74625418D01*
X106650221Y-74716452D01*
X106660257Y-74862292D01*
X107104831Y-74862292D01*
X107073229Y-74767242D01*
X107066181Y-74725734D01*
X107029407Y-74588879D01*
X106973574Y-74515155D01*
X106966552Y-74511672D01*
X106902491Y-74500852D01*
X106768767Y-74489290D01*
X106580366Y-74477906D01*
X106352275Y-74467618D01*
X106123932Y-74460014D01*
X105353363Y-74438515D01*
X105361932Y-74624008D01*
X105362967Y-74739345D01*
X105343973Y-74793332D01*
X105293094Y-74808891D01*
X105265992Y-74809500D01*
X105197223Y-74795309D01*
X105145094Y-74739864D01*
X105092655Y-74623858D01*
X105084882Y-74603188D01*
X105035536Y-74429039D01*
X105041311Y-74311459D01*
X105104022Y-74241243D01*
X105160356Y-74220234D01*
X105265707Y-74206279D01*
X105437124Y-74197465D01*
X105656178Y-74193547D01*
X105904439Y-74194278D01*
X106163478Y-74199412D01*
X106414866Y-74208701D01*
X106640174Y-74221898D01*
X106820973Y-74238758D01*
X106852576Y-74242883D01*
X107042937Y-74272460D01*
X107166336Y-74306998D01*
X107239876Y-74361535D01*
X107280660Y-74451115D01*
X107305789Y-74590776D01*
X107313258Y-74648032D01*
X107325316Y-74783470D01*
X109761540Y-74783470D01*
X109727120Y-74493429D01*
X109677172Y-74267668D01*
X109492499Y-73771918D01*
X109361677Y-73534435D01*
X106864971Y-73534435D01*
X106846561Y-73586383D01*
X106796279Y-73615946D01*
X106693334Y-73631436D01*
X106608750Y-73636863D01*
X106469577Y-73648068D01*
X106395757Y-73668123D01*
X106367985Y-73704581D01*
X106365333Y-73732113D01*
X106394464Y-73799773D01*
X106460583Y-73815245D01*
X106628686Y-73834258D01*
X106722616Y-73889809D01*
X106746333Y-73964243D01*
X106727726Y-74046819D01*
X106697561Y-74077869D01*
X106634147Y-74083525D01*
X106510267Y-74084291D01*
X106349924Y-74081045D01*
X106177123Y-74074663D01*
X106015867Y-74066022D01*
X105890161Y-74055999D01*
X105825583Y-74046013D01*
X105779915Y-73995730D01*
X105779040Y-73916941D01*
X105820127Y-73851144D01*
X105839629Y-73840363D01*
X105934600Y-73819920D01*
X106011907Y-73814667D01*
X106089277Y-73799867D01*
X106106080Y-73740861D01*
X106103694Y-73719417D01*
X106075770Y-73650268D01*
X106002998Y-73635047D01*
X105976062Y-73637477D01*
X105850684Y-73629418D01*
X105746301Y-73584816D01*
X105690919Y-73517310D01*
X105688000Y-73497167D01*
X105726122Y-73423809D01*
X105828201Y-73378257D01*
X105973750Y-73368660D01*
X106069324Y-73365960D01*
X106106666Y-73330282D01*
X106111333Y-73283878D01*
X106138207Y-73184790D01*
X106174294Y-73137781D01*
X106262372Y-73101922D01*
X106331399Y-73139637D01*
X106364494Y-73239861D01*
X106365333Y-73263005D01*
X106372664Y-73347199D01*
X106411307Y-73383368D01*
X106506243Y-73391796D01*
X106524083Y-73391912D01*
X106709594Y-73403082D01*
X106820565Y-73437134D01*
X106864822Y-73497337D01*
X106864971Y-73534435D01*
X109361677Y-73534435D01*
X109238391Y-73310633D01*
X108922644Y-72892622D01*
X108553052Y-72526695D01*
X108137410Y-72221663D01*
X107683513Y-71986335D01*
X107644532Y-71970279D01*
X107390441Y-71876936D01*
X107140544Y-71807084D01*
X106870825Y-71755851D01*
X106557265Y-71718366D01*
X106301833Y-71697903D01*
X105892302Y-71659181D01*
X105543699Y-71600805D01*
X105233449Y-71517101D01*
X104938978Y-71402396D01*
X104738503Y-71304976D01*
X104268845Y-71015763D01*
X103860357Y-70671128D01*
X103516403Y-70276556D01*
X103240344Y-69837536D01*
X103035541Y-69359553D01*
X102905358Y-68848095D01*
X102853157Y-68308648D01*
X102852260Y-68226667D01*
X102892658Y-67688830D01*
X103010784Y-67176762D01*
X103202035Y-66696482D01*
X103461807Y-66254008D01*
X103785498Y-65855359D01*
X104168504Y-65506554D01*
X104606222Y-65213611D01*
X105094050Y-64982550D01*
X105416421Y-64873938D01*
X105560195Y-64835752D01*
X105695879Y-64809082D01*
X105843628Y-64792044D01*
X106023597Y-64782753D01*
X106255939Y-64779325D01*
X106428833Y-64779299D01*
X107191279Y-64821359D01*
X107924609Y-64942916D01*
X108628730Y-65143932D01*
X109303551Y-65424368D01*
X109948980Y-65784184D01*
X110564923Y-66223341D01*
X111151289Y-66741800D01*
X111216168Y-66805853D01*
X111667096Y-67289155D01*
X112047310Y-67772390D01*
X112368783Y-68273672D01*
X112643491Y-68811119D01*
X112819060Y-69230678D01*
X113048550Y-69942104D01*
X113198364Y-70673265D01*
X113268810Y-71416134D01*
X113305724Y-71416134D01*
X113304308Y-71262138D01*
X113218437Y-70519058D01*
X113052513Y-69788545D01*
X112982802Y-69560167D01*
X112707392Y-68845837D01*
X112361364Y-68174667D01*
X111949092Y-67550518D01*
X111474952Y-66977251D01*
X110943317Y-66458727D01*
X110358564Y-65998806D01*
X109725067Y-65601348D01*
X109047201Y-65270215D01*
X108329341Y-65009268D01*
X107624979Y-64832019D01*
X107316160Y-64785065D01*
X106948046Y-64752780D01*
X106544757Y-64735356D01*
X106130419Y-64732984D01*
X105729154Y-64745858D01*
X105729154Y-64745858D01*
G37*
X105729154Y-64745858D02*
X105365085Y-64774169D01*
X105095333Y-64811876D01*
X104343337Y-64990227D01*
X103626851Y-65243165D01*
X102949995Y-65566646D01*
X102316889Y-65956627D01*
X101731652Y-66409061D01*
X101198404Y-66919905D01*
X100721265Y-67485115D01*
X100304355Y-68100644D01*
X99951794Y-68762450D01*
X99667700Y-69466486D01*
X99456195Y-70208710D01*
X99417991Y-70385667D01*
X99368989Y-70693598D01*
X99332701Y-71057266D01*
X99310246Y-71448539D01*
X99302748Y-71839282D01*
X99311326Y-72201365D01*
X99334342Y-72484666D01*
X99464245Y-73235557D01*
X99667143Y-73961706D01*
X99939474Y-74654650D01*
X100277676Y-75305931D01*
X100678186Y-75907088D01*
X100885074Y-76167690D01*
X101062743Y-76376976D01*
X101208559Y-76540913D01*
X101343351Y-76680436D01*
X101487946Y-76816477D01*
X101663172Y-76969970D01*
X101793333Y-77080551D01*
X102404073Y-77541247D01*
X103059868Y-77930842D01*
X103757512Y-78247797D01*
X104493796Y-78490573D01*
X104968333Y-78603177D01*
X105158517Y-78632772D01*
X105411780Y-78659231D01*
X105706563Y-78681547D01*
X106021304Y-78698713D01*
X106334444Y-78709724D01*
X106624423Y-78713573D01*
X106869680Y-78709254D01*
X107021500Y-78698997D01*
X107509441Y-78619500D01*
X107254333Y-78619500D01*
X107233167Y-78640667D01*
X107212000Y-78619500D01*
X107233167Y-78598334D01*
X107254333Y-78619500D01*
X107509441Y-78619500D01*
X107765305Y-78577814D01*
X108489734Y-78377932D01*
X109187934Y-78103536D01*
X109853050Y-77758816D01*
X110478228Y-77347959D01*
X111056615Y-76875153D01*
X111581355Y-76344585D01*
X112045595Y-75760442D01*
X112197276Y-75536788D01*
X112569653Y-74886208D01*
X112868283Y-74200223D01*
X113092114Y-73486829D01*
X113240096Y-72754019D01*
X113311178Y-72009791D01*
X113305724Y-71416134D01*
X113268810Y-71416134D01*
X113260199Y-72162682D01*
X113172839Y-72904883D01*
X113007040Y-73634709D01*
X112763111Y-74344131D01*
X112608536Y-74695889D01*
X112273826Y-75311654D01*
X111866515Y-75906016D01*
X111398379Y-76464557D01*
X110881196Y-76972863D01*
X110475863Y-77306644D01*
X109967489Y-77650111D01*
X109398346Y-77958263D01*
X108788242Y-78221768D01*
X108156989Y-78431299D01*
X107995167Y-78474933D01*
X107774390Y-78528439D01*
X107590921Y-78566911D01*
X107452420Y-78589720D01*
X107366544Y-78596235D01*
X107340953Y-78585827D01*
X107383307Y-78557866D01*
X107487167Y-78516702D01*
X107965009Y-78302345D01*
X108403652Y-78017296D01*
X108795994Y-77669212D01*
X109134935Y-77265750D01*
X109413373Y-76814564D01*
X109624208Y-76323310D01*
X109677172Y-76155666D01*
X109736002Y-75873885D01*
X109770412Y-75538904D01*
X109780402Y-75178589D01*
X109765971Y-74820809D01*
X109761540Y-74783470D01*
X107325316Y-74783470D01*
X107314765Y-74860388D01*
X107277465Y-74902895D01*
X107268571Y-74908207D01*
X107176971Y-74934487D01*
X107113791Y-74889243D01*
X107104831Y-74862292D01*
X106660257Y-74862292D01*
X106655397Y-75034817D01*
X106636732Y-75205908D01*
X106605358Y-75347445D01*
X106594994Y-75376585D01*
X106492253Y-75536628D01*
X106327472Y-75682572D01*
X106123097Y-75794790D01*
X106111333Y-75799522D01*
X105978174Y-75832974D01*
X105830128Y-75842700D01*
X105698117Y-75829427D01*
X105613062Y-75793884D01*
X105607056Y-75787652D01*
X105590278Y-75716458D01*
X105637901Y-75648450D01*
X105731074Y-75602228D01*
X105804658Y-75592667D01*
X105950235Y-75565488D01*
X106109763Y-75495748D01*
X106251195Y-75401143D01*
X106342488Y-75299368D01*
X106345322Y-75294100D01*
X106394489Y-75191107D01*
X106401242Y-75141967D01*
X106365941Y-75127469D01*
X106348472Y-75127000D01*
X106284284Y-75113155D01*
X106162290Y-75076092D01*
X106003881Y-75022520D01*
X105923035Y-74993583D01*
X105748242Y-74927271D01*
X105640193Y-74877527D01*
X105584861Y-74835534D01*
X105568219Y-74792474D01*
X105569480Y-74771333D01*
X105593656Y-74711681D01*
X105659368Y-74688477D01*
X105739331Y-74687188D01*
X105872316Y-74707386D01*
X106031729Y-74753345D01*
X106107012Y-74782438D01*
X106255369Y-74843056D01*
X106344052Y-74865037D01*
X106389980Y-74845821D01*
X106410075Y-74782848D01*
X106415568Y-74735764D01*
X106449949Y-74633057D01*
X106514351Y-74579418D01*
X106586418Y-74586671D01*
X106624196Y-74625418D01*
X106650221Y-74716452D01*
X106660257Y-74862292D01*
X107104831Y-74862292D01*
X107073229Y-74767242D01*
X107066181Y-74725734D01*
X107029407Y-74588879D01*
X106973574Y-74515155D01*
X106966552Y-74511672D01*
X106902491Y-74500852D01*
X106768767Y-74489290D01*
X106580366Y-74477906D01*
X106352275Y-74467618D01*
X106123932Y-74460014D01*
X105353363Y-74438515D01*
X105361932Y-74624008D01*
X105362967Y-74739345D01*
X105343973Y-74793332D01*
X105293094Y-74808891D01*
X105265992Y-74809500D01*
X105197223Y-74795309D01*
X105145094Y-74739864D01*
X105092655Y-74623858D01*
X105084882Y-74603188D01*
X105035536Y-74429039D01*
X105041311Y-74311459D01*
X105104022Y-74241243D01*
X105160356Y-74220234D01*
X105265707Y-74206279D01*
X105437124Y-74197465D01*
X105656178Y-74193547D01*
X105904439Y-74194278D01*
X106163478Y-74199412D01*
X106414866Y-74208701D01*
X106640174Y-74221898D01*
X106820973Y-74238758D01*
X106852576Y-74242883D01*
X107042937Y-74272460D01*
X107166336Y-74306998D01*
X107239876Y-74361535D01*
X107280660Y-74451115D01*
X107305789Y-74590776D01*
X107313258Y-74648032D01*
X107325316Y-74783470D01*
X109761540Y-74783470D01*
X109727120Y-74493429D01*
X109677172Y-74267668D01*
X109492499Y-73771918D01*
X109361677Y-73534435D01*
X106864971Y-73534435D01*
X106846561Y-73586383D01*
X106796279Y-73615946D01*
X106693334Y-73631436D01*
X106608750Y-73636863D01*
X106469577Y-73648068D01*
X106395757Y-73668123D01*
X106367985Y-73704581D01*
X106365333Y-73732113D01*
X106394464Y-73799773D01*
X106460583Y-73815245D01*
X106628686Y-73834258D01*
X106722616Y-73889809D01*
X106746333Y-73964243D01*
X106727726Y-74046819D01*
X106697561Y-74077869D01*
X106634147Y-74083525D01*
X106510267Y-74084291D01*
X106349924Y-74081045D01*
X106177123Y-74074663D01*
X106015867Y-74066022D01*
X105890161Y-74055999D01*
X105825583Y-74046013D01*
X105779915Y-73995730D01*
X105779040Y-73916941D01*
X105820127Y-73851144D01*
X105839629Y-73840363D01*
X105934600Y-73819920D01*
X106011907Y-73814667D01*
X106089277Y-73799867D01*
X106106080Y-73740861D01*
X106103694Y-73719417D01*
X106075770Y-73650268D01*
X106002998Y-73635047D01*
X105976062Y-73637477D01*
X105850684Y-73629418D01*
X105746301Y-73584816D01*
X105690919Y-73517310D01*
X105688000Y-73497167D01*
X105726122Y-73423809D01*
X105828201Y-73378257D01*
X105973750Y-73368660D01*
X106069324Y-73365960D01*
X106106666Y-73330282D01*
X106111333Y-73283878D01*
X106138207Y-73184790D01*
X106174294Y-73137781D01*
X106262372Y-73101922D01*
X106331399Y-73139637D01*
X106364494Y-73239861D01*
X106365333Y-73263005D01*
X106372664Y-73347199D01*
X106411307Y-73383368D01*
X106506243Y-73391796D01*
X106524083Y-73391912D01*
X106709594Y-73403082D01*
X106820565Y-73437134D01*
X106864822Y-73497337D01*
X106864971Y-73534435D01*
X109361677Y-73534435D01*
X109238391Y-73310633D01*
X108922644Y-72892622D01*
X108553052Y-72526695D01*
X108137410Y-72221663D01*
X107683513Y-71986335D01*
X107644532Y-71970279D01*
X107390441Y-71876936D01*
X107140544Y-71807084D01*
X106870825Y-71755851D01*
X106557265Y-71718366D01*
X106301833Y-71697903D01*
X105892302Y-71659181D01*
X105543699Y-71600805D01*
X105233449Y-71517101D01*
X104938978Y-71402396D01*
X104738503Y-71304976D01*
X104268845Y-71015763D01*
X103860357Y-70671128D01*
X103516403Y-70276556D01*
X103240344Y-69837536D01*
X103035541Y-69359553D01*
X102905358Y-68848095D01*
X102853157Y-68308648D01*
X102852260Y-68226667D01*
X102892658Y-67688830D01*
X103010784Y-67176762D01*
X103202035Y-66696482D01*
X103461807Y-66254008D01*
X103785498Y-65855359D01*
X104168504Y-65506554D01*
X104606222Y-65213611D01*
X105094050Y-64982550D01*
X105416421Y-64873938D01*
X105560195Y-64835752D01*
X105695879Y-64809082D01*
X105843628Y-64792044D01*
X106023597Y-64782753D01*
X106255939Y-64779325D01*
X106428833Y-64779299D01*
X107191279Y-64821359D01*
X107924609Y-64942916D01*
X108628730Y-65143932D01*
X109303551Y-65424368D01*
X109948980Y-65784184D01*
X110564923Y-66223341D01*
X111151289Y-66741800D01*
X111216168Y-66805853D01*
X111667096Y-67289155D01*
X112047310Y-67772390D01*
X112368783Y-68273672D01*
X112643491Y-68811119D01*
X112819060Y-69230678D01*
X113048550Y-69942104D01*
X113198364Y-70673265D01*
X113268810Y-71416134D01*
X113305724Y-71416134D01*
X113304308Y-71262138D01*
X113218437Y-70519058D01*
X113052513Y-69788545D01*
X112982802Y-69560167D01*
X112707392Y-68845837D01*
X112361364Y-68174667D01*
X111949092Y-67550518D01*
X111474952Y-66977251D01*
X110943317Y-66458727D01*
X110358564Y-65998806D01*
X109725067Y-65601348D01*
X109047201Y-65270215D01*
X108329341Y-65009268D01*
X107624979Y-64832019D01*
X107316160Y-64785065D01*
X106948046Y-64752780D01*
X106544757Y-64735356D01*
X106130419Y-64732984D01*
X105729154Y-64745858D01*
G36*
X106207160Y-68001938D02*
X106139827Y-68067731D01*
X106011416Y-68167681D01*
X105865085Y-68239078D01*
X105836167Y-68247648D01*
X105705236Y-68300046D01*
X105649509Y-68375609D01*
X105668989Y-68478844D01*
X105763680Y-68614258D01*
X105836572Y-68692745D01*
X105941465Y-68809726D01*
X105991906Y-68890336D01*
X105988393Y-68922658D01*
X105952421Y-68983157D01*
X105942000Y-69054665D01*
X105966098Y-69138151D01*
X106034779Y-69154517D01*
X106142625Y-69104969D01*
X106284220Y-68990713D01*
X106301090Y-68974757D01*
X106401970Y-68867179D01*
X106471268Y-68772402D01*
X106492333Y-68719428D01*
X106459902Y-68644111D01*
X106384292Y-68618199D01*
X106300053Y-68651478D01*
X106244016Y-68678020D01*
X106180841Y-68649627D01*
X106131259Y-68606501D01*
X106060402Y-68532900D01*
X106027043Y-68484401D01*
X106026667Y-68481805D01*
X106065688Y-68471644D01*
X106169827Y-68467254D01*
X106319698Y-68469177D01*
X106386394Y-68471757D01*
X106565654Y-68477554D01*
X106677802Y-68473439D01*
X106740058Y-68457019D01*
X106769640Y-68425903D01*
X106773015Y-68418060D01*
X106775136Y-68335460D01*
X106704364Y-68277740D01*
X106555850Y-68241139D01*
X106542674Y-68239305D01*
X106436487Y-68220471D01*
X106398747Y-68194540D01*
X106413425Y-68148715D01*
X106418584Y-68140250D01*
X106442857Y-68057648D01*
X106410520Y-67997271D01*
X106350517Y-67943249D01*
X106289192Y-67943123D01*
X106207160Y-68001938D01*
X106207160Y-68001938D01*
G37*
X106207160Y-68001938D02*
X106139827Y-68067731D01*
X106011416Y-68167681D01*
X105865085Y-68239078D01*
X105836167Y-68247648D01*
X105705236Y-68300046D01*
X105649509Y-68375609D01*
X105668989Y-68478844D01*
X105763680Y-68614258D01*
X105836572Y-68692745D01*
X105941465Y-68809726D01*
X105991906Y-68890336D01*
X105988393Y-68922658D01*
X105952421Y-68983157D01*
X105942000Y-69054665D01*
X105966098Y-69138151D01*
X106034779Y-69154517D01*
X106142625Y-69104969D01*
X106284220Y-68990713D01*
X106301090Y-68974757D01*
X106401970Y-68867179D01*
X106471268Y-68772402D01*
X106492333Y-68719428D01*
X106459902Y-68644111D01*
X106384292Y-68618199D01*
X106300053Y-68651478D01*
X106244016Y-68678020D01*
X106180841Y-68649627D01*
X106131259Y-68606501D01*
X106060402Y-68532900D01*
X106027043Y-68484401D01*
X106026667Y-68481805D01*
X106065688Y-68471644D01*
X106169827Y-68467254D01*
X106319698Y-68469177D01*
X106386394Y-68471757D01*
X106565654Y-68477554D01*
X106677802Y-68473439D01*
X106740058Y-68457019D01*
X106769640Y-68425903D01*
X106773015Y-68418060D01*
X106775136Y-68335460D01*
X106704364Y-68277740D01*
X106555850Y-68241139D01*
X106542674Y-68239305D01*
X106436487Y-68220471D01*
X106398747Y-68194540D01*
X106413425Y-68148715D01*
X106418584Y-68140250D01*
X106442857Y-68057648D01*
X106410520Y-67997271D01*
X106350517Y-67943249D01*
X106289192Y-67943123D01*
X106207160Y-68001938D01*
G36*
X105778519Y-66246513D02*
X105700023Y-66253141D01*
X105691376Y-66256080D01*
X105649308Y-66323083D01*
X105658254Y-66408180D01*
X105712629Y-66465304D01*
X105795176Y-66481292D01*
X105920911Y-66490282D01*
X105966629Y-66491000D01*
X106090931Y-66499612D01*
X106146775Y-66528791D01*
X106153667Y-66554500D01*
X106137766Y-66586776D01*
X106080185Y-66606593D01*
X105966104Y-66616724D01*
X105804417Y-66619844D01*
X105524914Y-66629600D01*
X105300420Y-66654588D01*
X105140230Y-66693195D01*
X105053642Y-66743810D01*
X105048494Y-66750842D01*
X105017758Y-66847987D01*
X105012702Y-66980975D01*
X105029055Y-67125215D01*
X105062543Y-67256115D01*
X105108895Y-67349084D01*
X105157791Y-67380000D01*
X105243789Y-67343639D01*
X105289999Y-67246000D01*
X105288491Y-67104251D01*
X105287554Y-67099115D01*
X105276418Y-67002811D01*
X105294367Y-66938416D01*
X105354059Y-66899579D01*
X105468157Y-66879949D01*
X105649321Y-66873174D01*
X105738999Y-66872648D01*
X106107497Y-66872000D01*
X106134603Y-67016486D01*
X106145710Y-67141784D01*
X106135084Y-67244775D01*
X106134356Y-67247154D01*
X106143219Y-67352104D01*
X106193835Y-67420168D01*
X106243086Y-67480795D01*
X106241802Y-67506975D01*
X106240864Y-67507000D01*
X106190420Y-67531026D01*
X106092382Y-67594729D01*
X105965787Y-67685552D01*
X105933947Y-67709477D01*
X105757326Y-67836199D01*
X105551083Y-67973767D01*
X105359917Y-68092367D01*
X105192984Y-68196475D01*
X105095369Y-68275541D01*
X105059379Y-68339702D01*
X105077319Y-68399097D01*
X105103800Y-68429867D01*
X105139126Y-68462139D01*
X105174903Y-68473344D01*
X105229001Y-68458233D01*
X105319289Y-68411558D01*
X105463637Y-68328071D01*
X105477005Y-68320259D01*
X105663723Y-68206275D01*
X105867831Y-68074367D01*
X106011220Y-67976688D01*
X106270940Y-67793526D01*
X106540387Y-67999951D01*
X106809884Y-68196165D01*
X107023673Y-68329106D01*
X107182135Y-68398920D01*
X107285653Y-68405756D01*
X107334609Y-68349763D01*
X107339000Y-68309472D01*
X107301607Y-68243605D01*
X107192315Y-68144746D01*
X107015461Y-68016743D01*
X106989750Y-67999504D01*
X106724182Y-67814070D01*
X106528879Y-67658464D01*
X106405569Y-67534345D01*
X106355979Y-67443371D01*
X106365919Y-67400461D01*
X106391401Y-67326822D01*
X106403382Y-67202349D01*
X106402336Y-67117733D01*
X106390483Y-66893167D01*
X106589575Y-66888370D01*
X106719869Y-66893291D01*
X106780980Y-66912109D01*
X106767946Y-66939101D01*
X106675804Y-66968548D01*
X106661667Y-66971484D01*
X106568021Y-67006548D01*
X106535788Y-67074192D01*
X106534667Y-67099246D01*
X106562633Y-67196316D01*
X106646102Y-67229756D01*
X106784427Y-67199309D01*
X106784450Y-67199300D01*
X106901666Y-67134104D01*
X106935407Y-67058971D01*
X106889678Y-66979059D01*
X106854286Y-66934411D01*
X106881110Y-66916972D01*
X106954976Y-66914334D01*
X107036583Y-66920179D01*
X107074201Y-66953468D01*
X107084990Y-67037826D01*
X107085648Y-67094250D01*
X107098733Y-67257793D01*
X107139415Y-67346904D01*
X107212028Y-67368559D01*
X107250768Y-67359965D01*
X107297001Y-67338666D01*
X107323227Y-67298579D01*
X107333752Y-67220505D01*
X107332884Y-67085245D01*
X107330136Y-67006185D01*
X107317833Y-66681500D01*
X107169667Y-66671166D01*
X106894439Y-66651036D01*
X106692946Y-66633553D01*
X106554368Y-66617019D01*
X106467885Y-66599737D01*
X106422677Y-66580009D01*
X106407924Y-66556138D01*
X106407667Y-66551622D01*
X106430442Y-66515995D01*
X106508932Y-66502548D01*
X106621357Y-66505505D01*
X106795462Y-66500597D01*
X106905339Y-66463138D01*
X106944162Y-66396345D01*
X106936380Y-66356917D01*
X106911806Y-66328187D01*
X106854833Y-66306190D01*
X106752855Y-66288896D01*
X106593264Y-66274273D01*
X106363455Y-66260290D01*
X106323619Y-66258199D01*
X106107115Y-66249098D01*
X105919816Y-66245183D01*
X105778519Y-66246513D01*
X105778519Y-66246513D01*
G37*
X105778519Y-66246513D02*
X105700023Y-66253141D01*
X105691376Y-66256080D01*
X105649308Y-66323083D01*
X105658254Y-66408180D01*
X105712629Y-66465304D01*
X105795176Y-66481292D01*
X105920911Y-66490282D01*
X105966629Y-66491000D01*
X106090931Y-66499612D01*
X106146775Y-66528791D01*
X106153667Y-66554500D01*
X106137766Y-66586776D01*
X106080185Y-66606593D01*
X105966104Y-66616724D01*
X105804417Y-66619844D01*
X105524914Y-66629600D01*
X105300420Y-66654588D01*
X105140230Y-66693195D01*
X105053642Y-66743810D01*
X105048494Y-66750842D01*
X105017758Y-66847987D01*
X105012702Y-66980975D01*
X105029055Y-67125215D01*
X105062543Y-67256115D01*
X105108895Y-67349084D01*
X105157791Y-67380000D01*
X105243789Y-67343639D01*
X105289999Y-67246000D01*
X105288491Y-67104251D01*
X105287554Y-67099115D01*
X105276418Y-67002811D01*
X105294367Y-66938416D01*
X105354059Y-66899579D01*
X105468157Y-66879949D01*
X105649321Y-66873174D01*
X105738999Y-66872648D01*
X106107497Y-66872000D01*
X106134603Y-67016486D01*
X106145710Y-67141784D01*
X106135084Y-67244775D01*
X106134356Y-67247154D01*
X106143219Y-67352104D01*
X106193835Y-67420168D01*
X106243086Y-67480795D01*
X106241802Y-67506975D01*
X106240864Y-67507000D01*
X106190420Y-67531026D01*
X106092382Y-67594729D01*
X105965787Y-67685552D01*
X105933947Y-67709477D01*
X105757326Y-67836199D01*
X105551083Y-67973767D01*
X105359917Y-68092367D01*
X105192984Y-68196475D01*
X105095369Y-68275541D01*
X105059379Y-68339702D01*
X105077319Y-68399097D01*
X105103800Y-68429867D01*
X105139126Y-68462139D01*
X105174903Y-68473344D01*
X105229001Y-68458233D01*
X105319289Y-68411558D01*
X105463637Y-68328071D01*
X105477005Y-68320259D01*
X105663723Y-68206275D01*
X105867831Y-68074367D01*
X106011220Y-67976688D01*
X106270940Y-67793526D01*
X106540387Y-67999951D01*
X106809884Y-68196165D01*
X107023673Y-68329106D01*
X107182135Y-68398920D01*
X107285653Y-68405756D01*
X107334609Y-68349763D01*
X107339000Y-68309472D01*
X107301607Y-68243605D01*
X107192315Y-68144746D01*
X107015461Y-68016743D01*
X106989750Y-67999504D01*
X106724182Y-67814070D01*
X106528879Y-67658464D01*
X106405569Y-67534345D01*
X106355979Y-67443371D01*
X106365919Y-67400461D01*
X106391401Y-67326822D01*
X106403382Y-67202349D01*
X106402336Y-67117733D01*
X106390483Y-66893167D01*
X106589575Y-66888370D01*
X106719869Y-66893291D01*
X106780980Y-66912109D01*
X106767946Y-66939101D01*
X106675804Y-66968548D01*
X106661667Y-66971484D01*
X106568021Y-67006548D01*
X106535788Y-67074192D01*
X106534667Y-67099246D01*
X106562633Y-67196316D01*
X106646102Y-67229756D01*
X106784427Y-67199309D01*
X106784450Y-67199300D01*
X106901666Y-67134104D01*
X106935407Y-67058971D01*
X106889678Y-66979059D01*
X106854286Y-66934411D01*
X106881110Y-66916972D01*
X106954976Y-66914334D01*
X107036583Y-66920179D01*
X107074201Y-66953468D01*
X107084990Y-67037826D01*
X107085648Y-67094250D01*
X107098733Y-67257793D01*
X107139415Y-67346904D01*
X107212028Y-67368559D01*
X107250768Y-67359965D01*
X107297001Y-67338666D01*
X107323227Y-67298579D01*
X107333752Y-67220505D01*
X107332884Y-67085245D01*
X107330136Y-67006185D01*
X107317833Y-66681500D01*
X107169667Y-66671166D01*
X106894439Y-66651036D01*
X106692946Y-66633553D01*
X106554368Y-66617019D01*
X106467885Y-66599737D01*
X106422677Y-66580009D01*
X106407924Y-66556138D01*
X106407667Y-66551622D01*
X106430442Y-66515995D01*
X106508932Y-66502548D01*
X106621357Y-66505505D01*
X106795462Y-66500597D01*
X106905339Y-66463138D01*
X106944162Y-66396345D01*
X106936380Y-66356917D01*
X106911806Y-66328187D01*
X106854833Y-66306190D01*
X106752855Y-66288896D01*
X106593264Y-66274273D01*
X106363455Y-66260290D01*
X106323619Y-66258199D01*
X106107115Y-66249098D01*
X105919816Y-66245183D01*
X105778519Y-66246513D01*
G36*
X106807615Y-67271361D02*
X106727109Y-67294693D01*
X106616005Y-67353572D01*
X106576661Y-67421575D01*
X106599458Y-67484452D01*
X106674781Y-67527949D01*
X106793013Y-67537816D01*
X106880312Y-67521730D01*
X106959355Y-67465278D01*
X106979734Y-67377639D01*
X106942741Y-67304265D01*
X106886186Y-67268091D01*
X106807615Y-67271361D01*
X106807615Y-67271361D01*
G37*
X106807615Y-67271361D02*
X106727109Y-67294693D01*
X106616005Y-67353572D01*
X106576661Y-67421575D01*
X106599458Y-67484452D01*
X106674781Y-67527949D01*
X106793013Y-67537816D01*
X106880312Y-67521730D01*
X106959355Y-67465278D01*
X106979734Y-67377639D01*
X106942741Y-67304265D01*
X106886186Y-67268091D01*
X106807615Y-67271361D01*
G36*
X105639493Y-67297891D02*
X105547563Y-67355853D01*
X105526266Y-67432191D01*
X105527096Y-67438945D01*
X105572477Y-67516340D01*
X105673486Y-67536096D01*
X105822757Y-67497148D01*
X105849986Y-67485680D01*
X105951468Y-67419868D01*
X105980986Y-67354122D01*
X105950566Y-67299173D01*
X105872238Y-67265751D01*
X105758028Y-67264586D01*
X105639493Y-67297891D01*
X105639493Y-67297891D01*
G37*
X105639493Y-67297891D02*
X105547563Y-67355853D01*
X105526266Y-67432191D01*
X105527096Y-67438945D01*
X105572477Y-67516340D01*
X105673486Y-67536096D01*
X105822757Y-67497148D01*
X105849986Y-67485680D01*
X105951468Y-67419868D01*
X105980986Y-67354122D01*
X105950566Y-67299173D01*
X105872238Y-67265751D01*
X105758028Y-67264586D01*
X105639493Y-67297891D01*
G36*
X105760501Y-66927530D02*
X105605244Y-66968109D01*
X105513656Y-67035423D01*
X105495056Y-67121869D01*
X105500474Y-67139651D01*
X105541041Y-67190968D01*
X105619366Y-67203191D01*
X105752487Y-67177686D01*
X105802333Y-67163845D01*
X105922295Y-67116418D01*
X105969366Y-67057407D01*
X105956962Y-66976930D01*
X105919377Y-66931019D01*
X105840421Y-66919818D01*
X105760501Y-66927530D01*
X105760501Y-66927530D01*
G37*
X105760501Y-66927530D02*
X105605244Y-66968109D01*
X105513656Y-67035423D01*
X105495056Y-67121869D01*
X105500474Y-67139651D01*
X105541041Y-67190968D01*
X105619366Y-67203191D01*
X105752487Y-67177686D01*
X105802333Y-67163845D01*
X105922295Y-67116418D01*
X105969366Y-67057407D01*
X105956962Y-66976930D01*
X105919377Y-66931019D01*
X105840421Y-66919818D01*
X105760501Y-66927530D01*
D11*
X95670476Y-68397381D02*
X95670476Y-67397381D01*
X95289523Y-67397381D01*
X95194285Y-67445000D01*
X95146666Y-67492619D01*
X95099047Y-67587857D01*
X95099047Y-67730714D01*
X95146666Y-67825952D01*
X95194285Y-67873571D01*
X95289523Y-67921190D01*
X95670476Y-67921190D01*
X94146666Y-68397381D02*
X94718095Y-68397381D01*
X94432381Y-68397381D02*
X94432381Y-67397381D01*
X94527619Y-67540238D01*
X94622857Y-67635476D01*
X94718095Y-67683095D01*
X93527619Y-67397381D02*
X93432380Y-67397381D01*
X93337142Y-67445000D01*
X93289523Y-67492619D01*
X93241904Y-67587857D01*
X93194285Y-67778333D01*
X93194285Y-68016429D01*
X93241904Y-68206905D01*
X93289523Y-68302143D01*
X93337142Y-68349762D01*
X93432380Y-68397381D01*
X93527619Y-68397381D01*
X93622857Y-68349762D01*
X93670476Y-68302143D01*
X93718095Y-68206905D01*
X93765714Y-68016429D01*
X93765714Y-67778333D01*
X93718095Y-67587857D01*
X93670476Y-67492619D01*
X93622857Y-67445000D01*
X93527619Y-67397381D01*
X92241904Y-68397381D02*
X92813333Y-68397381D01*
X92527619Y-68397381D02*
X92527619Y-67397381D01*
X92622857Y-67540238D01*
X92718095Y-67635476D01*
X92813333Y-67683095D01*
X117050476Y-91172381D02*
X117050476Y-90172381D01*
X116669523Y-90172381D01*
X116574285Y-90220000D01*
X116526666Y-90267619D01*
X116479047Y-90362857D01*
X116479047Y-90505714D01*
X116526666Y-90600952D01*
X116574285Y-90648571D01*
X116669523Y-90696190D01*
X117050476Y-90696190D01*
X115526666Y-91172381D02*
X116098095Y-91172381D01*
X115812381Y-91172381D02*
X115812381Y-90172381D01*
X115907619Y-90315238D01*
X116002857Y-90410476D01*
X116098095Y-90458095D01*
X114907619Y-90172381D02*
X114812380Y-90172381D01*
X114717142Y-90220000D01*
X114669523Y-90267619D01*
X114621904Y-90362857D01*
X114574285Y-90553333D01*
X114574285Y-90791429D01*
X114621904Y-90981905D01*
X114669523Y-91077143D01*
X114717142Y-91124762D01*
X114812380Y-91172381D01*
X114907619Y-91172381D01*
X115002857Y-91124762D01*
X115050476Y-91077143D01*
X115098095Y-90981905D01*
X115145714Y-90791429D01*
X115145714Y-90553333D01*
X115098095Y-90362857D01*
X115050476Y-90267619D01*
X115002857Y-90220000D01*
X114907619Y-90172381D01*
X114193333Y-90267619D02*
X114145714Y-90220000D01*
X114050476Y-90172381D01*
X113812380Y-90172381D01*
X113717142Y-90220000D01*
X113669523Y-90267619D01*
X113621904Y-90362857D01*
X113621904Y-90458095D01*
X113669523Y-90600952D01*
X114240952Y-91172381D01*
X113621904Y-91172381D01*
M02*
