M48
;DRILL file {KiCad 4.0.1-stable} date 2016/02/13 0:44:28
;FORMAT={-:-/ absolute / metric / decimal}
FMAT,2
METRIC,TZ
T1C0.813
T2C1.016
%
G90
G05
M71
T1
X98.219Y-71.12
X98.219Y-73.119
X98.219Y-75.12
X98.219Y-77.119
X98.219Y-79.121
X98.219Y-81.12
X98.219Y-83.119
X98.219Y-85.12
X98.219Y-87.119
X98.219Y-89.121
X120.221Y-71.12
X120.221Y-73.119
X120.221Y-75.12
X120.221Y-77.119
X120.221Y-79.121
X120.221Y-81.12
X120.221Y-83.119
X120.221Y-85.12
X120.221Y-87.119
X120.221Y-89.121
T2
X93.98Y-71.12
X93.98Y-73.66
X93.98Y-76.2
X93.98Y-78.74
X111.76Y-83.82
X111.76Y-86.36
X111.76Y-88.9
T0
M30
