G04 #@! TF.FileFunction,Legend,Top*
%FSLAX46Y46*%
G04 Gerber Fmt 4.6, Leading zero omitted, Abs format (unit mm)*
G04 Created by KiCad (PCBNEW 4.0.1-stable) date 2016/03/20 16:03:40*
%MOMM*%
G01*
G04 APERTURE LIST*
%ADD10C,0.100000*%
%ADD11C,0.300000*%
%ADD12C,0.127000*%
%ADD13C,0.381000*%
%ADD14C,0.150000*%
%ADD15C,0.200660*%
G04 APERTURE END LIST*
D10*
D11*
X104572857Y-66718571D02*
X104572857Y-65218571D01*
X104930000Y-65218571D01*
X105144285Y-65290000D01*
X105287143Y-65432857D01*
X105358571Y-65575714D01*
X105430000Y-65861429D01*
X105430000Y-66075714D01*
X105358571Y-66361429D01*
X105287143Y-66504286D01*
X105144285Y-66647143D01*
X104930000Y-66718571D01*
X104572857Y-66718571D01*
X106287143Y-66718571D02*
X106144285Y-66647143D01*
X106072857Y-66575714D01*
X106001428Y-66432857D01*
X106001428Y-66004286D01*
X106072857Y-65861429D01*
X106144285Y-65790000D01*
X106287143Y-65718571D01*
X106501428Y-65718571D01*
X106644285Y-65790000D01*
X106715714Y-65861429D01*
X106787143Y-66004286D01*
X106787143Y-66432857D01*
X106715714Y-66575714D01*
X106644285Y-66647143D01*
X106501428Y-66718571D01*
X106287143Y-66718571D01*
X107430000Y-65718571D02*
X107430000Y-67004286D01*
X107358571Y-67147143D01*
X107215714Y-67218571D01*
X107144286Y-67218571D01*
X107430000Y-65218571D02*
X107358571Y-65290000D01*
X107430000Y-65361429D01*
X107501428Y-65290000D01*
X107430000Y-65218571D01*
X107430000Y-65361429D01*
X108358572Y-66718571D02*
X108215714Y-66647143D01*
X108144286Y-66575714D01*
X108072857Y-66432857D01*
X108072857Y-66004286D01*
X108144286Y-65861429D01*
X108215714Y-65790000D01*
X108358572Y-65718571D01*
X108572857Y-65718571D01*
X108715714Y-65790000D01*
X108787143Y-65861429D01*
X108858572Y-66004286D01*
X108858572Y-66432857D01*
X108787143Y-66575714D01*
X108715714Y-66647143D01*
X108572857Y-66718571D01*
X108358572Y-66718571D01*
X102962144Y-69187143D02*
X103176430Y-69258571D01*
X103533573Y-69258571D01*
X103676430Y-69187143D01*
X103747859Y-69115714D01*
X103819287Y-68972857D01*
X103819287Y-68830000D01*
X103747859Y-68687143D01*
X103676430Y-68615714D01*
X103533573Y-68544286D01*
X103247859Y-68472857D01*
X103105001Y-68401429D01*
X103033573Y-68330000D01*
X102962144Y-68187143D01*
X102962144Y-68044286D01*
X103033573Y-67901429D01*
X103105001Y-67830000D01*
X103247859Y-67758571D01*
X103605001Y-67758571D01*
X103819287Y-67830000D01*
X105033572Y-69187143D02*
X104890715Y-69258571D01*
X104605001Y-69258571D01*
X104462144Y-69187143D01*
X104390715Y-69044286D01*
X104390715Y-68472857D01*
X104462144Y-68330000D01*
X104605001Y-68258571D01*
X104890715Y-68258571D01*
X105033572Y-68330000D01*
X105105001Y-68472857D01*
X105105001Y-68615714D01*
X104390715Y-68758571D01*
X105747858Y-68258571D02*
X105747858Y-69258571D01*
X105747858Y-68401429D02*
X105819286Y-68330000D01*
X105962144Y-68258571D01*
X106176429Y-68258571D01*
X106319286Y-68330000D01*
X106390715Y-68472857D01*
X106390715Y-69258571D01*
X107747858Y-69258571D02*
X107747858Y-67758571D01*
X107747858Y-69187143D02*
X107605001Y-69258571D01*
X107319287Y-69258571D01*
X107176429Y-69187143D01*
X107105001Y-69115714D01*
X107033572Y-68972857D01*
X107033572Y-68544286D01*
X107105001Y-68401429D01*
X107176429Y-68330000D01*
X107319287Y-68258571D01*
X107605001Y-68258571D01*
X107747858Y-68330000D01*
X109105001Y-69258571D02*
X109105001Y-68472857D01*
X109033572Y-68330000D01*
X108890715Y-68258571D01*
X108605001Y-68258571D01*
X108462144Y-68330000D01*
X109105001Y-69187143D02*
X108962144Y-69258571D01*
X108605001Y-69258571D01*
X108462144Y-69187143D01*
X108390715Y-69044286D01*
X108390715Y-68901429D01*
X108462144Y-68758571D01*
X108605001Y-68687143D01*
X108962144Y-68687143D01*
X109105001Y-68615714D01*
X109819287Y-69258571D02*
X109819287Y-68258571D01*
X109819287Y-67758571D02*
X109747858Y-67830000D01*
X109819287Y-67901429D01*
X109890715Y-67830000D01*
X109819287Y-67758571D01*
X109819287Y-67901429D01*
X111605001Y-67901429D02*
X111676430Y-67830000D01*
X111819287Y-67758571D01*
X112176430Y-67758571D01*
X112319287Y-67830000D01*
X112390716Y-67901429D01*
X112462144Y-68044286D01*
X112462144Y-68187143D01*
X112390716Y-68401429D01*
X111533573Y-69258571D01*
X112462144Y-69258571D01*
X113390715Y-67758571D02*
X113533572Y-67758571D01*
X113676429Y-67830000D01*
X113747858Y-67901429D01*
X113819287Y-68044286D01*
X113890715Y-68330000D01*
X113890715Y-68687143D01*
X113819287Y-68972857D01*
X113747858Y-69115714D01*
X113676429Y-69187143D01*
X113533572Y-69258571D01*
X113390715Y-69258571D01*
X113247858Y-69187143D01*
X113176429Y-69115714D01*
X113105001Y-68972857D01*
X113033572Y-68687143D01*
X113033572Y-68330000D01*
X113105001Y-68044286D01*
X113176429Y-67901429D01*
X113247858Y-67830000D01*
X113390715Y-67758571D01*
X115319286Y-69258571D02*
X114462143Y-69258571D01*
X114890715Y-69258571D02*
X114890715Y-67758571D01*
X114747858Y-67972857D01*
X114605000Y-68115714D01*
X114462143Y-68187143D01*
X116605000Y-67758571D02*
X116319286Y-67758571D01*
X116176429Y-67830000D01*
X116105000Y-67901429D01*
X115962143Y-68115714D01*
X115890714Y-68401429D01*
X115890714Y-68972857D01*
X115962143Y-69115714D01*
X116033571Y-69187143D01*
X116176429Y-69258571D01*
X116462143Y-69258571D01*
X116605000Y-69187143D01*
X116676429Y-69115714D01*
X116747857Y-68972857D01*
X116747857Y-68615714D01*
X116676429Y-68472857D01*
X116605000Y-68401429D01*
X116462143Y-68330000D01*
X116176429Y-68330000D01*
X116033571Y-68401429D01*
X115962143Y-68472857D01*
X115890714Y-68615714D01*
X95790001Y-66575714D02*
X95718572Y-66647143D01*
X95504286Y-66718571D01*
X95361429Y-66718571D01*
X95147144Y-66647143D01*
X95004286Y-66504286D01*
X94932858Y-66361429D01*
X94861429Y-66075714D01*
X94861429Y-65861429D01*
X94932858Y-65575714D01*
X95004286Y-65432857D01*
X95147144Y-65290000D01*
X95361429Y-65218571D01*
X95504286Y-65218571D01*
X95718572Y-65290000D01*
X95790001Y-65361429D01*
X96647144Y-66718571D02*
X96504286Y-66647143D01*
X96432858Y-66575714D01*
X96361429Y-66432857D01*
X96361429Y-66004286D01*
X96432858Y-65861429D01*
X96504286Y-65790000D01*
X96647144Y-65718571D01*
X96861429Y-65718571D01*
X97004286Y-65790000D01*
X97075715Y-65861429D01*
X97147144Y-66004286D01*
X97147144Y-66432857D01*
X97075715Y-66575714D01*
X97004286Y-66647143D01*
X96861429Y-66718571D01*
X96647144Y-66718571D01*
X98432858Y-66718571D02*
X98432858Y-65218571D01*
X98432858Y-66647143D02*
X98290001Y-66718571D01*
X98004287Y-66718571D01*
X97861429Y-66647143D01*
X97790001Y-66575714D01*
X97718572Y-66432857D01*
X97718572Y-66004286D01*
X97790001Y-65861429D01*
X97861429Y-65790000D01*
X98004287Y-65718571D01*
X98290001Y-65718571D01*
X98432858Y-65790000D01*
X99718572Y-66647143D02*
X99575715Y-66718571D01*
X99290001Y-66718571D01*
X99147144Y-66647143D01*
X99075715Y-66504286D01*
X99075715Y-65932857D01*
X99147144Y-65790000D01*
X99290001Y-65718571D01*
X99575715Y-65718571D01*
X99718572Y-65790000D01*
X99790001Y-65932857D01*
X99790001Y-66075714D01*
X99075715Y-66218571D01*
X100432858Y-66718571D02*
X100432858Y-65718571D01*
X100432858Y-66004286D02*
X100504286Y-65861429D01*
X100575715Y-65790000D01*
X100718572Y-65718571D01*
X100861429Y-65718571D01*
D12*
X110464600Y-76161900D02*
X110972600Y-76161900D01*
X110972600Y-76161900D02*
X110972600Y-74968100D01*
X110464600Y-76161900D02*
X110464600Y-74968100D01*
X108966000Y-76161900D02*
X108966000Y-74968100D01*
X109474000Y-76161900D02*
X109474000Y-74968100D01*
X108966000Y-76161900D02*
X109474000Y-76161900D01*
X107467400Y-76161900D02*
X107975400Y-76161900D01*
X107975400Y-76161900D02*
X107975400Y-74968100D01*
X107467400Y-76161900D02*
X107467400Y-74968100D01*
X108318300Y-71856600D02*
X110121700Y-71856600D01*
X110121700Y-71856600D02*
X110121700Y-72351900D01*
X108318300Y-71856600D02*
X108318300Y-72351900D01*
X106921300Y-74968100D02*
X106921300Y-72351900D01*
X106921300Y-72351900D02*
X111518700Y-72351900D01*
X111518700Y-72351900D02*
X111518700Y-74968100D01*
X111518700Y-74968100D02*
X106921300Y-74968100D01*
D13*
X96774000Y-90678000D02*
X96774000Y-91694000D01*
X121666000Y-90678000D02*
X121666000Y-91694000D01*
X116881219Y-71120000D02*
G75*
G03X116881219Y-71120000I-803219J0D01*
G01*
X117559062Y-71120000D02*
G75*
G03X117559062Y-71120000I-1481062J0D01*
G01*
X96774000Y-90678000D02*
X96774000Y-70866000D01*
X121666000Y-71120000D02*
X121666000Y-70866000D01*
X121666000Y-90678000D02*
X121666000Y-71120000D01*
X96774000Y-91694000D02*
X121666000Y-91694000D01*
X121666000Y-70866000D02*
X114300000Y-64516000D01*
X96774000Y-70866000D02*
X104140000Y-64516000D01*
X104140000Y-64516000D02*
X114300000Y-64516000D01*
D14*
X114935000Y-75565000D02*
X113665000Y-75565000D01*
X114935000Y-73914000D02*
X113665000Y-73914000D01*
X113665000Y-73914000D02*
X113665000Y-75946000D01*
X113665000Y-75946000D02*
X114935000Y-75946000D01*
X114935000Y-75946000D02*
X114935000Y-73914000D01*
X103505000Y-74295000D02*
X104775000Y-74295000D01*
X103505000Y-75946000D02*
X104775000Y-75946000D01*
X104775000Y-75946000D02*
X104775000Y-73914000D01*
X104775000Y-73914000D02*
X103505000Y-73914000D01*
X103505000Y-73914000D02*
X103505000Y-75946000D01*
D15*
X107504411Y-69936965D02*
X107504411Y-70747104D01*
X107552066Y-70842414D01*
X107599722Y-70890070D01*
X107695032Y-70937725D01*
X107885653Y-70937725D01*
X107980964Y-70890070D01*
X108028619Y-70842414D01*
X108076274Y-70747104D01*
X108076274Y-69936965D01*
X109077034Y-70937725D02*
X108505171Y-70937725D01*
X108791102Y-70937725D02*
X108791102Y-69936965D01*
X108695792Y-70079930D01*
X108600481Y-70175241D01*
X108505171Y-70222896D01*
X109696552Y-69936965D02*
X109791863Y-69936965D01*
X109887173Y-69984620D01*
X109934828Y-70032275D01*
X109982484Y-70127586D01*
X110030139Y-70318207D01*
X110030139Y-70556483D01*
X109982484Y-70747104D01*
X109934828Y-70842414D01*
X109887173Y-70890070D01*
X109791863Y-70937725D01*
X109696552Y-70937725D01*
X109601242Y-70890070D01*
X109553586Y-70842414D01*
X109505931Y-70747104D01*
X109458276Y-70556483D01*
X109458276Y-70318207D01*
X109505931Y-70127586D01*
X109553586Y-70032275D01*
X109601242Y-69984620D01*
X109696552Y-69936965D01*
X110983244Y-70937725D02*
X110411381Y-70937725D01*
X110697312Y-70937725D02*
X110697312Y-69936965D01*
X110602002Y-70079930D01*
X110506691Y-70175241D01*
X110411381Y-70222896D01*
X99781965Y-74105589D02*
X100592104Y-74105589D01*
X100687414Y-74057934D01*
X100735070Y-74010278D01*
X100782725Y-73914968D01*
X100782725Y-73724347D01*
X100735070Y-73629036D01*
X100687414Y-73581381D01*
X100592104Y-73533726D01*
X99781965Y-73533726D01*
X100782725Y-72532966D02*
X100782725Y-73104829D01*
X100782725Y-72818898D02*
X99781965Y-72818898D01*
X99924930Y-72914208D01*
X100020241Y-73009519D01*
X100067896Y-73104829D01*
X99781965Y-71913448D02*
X99781965Y-71818137D01*
X99829620Y-71722827D01*
X99877275Y-71675172D01*
X99972586Y-71627516D01*
X100163207Y-71579861D01*
X100401483Y-71579861D01*
X100592104Y-71627516D01*
X100687414Y-71675172D01*
X100735070Y-71722827D01*
X100782725Y-71818137D01*
X100782725Y-71913448D01*
X100735070Y-72008758D01*
X100687414Y-72056414D01*
X100592104Y-72104069D01*
X100401483Y-72151724D01*
X100163207Y-72151724D01*
X99972586Y-72104069D01*
X99877275Y-72056414D01*
X99829620Y-72008758D01*
X99781965Y-71913448D01*
X99877275Y-71198619D02*
X99829620Y-71150964D01*
X99781965Y-71055653D01*
X99781965Y-70817377D01*
X99829620Y-70722067D01*
X99877275Y-70674411D01*
X99972586Y-70626756D01*
X100067896Y-70626756D01*
X100210862Y-70674411D01*
X100782725Y-71246274D01*
X100782725Y-70626756D01*
D14*
X115952543Y-76074447D02*
X116000162Y-76122066D01*
X116047781Y-76264923D01*
X116047781Y-76360161D01*
X116000162Y-76503019D01*
X115904924Y-76598257D01*
X115809686Y-76645876D01*
X115619210Y-76693495D01*
X115476352Y-76693495D01*
X115285876Y-76645876D01*
X115190638Y-76598257D01*
X115095400Y-76503019D01*
X115047781Y-76360161D01*
X115047781Y-76264923D01*
X115095400Y-76122066D01*
X115143019Y-76074447D01*
X116047781Y-75122066D02*
X116047781Y-75693495D01*
X116047781Y-75407781D02*
X115047781Y-75407781D01*
X115190638Y-75503019D01*
X115285876Y-75598257D01*
X115333495Y-75693495D01*
X115047781Y-74503019D02*
X115047781Y-74407780D01*
X115095400Y-74312542D01*
X115143019Y-74264923D01*
X115238257Y-74217304D01*
X115428733Y-74169685D01*
X115666829Y-74169685D01*
X115857305Y-74217304D01*
X115952543Y-74264923D01*
X116000162Y-74312542D01*
X116047781Y-74407780D01*
X116047781Y-74503019D01*
X116000162Y-74598257D01*
X115952543Y-74645876D01*
X115857305Y-74693495D01*
X115666829Y-74741114D01*
X115428733Y-74741114D01*
X115238257Y-74693495D01*
X115143019Y-74645876D01*
X115095400Y-74598257D01*
X115047781Y-74503019D01*
X116047781Y-73217304D02*
X116047781Y-73788733D01*
X116047781Y-73503019D02*
X115047781Y-73503019D01*
X115190638Y-73598257D01*
X115285876Y-73693495D01*
X115333495Y-73788733D01*
X103201743Y-76023647D02*
X103249362Y-76071266D01*
X103296981Y-76214123D01*
X103296981Y-76309361D01*
X103249362Y-76452219D01*
X103154124Y-76547457D01*
X103058886Y-76595076D01*
X102868410Y-76642695D01*
X102725552Y-76642695D01*
X102535076Y-76595076D01*
X102439838Y-76547457D01*
X102344600Y-76452219D01*
X102296981Y-76309361D01*
X102296981Y-76214123D01*
X102344600Y-76071266D01*
X102392219Y-76023647D01*
X103296981Y-75071266D02*
X103296981Y-75642695D01*
X103296981Y-75356981D02*
X102296981Y-75356981D01*
X102439838Y-75452219D01*
X102535076Y-75547457D01*
X102582695Y-75642695D01*
X102296981Y-74452219D02*
X102296981Y-74356980D01*
X102344600Y-74261742D01*
X102392219Y-74214123D01*
X102487457Y-74166504D01*
X102677933Y-74118885D01*
X102916029Y-74118885D01*
X103106505Y-74166504D01*
X103201743Y-74214123D01*
X103249362Y-74261742D01*
X103296981Y-74356980D01*
X103296981Y-74452219D01*
X103249362Y-74547457D01*
X103201743Y-74595076D01*
X103106505Y-74642695D01*
X102916029Y-74690314D01*
X102677933Y-74690314D01*
X102487457Y-74642695D01*
X102392219Y-74595076D01*
X102344600Y-74547457D01*
X102296981Y-74452219D01*
X102392219Y-73737933D02*
X102344600Y-73690314D01*
X102296981Y-73595076D01*
X102296981Y-73356980D01*
X102344600Y-73261742D01*
X102392219Y-73214123D01*
X102487457Y-73166504D01*
X102582695Y-73166504D01*
X102725552Y-73214123D01*
X103296981Y-73785552D01*
X103296981Y-73166504D01*
M02*
