G04 #@! TF.FileFunction,Copper,L1,Top,Signal*
%FSLAX46Y46*%
G04 Gerber Fmt 4.6, Leading zero omitted, Abs format (unit mm)*
G04 Created by KiCad (PCBNEW 4.0.1-stable) date 2016/03/20 16:03:40*
%MOMM*%
G01*
G04 APERTURE LIST*
%ADD10C,0.100000*%
%ADD11R,0.701040X1.600200*%
%ADD12R,0.701040X2.100580*%
%ADD13R,1.998980X2.750820*%
%ADD14R,2.032000X1.727200*%
%ADD15O,2.032000X1.727200*%
%ADD16C,1.500000*%
%ADD17R,1.800860X1.549400*%
%ADD18C,0.500000*%
%ADD19C,0.254000*%
G04 APERTURE END LIST*
D10*
D11*
X107718860Y-75559920D03*
D12*
X109220000Y-75311000D03*
D11*
X110721140Y-75559920D03*
D13*
X109220000Y-72910700D03*
D14*
X93980000Y-71120000D03*
D15*
X93980000Y-73660000D03*
X93980000Y-76200000D03*
X93980000Y-78740000D03*
D14*
X111760000Y-83820000D03*
D15*
X111760000Y-86360000D03*
X111760000Y-88900000D03*
D16*
X120220740Y-71120000D03*
X120220740Y-79121000D03*
X120220740Y-83118960D03*
X120220740Y-81119980D03*
X120220740Y-75120500D03*
X120220740Y-77119480D03*
X120220740Y-73118980D03*
X120220740Y-87119460D03*
X120220740Y-89120980D03*
X120220740Y-85120480D03*
X98219260Y-85120480D03*
X98219260Y-89120980D03*
X98219260Y-87119460D03*
X98219260Y-73118980D03*
X98219260Y-77119480D03*
X98219260Y-75120500D03*
X98219260Y-81119980D03*
X98219260Y-83118960D03*
X98219260Y-79121000D03*
X98219260Y-71120000D03*
D17*
X114300000Y-76106020D03*
X114300000Y-73753980D03*
X104140000Y-73753980D03*
X104140000Y-76106020D03*
D18*
X110721140Y-75559920D02*
X113977420Y-75559920D01*
X113977420Y-75559920D02*
X114300000Y-75882500D01*
X114300000Y-75882500D02*
X114300000Y-77152500D01*
X114300000Y-77152500D02*
X114935000Y-77787500D01*
X93980000Y-78740000D02*
X93980000Y-87630000D01*
X114935000Y-88900000D02*
X114935000Y-77787500D01*
X112395000Y-91440000D02*
X114935000Y-88900000D01*
X97790000Y-91440000D02*
X112395000Y-91440000D01*
X93980000Y-87630000D02*
X97790000Y-91440000D01*
X98219260Y-75120500D02*
X98425000Y-74930000D01*
X98425000Y-74930000D02*
X97155000Y-74930000D01*
X97155000Y-74930000D02*
X95885000Y-73660000D01*
X95885000Y-73660000D02*
X95885000Y-71755000D01*
X95885000Y-71755000D02*
X94615000Y-71755000D01*
X94615000Y-71755000D02*
X93980000Y-71120000D01*
X104140000Y-73753980D02*
X105912920Y-73753980D01*
X105912920Y-73753980D02*
X107718860Y-75559920D01*
X104140000Y-73977500D02*
X103187500Y-73977500D01*
X103187500Y-73977500D02*
X100330000Y-71120000D01*
X100330000Y-71120000D02*
X98219260Y-71120000D01*
X104140000Y-73977500D02*
X104140000Y-74295000D01*
X109220000Y-72910700D02*
X109220000Y-75311000D01*
X111760000Y-86360000D02*
X104140000Y-86360000D01*
X101379020Y-89120980D02*
X98219260Y-89120980D01*
X104140000Y-86360000D02*
X101379020Y-89120980D01*
X98425000Y-88900000D02*
X98219260Y-89120980D01*
D19*
G36*
X121158000Y-70098499D02*
X121006304Y-69946539D01*
X120497442Y-69735241D01*
X119946455Y-69734760D01*
X119437225Y-69945169D01*
X119047279Y-70334436D01*
X118835981Y-70843298D01*
X118835500Y-71394285D01*
X119045909Y-71903515D01*
X119261543Y-72119525D01*
X119047279Y-72333416D01*
X118835981Y-72842278D01*
X118835500Y-73393265D01*
X119045909Y-73902495D01*
X119262813Y-74119777D01*
X119047279Y-74334936D01*
X118835981Y-74843798D01*
X118835500Y-75394785D01*
X119045909Y-75904015D01*
X119261543Y-76120025D01*
X119047279Y-76333916D01*
X118835981Y-76842778D01*
X118835500Y-77393765D01*
X119045909Y-77902995D01*
X119262813Y-78120277D01*
X119047279Y-78335436D01*
X118835981Y-78844298D01*
X118835500Y-79395285D01*
X119045909Y-79904515D01*
X119261543Y-80120525D01*
X119047279Y-80334416D01*
X118835981Y-80843278D01*
X118835500Y-81394265D01*
X119045909Y-81903495D01*
X119261543Y-82119505D01*
X119047279Y-82333396D01*
X118835981Y-82842258D01*
X118835500Y-83393245D01*
X119045909Y-83902475D01*
X119262813Y-84119757D01*
X119047279Y-84334916D01*
X118835981Y-84843778D01*
X118835500Y-85394765D01*
X119045909Y-85903995D01*
X119261543Y-86120005D01*
X119047279Y-86333896D01*
X118835981Y-86842758D01*
X118835500Y-87393745D01*
X119045909Y-87902975D01*
X119262813Y-88120257D01*
X119047279Y-88335416D01*
X118835981Y-88844278D01*
X118835500Y-89395265D01*
X119045909Y-89904495D01*
X119435176Y-90294441D01*
X119944038Y-90505739D01*
X120495025Y-90506220D01*
X121004255Y-90295811D01*
X121158000Y-90142334D01*
X121158000Y-91948000D01*
X113138580Y-91948000D01*
X115560787Y-89525792D01*
X115560790Y-89525790D01*
X115752633Y-89238675D01*
X115820000Y-88900000D01*
X115820000Y-77787505D01*
X115820001Y-77787500D01*
X115752634Y-77448826D01*
X115674681Y-77332161D01*
X115667676Y-77321678D01*
X115796861Y-77132610D01*
X115847870Y-76880720D01*
X115847870Y-75331320D01*
X115803592Y-75096003D01*
X115696914Y-74930221D01*
X115738757Y-74888378D01*
X115835430Y-74654989D01*
X115835430Y-74039730D01*
X115676680Y-73880980D01*
X114427000Y-73880980D01*
X114427000Y-73900980D01*
X114173000Y-73900980D01*
X114173000Y-73880980D01*
X112923320Y-73880980D01*
X112764570Y-74039730D01*
X112764570Y-74654989D01*
X112772826Y-74674920D01*
X111703125Y-74674920D01*
X111674822Y-74524503D01*
X111535750Y-74308379D01*
X111323550Y-74163389D01*
X111071660Y-74112380D01*
X110854490Y-74112380D01*
X110854490Y-73196450D01*
X110695740Y-73037700D01*
X109347000Y-73037700D01*
X109347000Y-75184000D01*
X109367000Y-75184000D01*
X109367000Y-75438000D01*
X109347000Y-75438000D01*
X109347000Y-76837540D01*
X109505750Y-76996290D01*
X109696829Y-76996290D01*
X109930218Y-76899617D01*
X109972975Y-76856861D01*
X110118730Y-76956451D01*
X110370620Y-77007460D01*
X111071660Y-77007460D01*
X111306977Y-76963182D01*
X111523101Y-76824110D01*
X111668091Y-76611910D01*
X111701907Y-76444920D01*
X112752130Y-76444920D01*
X112752130Y-76880720D01*
X112796408Y-77116037D01*
X112935480Y-77332161D01*
X113147680Y-77477151D01*
X113399570Y-77528160D01*
X113507079Y-77528160D01*
X113608756Y-77680330D01*
X113674210Y-77778290D01*
X114050000Y-78154079D01*
X114050000Y-88533421D01*
X113383734Y-89199687D01*
X113443345Y-88900000D01*
X113329271Y-88326511D01*
X113004415Y-87840330D01*
X112694931Y-87633539D01*
X113110732Y-87262036D01*
X113364709Y-86734791D01*
X113367358Y-86719026D01*
X113246217Y-86487000D01*
X111887000Y-86487000D01*
X111887000Y-86507000D01*
X111633000Y-86507000D01*
X111633000Y-86487000D01*
X110273783Y-86487000D01*
X110152642Y-86719026D01*
X110155291Y-86734791D01*
X110409268Y-87262036D01*
X110825069Y-87633539D01*
X110515585Y-87840330D01*
X110190729Y-88326511D01*
X110076655Y-88900000D01*
X110190729Y-89473489D01*
X110515585Y-89959670D01*
X111001766Y-90284526D01*
X111575255Y-90398600D01*
X111944745Y-90398600D01*
X112244432Y-90338989D01*
X112028420Y-90555000D01*
X98156579Y-90555000D01*
X98114665Y-90513086D01*
X98564708Y-90490210D01*
X98943183Y-90333440D01*
X99011172Y-90092497D01*
X98219260Y-89300585D01*
X98205118Y-89314728D01*
X98025513Y-89135123D01*
X98039655Y-89120980D01*
X98398865Y-89120980D01*
X99190777Y-89912892D01*
X99431720Y-89844903D01*
X99616461Y-89325809D01*
X99588490Y-88775532D01*
X99431720Y-88397057D01*
X99190777Y-88329068D01*
X98398865Y-89120980D01*
X98039655Y-89120980D01*
X97247743Y-88329068D01*
X97006800Y-88397057D01*
X96822059Y-88916151D01*
X96838357Y-89236777D01*
X94865000Y-87263420D01*
X94865000Y-80039824D01*
X95224415Y-79799670D01*
X95549271Y-79313489D01*
X95663345Y-78740000D01*
X95549271Y-78166511D01*
X95224415Y-77680330D01*
X94914931Y-77473539D01*
X95330732Y-77102036D01*
X95584709Y-76574791D01*
X95587358Y-76559026D01*
X95466217Y-76327000D01*
X94107000Y-76327000D01*
X94107000Y-76347000D01*
X93853000Y-76347000D01*
X93853000Y-76327000D01*
X92493783Y-76327000D01*
X92372642Y-76559026D01*
X92375291Y-76574791D01*
X92629268Y-77102036D01*
X93045069Y-77473539D01*
X92735585Y-77680330D01*
X92410729Y-78166511D01*
X92296655Y-78740000D01*
X92410729Y-79313489D01*
X92735585Y-79799670D01*
X93095000Y-80039824D01*
X93095000Y-87629995D01*
X93094999Y-87630000D01*
X93136837Y-87840330D01*
X93162367Y-87968675D01*
X93283165Y-88149463D01*
X93354210Y-88255790D01*
X97046421Y-91948000D01*
X92202000Y-91948000D01*
X92202000Y-73660000D01*
X92296655Y-73660000D01*
X92410729Y-74233489D01*
X92735585Y-74719670D01*
X93045069Y-74926461D01*
X92629268Y-75297964D01*
X92375291Y-75825209D01*
X92372642Y-75840974D01*
X92493783Y-76073000D01*
X93853000Y-76073000D01*
X93853000Y-76053000D01*
X94107000Y-76053000D01*
X94107000Y-76073000D01*
X95466217Y-76073000D01*
X95587358Y-75840974D01*
X95584709Y-75825209D01*
X95330732Y-75297964D01*
X94914931Y-74926461D01*
X95224415Y-74719670D01*
X95412140Y-74438720D01*
X96529208Y-75555787D01*
X96529210Y-75555790D01*
X96777627Y-75721776D01*
X96816325Y-75747633D01*
X96994454Y-75783066D01*
X97044429Y-75904015D01*
X97260063Y-76120025D01*
X97045799Y-76333916D01*
X96834501Y-76842778D01*
X96834020Y-77393765D01*
X97044429Y-77902995D01*
X97261333Y-78120277D01*
X97045799Y-78335436D01*
X96834501Y-78844298D01*
X96834020Y-79395285D01*
X97044429Y-79904515D01*
X97260063Y-80120525D01*
X97045799Y-80334416D01*
X96834501Y-80843278D01*
X96834020Y-81394265D01*
X97044429Y-81903495D01*
X97260063Y-82119505D01*
X97045799Y-82333396D01*
X96834501Y-82842258D01*
X96834020Y-83393245D01*
X97044429Y-83902475D01*
X97261333Y-84119757D01*
X97045799Y-84334916D01*
X96834501Y-84843778D01*
X96834020Y-85394765D01*
X97044429Y-85903995D01*
X97260063Y-86120005D01*
X97045799Y-86333896D01*
X96834501Y-86842758D01*
X96834020Y-87393745D01*
X97044429Y-87902975D01*
X97433696Y-88292921D01*
X97668167Y-88390282D01*
X98219260Y-88941375D01*
X98770279Y-88390356D01*
X99002775Y-88294291D01*
X99392721Y-87905024D01*
X99604019Y-87396162D01*
X99604500Y-86845175D01*
X99394091Y-86335945D01*
X99178457Y-86119935D01*
X99392721Y-85906044D01*
X99604019Y-85397182D01*
X99604500Y-84846195D01*
X99394091Y-84336965D01*
X99177187Y-84119683D01*
X99392721Y-83904524D01*
X99604019Y-83395662D01*
X99604402Y-82956400D01*
X110096560Y-82956400D01*
X110096560Y-84683600D01*
X110140838Y-84918917D01*
X110279910Y-85135041D01*
X110492110Y-85280031D01*
X110586927Y-85299232D01*
X110409268Y-85457964D01*
X110155291Y-85985209D01*
X110152642Y-86000974D01*
X110273783Y-86233000D01*
X111633000Y-86233000D01*
X111633000Y-86213000D01*
X111887000Y-86213000D01*
X111887000Y-86233000D01*
X113246217Y-86233000D01*
X113367358Y-86000974D01*
X113364709Y-85985209D01*
X113110732Y-85457964D01*
X112935155Y-85301093D01*
X113011317Y-85286762D01*
X113227441Y-85147690D01*
X113372431Y-84935490D01*
X113423440Y-84683600D01*
X113423440Y-82956400D01*
X113379162Y-82721083D01*
X113240090Y-82504959D01*
X113027890Y-82359969D01*
X112776000Y-82308960D01*
X110744000Y-82308960D01*
X110508683Y-82353238D01*
X110292559Y-82492310D01*
X110147569Y-82704510D01*
X110096560Y-82956400D01*
X99604402Y-82956400D01*
X99604500Y-82844675D01*
X99394091Y-82335445D01*
X99178457Y-82119435D01*
X99392721Y-81905544D01*
X99604019Y-81396682D01*
X99604500Y-80845695D01*
X99394091Y-80336465D01*
X99178457Y-80120455D01*
X99392721Y-79906564D01*
X99604019Y-79397702D01*
X99604500Y-78846715D01*
X99394091Y-78337485D01*
X99177187Y-78120203D01*
X99392721Y-77905044D01*
X99604019Y-77396182D01*
X99604500Y-76845195D01*
X99417150Y-76391770D01*
X102604570Y-76391770D01*
X102604570Y-77007029D01*
X102701243Y-77240418D01*
X102879871Y-77419047D01*
X103113260Y-77515720D01*
X103854250Y-77515720D01*
X104013000Y-77356970D01*
X104013000Y-76233020D01*
X104267000Y-76233020D01*
X104267000Y-77356970D01*
X104425750Y-77515720D01*
X105166740Y-77515720D01*
X105400129Y-77419047D01*
X105578757Y-77240418D01*
X105675430Y-77007029D01*
X105675430Y-76391770D01*
X105516680Y-76233020D01*
X104267000Y-76233020D01*
X104013000Y-76233020D01*
X102763320Y-76233020D01*
X102604570Y-76391770D01*
X99417150Y-76391770D01*
X99394091Y-76335965D01*
X99178457Y-76119955D01*
X99392721Y-75906064D01*
X99604019Y-75397202D01*
X99604500Y-74846215D01*
X99394091Y-74336985D01*
X99177187Y-74119703D01*
X99392721Y-73904544D01*
X99604019Y-73395682D01*
X99604500Y-72844695D01*
X99394091Y-72335465D01*
X99178457Y-72119455D01*
X99293112Y-72005000D01*
X99963420Y-72005000D01*
X102561708Y-74603287D01*
X102561710Y-74603290D01*
X102612562Y-74637268D01*
X102636408Y-74763997D01*
X102743086Y-74929779D01*
X102701243Y-74971622D01*
X102604570Y-75205011D01*
X102604570Y-75820270D01*
X102763320Y-75979020D01*
X104013000Y-75979020D01*
X104013000Y-75959020D01*
X104267000Y-75959020D01*
X104267000Y-75979020D01*
X105516680Y-75979020D01*
X105675430Y-75820270D01*
X105675430Y-75205011D01*
X105578757Y-74971622D01*
X105535724Y-74928589D01*
X105636861Y-74780570D01*
X105645461Y-74738101D01*
X106720900Y-75813539D01*
X106720900Y-76360020D01*
X106765178Y-76595337D01*
X106904250Y-76811461D01*
X107116450Y-76956451D01*
X107368340Y-77007460D01*
X108069380Y-77007460D01*
X108304697Y-76963182D01*
X108468161Y-76857996D01*
X108509782Y-76899617D01*
X108743171Y-76996290D01*
X108934250Y-76996290D01*
X109093000Y-76837540D01*
X109093000Y-75438000D01*
X109073000Y-75438000D01*
X109073000Y-75184000D01*
X109093000Y-75184000D01*
X109093000Y-73037700D01*
X107744260Y-73037700D01*
X107585510Y-73196450D01*
X107585510Y-74112380D01*
X107522899Y-74112380D01*
X106538710Y-73128190D01*
X106485296Y-73092500D01*
X106251595Y-72936347D01*
X106195404Y-72925170D01*
X105912920Y-72868979D01*
X105912915Y-72868980D01*
X105667116Y-72868980D01*
X105664104Y-72852971D01*
X112764570Y-72852971D01*
X112764570Y-73468230D01*
X112923320Y-73626980D01*
X114173000Y-73626980D01*
X114173000Y-72503030D01*
X114427000Y-72503030D01*
X114427000Y-73626980D01*
X115676680Y-73626980D01*
X115835430Y-73468230D01*
X115835430Y-72852971D01*
X115738757Y-72619582D01*
X115560129Y-72440953D01*
X115326740Y-72344280D01*
X114585750Y-72344280D01*
X114427000Y-72503030D01*
X114173000Y-72503030D01*
X114014250Y-72344280D01*
X113273260Y-72344280D01*
X113039871Y-72440953D01*
X112861243Y-72619582D01*
X112764570Y-72852971D01*
X105664104Y-72852971D01*
X105643592Y-72743963D01*
X105504520Y-72527839D01*
X105292320Y-72382849D01*
X105040430Y-72331840D01*
X103239570Y-72331840D01*
X103004253Y-72376118D01*
X102902910Y-72441331D01*
X101870560Y-71408980D01*
X107585510Y-71408980D01*
X107585510Y-72624950D01*
X107744260Y-72783700D01*
X109093000Y-72783700D01*
X109093000Y-71059040D01*
X109347000Y-71059040D01*
X109347000Y-72783700D01*
X110695740Y-72783700D01*
X110854490Y-72624950D01*
X110854490Y-71408980D01*
X110757817Y-71175591D01*
X110579188Y-70996963D01*
X110345799Y-70900290D01*
X109505750Y-70900290D01*
X109347000Y-71059040D01*
X109093000Y-71059040D01*
X108934250Y-70900290D01*
X108094201Y-70900290D01*
X107860812Y-70996963D01*
X107682183Y-71175591D01*
X107585510Y-71408980D01*
X101870560Y-71408980D01*
X100955790Y-70494210D01*
X100719736Y-70336485D01*
X100668675Y-70302367D01*
X100612484Y-70291190D01*
X100330000Y-70234999D01*
X100329995Y-70235000D01*
X99292783Y-70235000D01*
X99004824Y-69946539D01*
X98495962Y-69735241D01*
X97944975Y-69734760D01*
X97435745Y-69945169D01*
X97045799Y-70334436D01*
X96834501Y-70843298D01*
X96834020Y-71394285D01*
X97044429Y-71903515D01*
X97260063Y-72119525D01*
X97045799Y-72333416D01*
X96834501Y-72842278D01*
X96834051Y-73357472D01*
X96770000Y-73293420D01*
X96770000Y-71755000D01*
X96702633Y-71416325D01*
X96510790Y-71129210D01*
X96223675Y-70937367D01*
X95885000Y-70870000D01*
X95643440Y-70870000D01*
X95643440Y-70256400D01*
X95599162Y-70021083D01*
X95460090Y-69804959D01*
X95247890Y-69659969D01*
X94996000Y-69608960D01*
X92964000Y-69608960D01*
X92728683Y-69653238D01*
X92512559Y-69792310D01*
X92367569Y-70004510D01*
X92316560Y-70256400D01*
X92316560Y-71983600D01*
X92360838Y-72218917D01*
X92499910Y-72435041D01*
X92712110Y-72580031D01*
X92753439Y-72588400D01*
X92735585Y-72600330D01*
X92410729Y-73086511D01*
X92296655Y-73660000D01*
X92202000Y-73660000D01*
X92202000Y-64262000D01*
X121158000Y-64262000D01*
X121158000Y-70098499D01*
X121158000Y-70098499D01*
G37*
X121158000Y-70098499D02*
X121006304Y-69946539D01*
X120497442Y-69735241D01*
X119946455Y-69734760D01*
X119437225Y-69945169D01*
X119047279Y-70334436D01*
X118835981Y-70843298D01*
X118835500Y-71394285D01*
X119045909Y-71903515D01*
X119261543Y-72119525D01*
X119047279Y-72333416D01*
X118835981Y-72842278D01*
X118835500Y-73393265D01*
X119045909Y-73902495D01*
X119262813Y-74119777D01*
X119047279Y-74334936D01*
X118835981Y-74843798D01*
X118835500Y-75394785D01*
X119045909Y-75904015D01*
X119261543Y-76120025D01*
X119047279Y-76333916D01*
X118835981Y-76842778D01*
X118835500Y-77393765D01*
X119045909Y-77902995D01*
X119262813Y-78120277D01*
X119047279Y-78335436D01*
X118835981Y-78844298D01*
X118835500Y-79395285D01*
X119045909Y-79904515D01*
X119261543Y-80120525D01*
X119047279Y-80334416D01*
X118835981Y-80843278D01*
X118835500Y-81394265D01*
X119045909Y-81903495D01*
X119261543Y-82119505D01*
X119047279Y-82333396D01*
X118835981Y-82842258D01*
X118835500Y-83393245D01*
X119045909Y-83902475D01*
X119262813Y-84119757D01*
X119047279Y-84334916D01*
X118835981Y-84843778D01*
X118835500Y-85394765D01*
X119045909Y-85903995D01*
X119261543Y-86120005D01*
X119047279Y-86333896D01*
X118835981Y-86842758D01*
X118835500Y-87393745D01*
X119045909Y-87902975D01*
X119262813Y-88120257D01*
X119047279Y-88335416D01*
X118835981Y-88844278D01*
X118835500Y-89395265D01*
X119045909Y-89904495D01*
X119435176Y-90294441D01*
X119944038Y-90505739D01*
X120495025Y-90506220D01*
X121004255Y-90295811D01*
X121158000Y-90142334D01*
X121158000Y-91948000D01*
X113138580Y-91948000D01*
X115560787Y-89525792D01*
X115560790Y-89525790D01*
X115752633Y-89238675D01*
X115820000Y-88900000D01*
X115820000Y-77787505D01*
X115820001Y-77787500D01*
X115752634Y-77448826D01*
X115674681Y-77332161D01*
X115667676Y-77321678D01*
X115796861Y-77132610D01*
X115847870Y-76880720D01*
X115847870Y-75331320D01*
X115803592Y-75096003D01*
X115696914Y-74930221D01*
X115738757Y-74888378D01*
X115835430Y-74654989D01*
X115835430Y-74039730D01*
X115676680Y-73880980D01*
X114427000Y-73880980D01*
X114427000Y-73900980D01*
X114173000Y-73900980D01*
X114173000Y-73880980D01*
X112923320Y-73880980D01*
X112764570Y-74039730D01*
X112764570Y-74654989D01*
X112772826Y-74674920D01*
X111703125Y-74674920D01*
X111674822Y-74524503D01*
X111535750Y-74308379D01*
X111323550Y-74163389D01*
X111071660Y-74112380D01*
X110854490Y-74112380D01*
X110854490Y-73196450D01*
X110695740Y-73037700D01*
X109347000Y-73037700D01*
X109347000Y-75184000D01*
X109367000Y-75184000D01*
X109367000Y-75438000D01*
X109347000Y-75438000D01*
X109347000Y-76837540D01*
X109505750Y-76996290D01*
X109696829Y-76996290D01*
X109930218Y-76899617D01*
X109972975Y-76856861D01*
X110118730Y-76956451D01*
X110370620Y-77007460D01*
X111071660Y-77007460D01*
X111306977Y-76963182D01*
X111523101Y-76824110D01*
X111668091Y-76611910D01*
X111701907Y-76444920D01*
X112752130Y-76444920D01*
X112752130Y-76880720D01*
X112796408Y-77116037D01*
X112935480Y-77332161D01*
X113147680Y-77477151D01*
X113399570Y-77528160D01*
X113507079Y-77528160D01*
X113608756Y-77680330D01*
X113674210Y-77778290D01*
X114050000Y-78154079D01*
X114050000Y-88533421D01*
X113383734Y-89199687D01*
X113443345Y-88900000D01*
X113329271Y-88326511D01*
X113004415Y-87840330D01*
X112694931Y-87633539D01*
X113110732Y-87262036D01*
X113364709Y-86734791D01*
X113367358Y-86719026D01*
X113246217Y-86487000D01*
X111887000Y-86487000D01*
X111887000Y-86507000D01*
X111633000Y-86507000D01*
X111633000Y-86487000D01*
X110273783Y-86487000D01*
X110152642Y-86719026D01*
X110155291Y-86734791D01*
X110409268Y-87262036D01*
X110825069Y-87633539D01*
X110515585Y-87840330D01*
X110190729Y-88326511D01*
X110076655Y-88900000D01*
X110190729Y-89473489D01*
X110515585Y-89959670D01*
X111001766Y-90284526D01*
X111575255Y-90398600D01*
X111944745Y-90398600D01*
X112244432Y-90338989D01*
X112028420Y-90555000D01*
X98156579Y-90555000D01*
X98114665Y-90513086D01*
X98564708Y-90490210D01*
X98943183Y-90333440D01*
X99011172Y-90092497D01*
X98219260Y-89300585D01*
X98205118Y-89314728D01*
X98025513Y-89135123D01*
X98039655Y-89120980D01*
X98398865Y-89120980D01*
X99190777Y-89912892D01*
X99431720Y-89844903D01*
X99616461Y-89325809D01*
X99588490Y-88775532D01*
X99431720Y-88397057D01*
X99190777Y-88329068D01*
X98398865Y-89120980D01*
X98039655Y-89120980D01*
X97247743Y-88329068D01*
X97006800Y-88397057D01*
X96822059Y-88916151D01*
X96838357Y-89236777D01*
X94865000Y-87263420D01*
X94865000Y-80039824D01*
X95224415Y-79799670D01*
X95549271Y-79313489D01*
X95663345Y-78740000D01*
X95549271Y-78166511D01*
X95224415Y-77680330D01*
X94914931Y-77473539D01*
X95330732Y-77102036D01*
X95584709Y-76574791D01*
X95587358Y-76559026D01*
X95466217Y-76327000D01*
X94107000Y-76327000D01*
X94107000Y-76347000D01*
X93853000Y-76347000D01*
X93853000Y-76327000D01*
X92493783Y-76327000D01*
X92372642Y-76559026D01*
X92375291Y-76574791D01*
X92629268Y-77102036D01*
X93045069Y-77473539D01*
X92735585Y-77680330D01*
X92410729Y-78166511D01*
X92296655Y-78740000D01*
X92410729Y-79313489D01*
X92735585Y-79799670D01*
X93095000Y-80039824D01*
X93095000Y-87629995D01*
X93094999Y-87630000D01*
X93136837Y-87840330D01*
X93162367Y-87968675D01*
X93283165Y-88149463D01*
X93354210Y-88255790D01*
X97046421Y-91948000D01*
X92202000Y-91948000D01*
X92202000Y-73660000D01*
X92296655Y-73660000D01*
X92410729Y-74233489D01*
X92735585Y-74719670D01*
X93045069Y-74926461D01*
X92629268Y-75297964D01*
X92375291Y-75825209D01*
X92372642Y-75840974D01*
X92493783Y-76073000D01*
X93853000Y-76073000D01*
X93853000Y-76053000D01*
X94107000Y-76053000D01*
X94107000Y-76073000D01*
X95466217Y-76073000D01*
X95587358Y-75840974D01*
X95584709Y-75825209D01*
X95330732Y-75297964D01*
X94914931Y-74926461D01*
X95224415Y-74719670D01*
X95412140Y-74438720D01*
X96529208Y-75555787D01*
X96529210Y-75555790D01*
X96777627Y-75721776D01*
X96816325Y-75747633D01*
X96994454Y-75783066D01*
X97044429Y-75904015D01*
X97260063Y-76120025D01*
X97045799Y-76333916D01*
X96834501Y-76842778D01*
X96834020Y-77393765D01*
X97044429Y-77902995D01*
X97261333Y-78120277D01*
X97045799Y-78335436D01*
X96834501Y-78844298D01*
X96834020Y-79395285D01*
X97044429Y-79904515D01*
X97260063Y-80120525D01*
X97045799Y-80334416D01*
X96834501Y-80843278D01*
X96834020Y-81394265D01*
X97044429Y-81903495D01*
X97260063Y-82119505D01*
X97045799Y-82333396D01*
X96834501Y-82842258D01*
X96834020Y-83393245D01*
X97044429Y-83902475D01*
X97261333Y-84119757D01*
X97045799Y-84334916D01*
X96834501Y-84843778D01*
X96834020Y-85394765D01*
X97044429Y-85903995D01*
X97260063Y-86120005D01*
X97045799Y-86333896D01*
X96834501Y-86842758D01*
X96834020Y-87393745D01*
X97044429Y-87902975D01*
X97433696Y-88292921D01*
X97668167Y-88390282D01*
X98219260Y-88941375D01*
X98770279Y-88390356D01*
X99002775Y-88294291D01*
X99392721Y-87905024D01*
X99604019Y-87396162D01*
X99604500Y-86845175D01*
X99394091Y-86335945D01*
X99178457Y-86119935D01*
X99392721Y-85906044D01*
X99604019Y-85397182D01*
X99604500Y-84846195D01*
X99394091Y-84336965D01*
X99177187Y-84119683D01*
X99392721Y-83904524D01*
X99604019Y-83395662D01*
X99604402Y-82956400D01*
X110096560Y-82956400D01*
X110096560Y-84683600D01*
X110140838Y-84918917D01*
X110279910Y-85135041D01*
X110492110Y-85280031D01*
X110586927Y-85299232D01*
X110409268Y-85457964D01*
X110155291Y-85985209D01*
X110152642Y-86000974D01*
X110273783Y-86233000D01*
X111633000Y-86233000D01*
X111633000Y-86213000D01*
X111887000Y-86213000D01*
X111887000Y-86233000D01*
X113246217Y-86233000D01*
X113367358Y-86000974D01*
X113364709Y-85985209D01*
X113110732Y-85457964D01*
X112935155Y-85301093D01*
X113011317Y-85286762D01*
X113227441Y-85147690D01*
X113372431Y-84935490D01*
X113423440Y-84683600D01*
X113423440Y-82956400D01*
X113379162Y-82721083D01*
X113240090Y-82504959D01*
X113027890Y-82359969D01*
X112776000Y-82308960D01*
X110744000Y-82308960D01*
X110508683Y-82353238D01*
X110292559Y-82492310D01*
X110147569Y-82704510D01*
X110096560Y-82956400D01*
X99604402Y-82956400D01*
X99604500Y-82844675D01*
X99394091Y-82335445D01*
X99178457Y-82119435D01*
X99392721Y-81905544D01*
X99604019Y-81396682D01*
X99604500Y-80845695D01*
X99394091Y-80336465D01*
X99178457Y-80120455D01*
X99392721Y-79906564D01*
X99604019Y-79397702D01*
X99604500Y-78846715D01*
X99394091Y-78337485D01*
X99177187Y-78120203D01*
X99392721Y-77905044D01*
X99604019Y-77396182D01*
X99604500Y-76845195D01*
X99417150Y-76391770D01*
X102604570Y-76391770D01*
X102604570Y-77007029D01*
X102701243Y-77240418D01*
X102879871Y-77419047D01*
X103113260Y-77515720D01*
X103854250Y-77515720D01*
X104013000Y-77356970D01*
X104013000Y-76233020D01*
X104267000Y-76233020D01*
X104267000Y-77356970D01*
X104425750Y-77515720D01*
X105166740Y-77515720D01*
X105400129Y-77419047D01*
X105578757Y-77240418D01*
X105675430Y-77007029D01*
X105675430Y-76391770D01*
X105516680Y-76233020D01*
X104267000Y-76233020D01*
X104013000Y-76233020D01*
X102763320Y-76233020D01*
X102604570Y-76391770D01*
X99417150Y-76391770D01*
X99394091Y-76335965D01*
X99178457Y-76119955D01*
X99392721Y-75906064D01*
X99604019Y-75397202D01*
X99604500Y-74846215D01*
X99394091Y-74336985D01*
X99177187Y-74119703D01*
X99392721Y-73904544D01*
X99604019Y-73395682D01*
X99604500Y-72844695D01*
X99394091Y-72335465D01*
X99178457Y-72119455D01*
X99293112Y-72005000D01*
X99963420Y-72005000D01*
X102561708Y-74603287D01*
X102561710Y-74603290D01*
X102612562Y-74637268D01*
X102636408Y-74763997D01*
X102743086Y-74929779D01*
X102701243Y-74971622D01*
X102604570Y-75205011D01*
X102604570Y-75820270D01*
X102763320Y-75979020D01*
X104013000Y-75979020D01*
X104013000Y-75959020D01*
X104267000Y-75959020D01*
X104267000Y-75979020D01*
X105516680Y-75979020D01*
X105675430Y-75820270D01*
X105675430Y-75205011D01*
X105578757Y-74971622D01*
X105535724Y-74928589D01*
X105636861Y-74780570D01*
X105645461Y-74738101D01*
X106720900Y-75813539D01*
X106720900Y-76360020D01*
X106765178Y-76595337D01*
X106904250Y-76811461D01*
X107116450Y-76956451D01*
X107368340Y-77007460D01*
X108069380Y-77007460D01*
X108304697Y-76963182D01*
X108468161Y-76857996D01*
X108509782Y-76899617D01*
X108743171Y-76996290D01*
X108934250Y-76996290D01*
X109093000Y-76837540D01*
X109093000Y-75438000D01*
X109073000Y-75438000D01*
X109073000Y-75184000D01*
X109093000Y-75184000D01*
X109093000Y-73037700D01*
X107744260Y-73037700D01*
X107585510Y-73196450D01*
X107585510Y-74112380D01*
X107522899Y-74112380D01*
X106538710Y-73128190D01*
X106485296Y-73092500D01*
X106251595Y-72936347D01*
X106195404Y-72925170D01*
X105912920Y-72868979D01*
X105912915Y-72868980D01*
X105667116Y-72868980D01*
X105664104Y-72852971D01*
X112764570Y-72852971D01*
X112764570Y-73468230D01*
X112923320Y-73626980D01*
X114173000Y-73626980D01*
X114173000Y-72503030D01*
X114427000Y-72503030D01*
X114427000Y-73626980D01*
X115676680Y-73626980D01*
X115835430Y-73468230D01*
X115835430Y-72852971D01*
X115738757Y-72619582D01*
X115560129Y-72440953D01*
X115326740Y-72344280D01*
X114585750Y-72344280D01*
X114427000Y-72503030D01*
X114173000Y-72503030D01*
X114014250Y-72344280D01*
X113273260Y-72344280D01*
X113039871Y-72440953D01*
X112861243Y-72619582D01*
X112764570Y-72852971D01*
X105664104Y-72852971D01*
X105643592Y-72743963D01*
X105504520Y-72527839D01*
X105292320Y-72382849D01*
X105040430Y-72331840D01*
X103239570Y-72331840D01*
X103004253Y-72376118D01*
X102902910Y-72441331D01*
X101870560Y-71408980D01*
X107585510Y-71408980D01*
X107585510Y-72624950D01*
X107744260Y-72783700D01*
X109093000Y-72783700D01*
X109093000Y-71059040D01*
X109347000Y-71059040D01*
X109347000Y-72783700D01*
X110695740Y-72783700D01*
X110854490Y-72624950D01*
X110854490Y-71408980D01*
X110757817Y-71175591D01*
X110579188Y-70996963D01*
X110345799Y-70900290D01*
X109505750Y-70900290D01*
X109347000Y-71059040D01*
X109093000Y-71059040D01*
X108934250Y-70900290D01*
X108094201Y-70900290D01*
X107860812Y-70996963D01*
X107682183Y-71175591D01*
X107585510Y-71408980D01*
X101870560Y-71408980D01*
X100955790Y-70494210D01*
X100719736Y-70336485D01*
X100668675Y-70302367D01*
X100612484Y-70291190D01*
X100330000Y-70234999D01*
X100329995Y-70235000D01*
X99292783Y-70235000D01*
X99004824Y-69946539D01*
X98495962Y-69735241D01*
X97944975Y-69734760D01*
X97435745Y-69945169D01*
X97045799Y-70334436D01*
X96834501Y-70843298D01*
X96834020Y-71394285D01*
X97044429Y-71903515D01*
X97260063Y-72119525D01*
X97045799Y-72333416D01*
X96834501Y-72842278D01*
X96834051Y-73357472D01*
X96770000Y-73293420D01*
X96770000Y-71755000D01*
X96702633Y-71416325D01*
X96510790Y-71129210D01*
X96223675Y-70937367D01*
X95885000Y-70870000D01*
X95643440Y-70870000D01*
X95643440Y-70256400D01*
X95599162Y-70021083D01*
X95460090Y-69804959D01*
X95247890Y-69659969D01*
X94996000Y-69608960D01*
X92964000Y-69608960D01*
X92728683Y-69653238D01*
X92512559Y-69792310D01*
X92367569Y-70004510D01*
X92316560Y-70256400D01*
X92316560Y-71983600D01*
X92360838Y-72218917D01*
X92499910Y-72435041D01*
X92712110Y-72580031D01*
X92753439Y-72588400D01*
X92735585Y-72600330D01*
X92410729Y-73086511D01*
X92296655Y-73660000D01*
X92202000Y-73660000D01*
X92202000Y-64262000D01*
X121158000Y-64262000D01*
X121158000Y-70098499D01*
M02*
