G04 #@! TF.FileFunction,Legend,Bot*
%FSLAX46Y46*%
G04 Gerber Fmt 4.6, Leading zero omitted, Abs format (unit mm)*
G04 Created by KiCad (PCBNEW 4.0.1-stable) date 2016/03/20 16:03:40*
%MOMM*%
G01*
G04 APERTURE LIST*
%ADD10C,0.100000*%
%ADD11C,0.150000*%
%ADD12C,0.010000*%
G04 APERTURE END LIST*
D10*
X106549999Y-90809286D02*
X106407142Y-90809286D01*
X106335714Y-90845000D01*
X106264285Y-90916429D01*
X106228571Y-91059286D01*
X106228571Y-91309286D01*
X106264285Y-91452143D01*
X106335714Y-91523571D01*
X106407142Y-91559286D01*
X106549999Y-91559286D01*
X106621428Y-91523571D01*
X106692857Y-91452143D01*
X106728571Y-91309286D01*
X106728571Y-91059286D01*
X106692857Y-90916429D01*
X106621428Y-90845000D01*
X106549999Y-90809286D01*
X105907143Y-91559286D02*
X105907143Y-91059286D01*
X105907143Y-90809286D02*
X105942857Y-90845000D01*
X105907143Y-90880714D01*
X105871428Y-90845000D01*
X105907143Y-90809286D01*
X105907143Y-90880714D01*
X105621428Y-91059286D02*
X105228571Y-91059286D01*
X105621428Y-91559286D01*
X105228571Y-91559286D01*
X104621428Y-91059286D02*
X104621428Y-91559286D01*
X104942857Y-91059286D02*
X104942857Y-91452143D01*
X104907142Y-91523571D01*
X104835714Y-91559286D01*
X104728571Y-91559286D01*
X104657142Y-91523571D01*
X104621428Y-91487857D01*
X104264286Y-91559286D02*
X104264286Y-91059286D01*
X104264286Y-91130714D02*
X104228571Y-91095000D01*
X104157143Y-91059286D01*
X104050000Y-91059286D01*
X103978571Y-91095000D01*
X103942857Y-91166429D01*
X103942857Y-91559286D01*
X103942857Y-91166429D02*
X103907143Y-91095000D01*
X103835714Y-91059286D01*
X103728571Y-91059286D01*
X103657143Y-91095000D01*
X103621428Y-91166429D01*
X103621428Y-91559286D01*
X103264286Y-91559286D02*
X103264286Y-91059286D01*
X103264286Y-90809286D02*
X103300000Y-90845000D01*
X103264286Y-90880714D01*
X103228571Y-90845000D01*
X103264286Y-90809286D01*
X103264286Y-90880714D01*
X102907143Y-91273571D02*
X102335714Y-91273571D01*
X101978572Y-91559286D02*
X101978572Y-90809286D01*
X101550000Y-91559286D02*
X101871429Y-91130714D01*
X101550000Y-90809286D02*
X101978572Y-91237857D01*
X101121429Y-91559286D02*
X101192857Y-91523571D01*
X101228572Y-91487857D01*
X101264286Y-91416429D01*
X101264286Y-91202143D01*
X101228572Y-91130714D01*
X101192857Y-91095000D01*
X101121429Y-91059286D01*
X101014286Y-91059286D01*
X100942857Y-91095000D01*
X100907143Y-91130714D01*
X100871429Y-91202143D01*
X100871429Y-91416429D01*
X100907143Y-91487857D01*
X100942857Y-91523571D01*
X101014286Y-91559286D01*
X101121429Y-91559286D01*
X100228572Y-91059286D02*
X100228572Y-91666429D01*
X100264286Y-91737857D01*
X100300001Y-91773571D01*
X100371429Y-91809286D01*
X100478572Y-91809286D01*
X100550001Y-91773571D01*
X100228572Y-91523571D02*
X100300001Y-91559286D01*
X100442858Y-91559286D01*
X100514286Y-91523571D01*
X100550001Y-91487857D01*
X100585715Y-91416429D01*
X100585715Y-91202143D01*
X100550001Y-91130714D01*
X100514286Y-91095000D01*
X100442858Y-91059286D01*
X100300001Y-91059286D01*
X100228572Y-91095000D01*
X99942858Y-91059286D02*
X99764287Y-91559286D01*
X99585715Y-91059286D02*
X99764287Y-91559286D01*
X99835715Y-91737857D01*
X99871430Y-91773571D01*
X99942858Y-91809286D01*
X99192858Y-91559286D02*
X99264286Y-91523571D01*
X99300001Y-91487857D01*
X99335715Y-91416429D01*
X99335715Y-91202143D01*
X99300001Y-91130714D01*
X99264286Y-91095000D01*
X99192858Y-91059286D01*
X99085715Y-91059286D01*
X99014286Y-91095000D01*
X98978572Y-91130714D01*
X98942858Y-91202143D01*
X98942858Y-91416429D01*
X98978572Y-91487857D01*
X99014286Y-91523571D01*
X99085715Y-91559286D01*
X99192858Y-91559286D01*
X97692858Y-91559286D02*
X98050001Y-91559286D01*
X98050001Y-90809286D01*
X97550000Y-91059286D02*
X97264286Y-91059286D01*
X97442858Y-90809286D02*
X97442858Y-91452143D01*
X97407143Y-91523571D01*
X97335715Y-91559286D01*
X97264286Y-91559286D01*
X96692858Y-91559286D02*
X96692858Y-90809286D01*
X96692858Y-91523571D02*
X96764287Y-91559286D01*
X96907144Y-91559286D01*
X96978572Y-91523571D01*
X97014287Y-91487857D01*
X97050001Y-91416429D01*
X97050001Y-91202143D01*
X97014287Y-91130714D01*
X96978572Y-91095000D01*
X96907144Y-91059286D01*
X96764287Y-91059286D01*
X96692858Y-91095000D01*
X96335716Y-91487857D02*
X96300001Y-91523571D01*
X96335716Y-91559286D01*
X96371430Y-91523571D01*
X96335716Y-91487857D01*
X96335716Y-91559286D01*
X95442858Y-90880714D02*
X95407144Y-90845000D01*
X95335715Y-90809286D01*
X95157144Y-90809286D01*
X95085715Y-90845000D01*
X95050001Y-90880714D01*
X95014286Y-90952143D01*
X95014286Y-91023571D01*
X95050001Y-91130714D01*
X95478572Y-91559286D01*
X95014286Y-91559286D01*
X94550000Y-90809286D02*
X94478572Y-90809286D01*
X94407143Y-90845000D01*
X94371429Y-90880714D01*
X94335715Y-90952143D01*
X94300000Y-91095000D01*
X94300000Y-91273571D01*
X94335715Y-91416429D01*
X94371429Y-91487857D01*
X94407143Y-91523571D01*
X94478572Y-91559286D01*
X94550000Y-91559286D01*
X94621429Y-91523571D01*
X94657143Y-91487857D01*
X94692858Y-91416429D01*
X94728572Y-91273571D01*
X94728572Y-91095000D01*
X94692858Y-90952143D01*
X94657143Y-90880714D01*
X94621429Y-90845000D01*
X94550000Y-90809286D01*
X93585714Y-91559286D02*
X94014286Y-91559286D01*
X93800000Y-91559286D02*
X93800000Y-90809286D01*
X93871429Y-90916429D01*
X93942857Y-90987857D01*
X94014286Y-91023571D01*
X92942857Y-90809286D02*
X93085714Y-90809286D01*
X93157143Y-90845000D01*
X93192857Y-90880714D01*
X93264286Y-90987857D01*
X93300000Y-91130714D01*
X93300000Y-91416429D01*
X93264286Y-91487857D01*
X93228571Y-91523571D01*
X93157143Y-91559286D01*
X93014286Y-91559286D01*
X92942857Y-91523571D01*
X92907143Y-91487857D01*
X92871428Y-91416429D01*
X92871428Y-91237857D01*
X92907143Y-91166429D01*
X92942857Y-91130714D01*
X93014286Y-91095000D01*
X93157143Y-91095000D01*
X93228571Y-91130714D01*
X93264286Y-91166429D01*
X93300000Y-91237857D01*
D11*
X116117619Y-85262381D02*
X116450953Y-84786190D01*
X116689048Y-85262381D02*
X116689048Y-84262381D01*
X116308095Y-84262381D01*
X116212857Y-84310000D01*
X116165238Y-84357619D01*
X116117619Y-84452857D01*
X116117619Y-84595714D01*
X116165238Y-84690952D01*
X116212857Y-84738571D01*
X116308095Y-84786190D01*
X116689048Y-84786190D01*
X115736667Y-85214762D02*
X115593810Y-85262381D01*
X115355714Y-85262381D01*
X115260476Y-85214762D01*
X115212857Y-85167143D01*
X115165238Y-85071905D01*
X115165238Y-84976667D01*
X115212857Y-84881429D01*
X115260476Y-84833810D01*
X115355714Y-84786190D01*
X115546191Y-84738571D01*
X115641429Y-84690952D01*
X115689048Y-84643333D01*
X115736667Y-84548095D01*
X115736667Y-84452857D01*
X115689048Y-84357619D01*
X115641429Y-84310000D01*
X115546191Y-84262381D01*
X115308095Y-84262381D01*
X115165238Y-84310000D01*
X114879524Y-84262381D02*
X114308095Y-84262381D01*
X114593810Y-85262381D02*
X114593810Y-84262381D01*
X116331904Y-85860000D02*
X116427142Y-85812381D01*
X116569999Y-85812381D01*
X116712857Y-85860000D01*
X116808095Y-85955238D01*
X116855714Y-86050476D01*
X116903333Y-86240952D01*
X116903333Y-86383810D01*
X116855714Y-86574286D01*
X116808095Y-86669524D01*
X116712857Y-86764762D01*
X116569999Y-86812381D01*
X116474761Y-86812381D01*
X116331904Y-86764762D01*
X116284285Y-86717143D01*
X116284285Y-86383810D01*
X116474761Y-86383810D01*
X115855714Y-86812381D02*
X115855714Y-85812381D01*
X115284285Y-86812381D01*
X115284285Y-85812381D01*
X114808095Y-86812381D02*
X114808095Y-85812381D01*
X114570000Y-85812381D01*
X114427142Y-85860000D01*
X114331904Y-85955238D01*
X114284285Y-86050476D01*
X114236666Y-86240952D01*
X114236666Y-86383810D01*
X114284285Y-86574286D01*
X114331904Y-86669524D01*
X114427142Y-86764762D01*
X114570000Y-86812381D01*
X114808095Y-86812381D01*
X116712857Y-88362381D02*
X116712857Y-87362381D01*
X116474762Y-87362381D01*
X116331904Y-87410000D01*
X116236666Y-87505238D01*
X116189047Y-87600476D01*
X116141428Y-87790952D01*
X116141428Y-87933810D01*
X116189047Y-88124286D01*
X116236666Y-88219524D01*
X116331904Y-88314762D01*
X116474762Y-88362381D01*
X116712857Y-88362381D01*
X115855714Y-87362381D02*
X115284285Y-87362381D01*
X115570000Y-88362381D02*
X115570000Y-87362381D01*
X114379523Y-88362381D02*
X114712857Y-87886190D01*
X114950952Y-88362381D02*
X114950952Y-87362381D01*
X114569999Y-87362381D01*
X114474761Y-87410000D01*
X114427142Y-87457619D01*
X114379523Y-87552857D01*
X114379523Y-87695714D01*
X114427142Y-87790952D01*
X114474761Y-87838571D01*
X114569999Y-87886190D01*
X114950952Y-87886190D01*
X94146666Y-81312381D02*
X94480000Y-80836190D01*
X94718095Y-81312381D02*
X94718095Y-80312381D01*
X94337142Y-80312381D01*
X94241904Y-80360000D01*
X94194285Y-80407619D01*
X94146666Y-80502857D01*
X94146666Y-80645714D01*
X94194285Y-80740952D01*
X94241904Y-80788571D01*
X94337142Y-80836190D01*
X94718095Y-80836190D01*
X93813333Y-80312381D02*
X93146666Y-81312381D01*
X93146666Y-80312381D02*
X93813333Y-81312381D01*
X94741905Y-81862381D02*
X94170476Y-81862381D01*
X94456191Y-82862381D02*
X94456191Y-81862381D01*
X93932381Y-81862381D02*
X93265714Y-82862381D01*
X93265714Y-81862381D02*
X93932381Y-82862381D01*
X94741904Y-83460000D02*
X94837142Y-83412381D01*
X94979999Y-83412381D01*
X95122857Y-83460000D01*
X95218095Y-83555238D01*
X95265714Y-83650476D01*
X95313333Y-83840952D01*
X95313333Y-83983810D01*
X95265714Y-84174286D01*
X95218095Y-84269524D01*
X95122857Y-84364762D01*
X94979999Y-84412381D01*
X94884761Y-84412381D01*
X94741904Y-84364762D01*
X94694285Y-84317143D01*
X94694285Y-83983810D01*
X94884761Y-83983810D01*
X94265714Y-84412381D02*
X94265714Y-83412381D01*
X93694285Y-84412381D01*
X93694285Y-83412381D01*
X93218095Y-84412381D02*
X93218095Y-83412381D01*
X92980000Y-83412381D01*
X92837142Y-83460000D01*
X92741904Y-83555238D01*
X92694285Y-83650476D01*
X92646666Y-83840952D01*
X92646666Y-83983810D01*
X92694285Y-84174286D01*
X92741904Y-84269524D01*
X92837142Y-84364762D01*
X92980000Y-84412381D01*
X93218095Y-84412381D01*
X95313333Y-84962381D02*
X94980000Y-85962381D01*
X94646666Y-84962381D01*
X93741904Y-85867143D02*
X93789523Y-85914762D01*
X93932380Y-85962381D01*
X94027618Y-85962381D01*
X94170476Y-85914762D01*
X94265714Y-85819524D01*
X94313333Y-85724286D01*
X94360952Y-85533810D01*
X94360952Y-85390952D01*
X94313333Y-85200476D01*
X94265714Y-85105238D01*
X94170476Y-85010000D01*
X94027618Y-84962381D01*
X93932380Y-84962381D01*
X93789523Y-85010000D01*
X93741904Y-85057619D01*
X92741904Y-85867143D02*
X92789523Y-85914762D01*
X92932380Y-85962381D01*
X93027618Y-85962381D01*
X93170476Y-85914762D01*
X93265714Y-85819524D01*
X93313333Y-85724286D01*
X93360952Y-85533810D01*
X93360952Y-85390952D01*
X93313333Y-85200476D01*
X93265714Y-85105238D01*
X93170476Y-85010000D01*
X93027618Y-84962381D01*
X92932380Y-84962381D01*
X92789523Y-85010000D01*
X92741904Y-85057619D01*
X95250000Y-72390000D02*
X95250000Y-80010000D01*
X92710000Y-72390000D02*
X92710000Y-80010000D01*
X92430000Y-69570000D02*
X92430000Y-71120000D01*
X95250000Y-80010000D02*
X92710000Y-80010000D01*
X92710000Y-72390000D02*
X95250000Y-72390000D01*
X95530000Y-71120000D02*
X95530000Y-69570000D01*
X95530000Y-69570000D02*
X92430000Y-69570000D01*
X113030000Y-85090000D02*
X113030000Y-90170000D01*
X113030000Y-90170000D02*
X110490000Y-90170000D01*
X110490000Y-90170000D02*
X110490000Y-85090000D01*
X110210000Y-82270000D02*
X110210000Y-83820000D01*
X110490000Y-85090000D02*
X113030000Y-85090000D01*
X113310000Y-83820000D02*
X113310000Y-82270000D01*
X113310000Y-82270000D02*
X110210000Y-82270000D01*
D12*
G36*
X104460828Y-80261006D02*
X104244521Y-80269475D01*
X104088482Y-80289508D01*
X103980582Y-80324466D01*
X103908691Y-80377710D01*
X103860679Y-80452602D01*
X103836811Y-80513654D01*
X103816031Y-80621688D01*
X103801044Y-80791056D01*
X103792133Y-80998602D01*
X103789583Y-81221172D01*
X103793677Y-81435613D01*
X103804701Y-81618770D01*
X103821744Y-81742222D01*
X103870484Y-81851892D01*
X103942358Y-81924125D01*
X104013147Y-81940322D01*
X104151218Y-81953941D01*
X104339634Y-81964771D01*
X104561455Y-81972600D01*
X104799745Y-81977218D01*
X105037564Y-81978414D01*
X105257976Y-81975975D01*
X105444041Y-81969692D01*
X105578823Y-81959352D01*
X105644359Y-81945349D01*
X105693271Y-81885134D01*
X105737923Y-81778958D01*
X105744779Y-81754849D01*
X105761143Y-81654269D01*
X105775318Y-81497861D01*
X105786817Y-81304262D01*
X105795151Y-81092108D01*
X105799835Y-80880035D01*
X105799924Y-80848410D01*
X105381546Y-80848410D01*
X105379299Y-81012557D01*
X105375814Y-81142961D01*
X105362020Y-81577421D01*
X104203500Y-81555167D01*
X104191010Y-81195334D01*
X104183184Y-80981785D01*
X104185200Y-80831899D01*
X104209352Y-80734465D01*
X104267935Y-80678269D01*
X104373244Y-80652099D01*
X104537573Y-80644743D01*
X104773218Y-80644988D01*
X104794475Y-80645000D01*
X105004186Y-80647233D01*
X105181041Y-80653350D01*
X105309079Y-80662481D01*
X105372338Y-80673753D01*
X105376139Y-80676750D01*
X105380497Y-80729996D01*
X105381546Y-80848410D01*
X105799924Y-80848410D01*
X105800380Y-80686680D01*
X105796300Y-80530680D01*
X105787106Y-80430670D01*
X105780027Y-80406790D01*
X105700387Y-80352564D01*
X105537674Y-80310721D01*
X105292585Y-80281362D01*
X104965816Y-80264585D01*
X104749534Y-80260740D01*
X104460828Y-80261006D01*
X104460828Y-80261006D01*
G37*
X104460828Y-80261006D02*
X104244521Y-80269475D01*
X104088482Y-80289508D01*
X103980582Y-80324466D01*
X103908691Y-80377710D01*
X103860679Y-80452602D01*
X103836811Y-80513654D01*
X103816031Y-80621688D01*
X103801044Y-80791056D01*
X103792133Y-80998602D01*
X103789583Y-81221172D01*
X103793677Y-81435613D01*
X103804701Y-81618770D01*
X103821744Y-81742222D01*
X103870484Y-81851892D01*
X103942358Y-81924125D01*
X104013147Y-81940322D01*
X104151218Y-81953941D01*
X104339634Y-81964771D01*
X104561455Y-81972600D01*
X104799745Y-81977218D01*
X105037564Y-81978414D01*
X105257976Y-81975975D01*
X105444041Y-81969692D01*
X105578823Y-81959352D01*
X105644359Y-81945349D01*
X105693271Y-81885134D01*
X105737923Y-81778958D01*
X105744779Y-81754849D01*
X105761143Y-81654269D01*
X105775318Y-81497861D01*
X105786817Y-81304262D01*
X105795151Y-81092108D01*
X105799835Y-80880035D01*
X105799924Y-80848410D01*
X105381546Y-80848410D01*
X105379299Y-81012557D01*
X105375814Y-81142961D01*
X105362020Y-81577421D01*
X104203500Y-81555167D01*
X104191010Y-81195334D01*
X104183184Y-80981785D01*
X104185200Y-80831899D01*
X104209352Y-80734465D01*
X104267935Y-80678269D01*
X104373244Y-80652099D01*
X104537573Y-80644743D01*
X104773218Y-80644988D01*
X104794475Y-80645000D01*
X105004186Y-80647233D01*
X105181041Y-80653350D01*
X105309079Y-80662481D01*
X105372338Y-80673753D01*
X105376139Y-80676750D01*
X105380497Y-80729996D01*
X105381546Y-80848410D01*
X105799924Y-80848410D01*
X105800380Y-80686680D01*
X105796300Y-80530680D01*
X105787106Y-80430670D01*
X105780027Y-80406790D01*
X105700387Y-80352564D01*
X105537674Y-80310721D01*
X105292585Y-80281362D01*
X104965816Y-80264585D01*
X104749534Y-80260740D01*
X104460828Y-80261006D01*
G36*
X110611203Y-78535337D02*
X110552950Y-78571123D01*
X110507611Y-78627916D01*
X110496618Y-78704692D01*
X110523025Y-78814149D01*
X110589888Y-78968988D01*
X110699642Y-79180755D01*
X110792677Y-79355888D01*
X110848374Y-79472112D01*
X110871376Y-79544043D01*
X110866326Y-79586297D01*
X110837865Y-79613491D01*
X110837225Y-79613896D01*
X110813776Y-79636660D01*
X110795583Y-79678688D01*
X110781762Y-79750443D01*
X110771427Y-79862388D01*
X110763694Y-80024983D01*
X110757676Y-80248692D01*
X110752491Y-80543977D01*
X110751214Y-80630653D01*
X110748753Y-80917650D01*
X110749587Y-81183726D01*
X110753423Y-81414644D01*
X110759970Y-81596164D01*
X110768938Y-81714048D01*
X110773967Y-81743656D01*
X110836034Y-81868758D01*
X110930861Y-81926514D01*
X111042850Y-81909355D01*
X111075365Y-81889950D01*
X111104377Y-81865882D01*
X111126057Y-81832313D01*
X111141411Y-81777830D01*
X111151444Y-81691019D01*
X111157161Y-81560464D01*
X111159567Y-81374753D01*
X111159667Y-81122470D01*
X111159058Y-80939431D01*
X111158896Y-80673874D01*
X111160409Y-80438121D01*
X111163378Y-80244890D01*
X111167586Y-80106900D01*
X111172814Y-80036870D01*
X111174628Y-80030928D01*
X111205244Y-80054748D01*
X111271591Y-80134427D01*
X111362126Y-80255584D01*
X111415523Y-80331053D01*
X111525650Y-80484527D01*
X111604583Y-80578612D01*
X111665854Y-80625807D01*
X111722998Y-80638612D01*
X111746812Y-80637017D01*
X111852353Y-80595352D01*
X111911762Y-80539167D01*
X111931130Y-80496187D01*
X111928764Y-80443838D01*
X111898575Y-80367993D01*
X111834474Y-80254528D01*
X111730371Y-80089317D01*
X111692775Y-80031167D01*
X111560555Y-79823201D01*
X111405956Y-79573723D01*
X111248612Y-79314727D01*
X111113655Y-79087595D01*
X110969722Y-78850253D01*
X110854662Y-78682944D01*
X110761324Y-78579079D01*
X110682555Y-78532073D01*
X110611203Y-78535337D01*
X110611203Y-78535337D01*
G37*
X110611203Y-78535337D02*
X110552950Y-78571123D01*
X110507611Y-78627916D01*
X110496618Y-78704692D01*
X110523025Y-78814149D01*
X110589888Y-78968988D01*
X110699642Y-79180755D01*
X110792677Y-79355888D01*
X110848374Y-79472112D01*
X110871376Y-79544043D01*
X110866326Y-79586297D01*
X110837865Y-79613491D01*
X110837225Y-79613896D01*
X110813776Y-79636660D01*
X110795583Y-79678688D01*
X110781762Y-79750443D01*
X110771427Y-79862388D01*
X110763694Y-80024983D01*
X110757676Y-80248692D01*
X110752491Y-80543977D01*
X110751214Y-80630653D01*
X110748753Y-80917650D01*
X110749587Y-81183726D01*
X110753423Y-81414644D01*
X110759970Y-81596164D01*
X110768938Y-81714048D01*
X110773967Y-81743656D01*
X110836034Y-81868758D01*
X110930861Y-81926514D01*
X111042850Y-81909355D01*
X111075365Y-81889950D01*
X111104377Y-81865882D01*
X111126057Y-81832313D01*
X111141411Y-81777830D01*
X111151444Y-81691019D01*
X111157161Y-81560464D01*
X111159567Y-81374753D01*
X111159667Y-81122470D01*
X111159058Y-80939431D01*
X111158896Y-80673874D01*
X111160409Y-80438121D01*
X111163378Y-80244890D01*
X111167586Y-80106900D01*
X111172814Y-80036870D01*
X111174628Y-80030928D01*
X111205244Y-80054748D01*
X111271591Y-80134427D01*
X111362126Y-80255584D01*
X111415523Y-80331053D01*
X111525650Y-80484527D01*
X111604583Y-80578612D01*
X111665854Y-80625807D01*
X111722998Y-80638612D01*
X111746812Y-80637017D01*
X111852353Y-80595352D01*
X111911762Y-80539167D01*
X111931130Y-80496187D01*
X111928764Y-80443838D01*
X111898575Y-80367993D01*
X111834474Y-80254528D01*
X111730371Y-80089317D01*
X111692775Y-80031167D01*
X111560555Y-79823201D01*
X111405956Y-79573723D01*
X111248612Y-79314727D01*
X111113655Y-79087595D01*
X110969722Y-78850253D01*
X110854662Y-78682944D01*
X110761324Y-78579079D01*
X110682555Y-78532073D01*
X110611203Y-78535337D01*
G36*
X109274716Y-78869737D02*
X109231578Y-78883806D01*
X109198399Y-78918000D01*
X109173872Y-78981109D01*
X109156694Y-79081924D01*
X109145559Y-79229236D01*
X109139162Y-79431834D01*
X109136199Y-79698511D01*
X109135364Y-80038057D01*
X109135333Y-80172462D01*
X109135333Y-81376324D01*
X108893686Y-81347923D01*
X108718468Y-81328274D01*
X108597585Y-81308196D01*
X108521029Y-81273453D01*
X108478796Y-81209812D01*
X108460881Y-81103039D01*
X108457277Y-80938899D01*
X108458000Y-80728101D01*
X108456019Y-80492110D01*
X108449044Y-80326555D01*
X108435530Y-80217279D01*
X108413930Y-80150121D01*
X108391476Y-80118857D01*
X108310101Y-80060711D01*
X108223951Y-80066079D01*
X108158884Y-80096156D01*
X108129929Y-80116836D01*
X108108720Y-80151320D01*
X108094061Y-80211622D01*
X108084756Y-80309756D01*
X108079609Y-80457737D01*
X108077423Y-80667579D01*
X108077000Y-80918632D01*
X108078051Y-81202254D01*
X108081821Y-81413007D01*
X108089238Y-81562671D01*
X108101229Y-81663024D01*
X108118721Y-81725846D01*
X108142641Y-81762916D01*
X108143524Y-81763810D01*
X108235304Y-81823555D01*
X108332978Y-81809350D01*
X108395664Y-81771991D01*
X108466868Y-81741528D01*
X108576329Y-81731259D01*
X108743915Y-81739832D01*
X108796667Y-81744706D01*
X108970181Y-81757903D01*
X109196815Y-81769837D01*
X109445023Y-81779064D01*
X109647027Y-81783663D01*
X109875066Y-81785500D01*
X110034469Y-81781906D01*
X110141188Y-81771132D01*
X110211173Y-81751429D01*
X110260375Y-81721047D01*
X110266677Y-81715699D01*
X110337982Y-81631997D01*
X110391789Y-81514272D01*
X110430985Y-81350138D01*
X110458459Y-81127210D01*
X110477097Y-80833100D01*
X110478191Y-80808465D01*
X110501414Y-80273430D01*
X110392712Y-80202207D01*
X110295244Y-80156374D01*
X110211759Y-80170159D01*
X110196506Y-80177814D01*
X110127713Y-80237293D01*
X110109000Y-80283698D01*
X110105444Y-80500630D01*
X110095751Y-80724926D01*
X110081384Y-80938867D01*
X110063806Y-81124730D01*
X110044481Y-81264793D01*
X110024871Y-81341335D01*
X110021186Y-81347293D01*
X109942893Y-81387349D01*
X109804485Y-81406221D01*
X109765150Y-81407000D01*
X109558667Y-81407000D01*
X109555989Y-81205917D01*
X109554687Y-81106116D01*
X109552506Y-80936603D01*
X109549637Y-80712321D01*
X109546270Y-80448219D01*
X109542598Y-80159243D01*
X109540580Y-80000108D01*
X109535468Y-79660647D01*
X109528602Y-79396477D01*
X109518232Y-79198221D01*
X109502609Y-79056504D01*
X109479982Y-78961950D01*
X109448603Y-78905182D01*
X109406721Y-78876825D01*
X109352586Y-78867502D01*
X109329117Y-78867000D01*
X109274716Y-78869737D01*
X109274716Y-78869737D01*
G37*
X109274716Y-78869737D02*
X109231578Y-78883806D01*
X109198399Y-78918000D01*
X109173872Y-78981109D01*
X109156694Y-79081924D01*
X109145559Y-79229236D01*
X109139162Y-79431834D01*
X109136199Y-79698511D01*
X109135364Y-80038057D01*
X109135333Y-80172462D01*
X109135333Y-81376324D01*
X108893686Y-81347923D01*
X108718468Y-81328274D01*
X108597585Y-81308196D01*
X108521029Y-81273453D01*
X108478796Y-81209812D01*
X108460881Y-81103039D01*
X108457277Y-80938899D01*
X108458000Y-80728101D01*
X108456019Y-80492110D01*
X108449044Y-80326555D01*
X108435530Y-80217279D01*
X108413930Y-80150121D01*
X108391476Y-80118857D01*
X108310101Y-80060711D01*
X108223951Y-80066079D01*
X108158884Y-80096156D01*
X108129929Y-80116836D01*
X108108720Y-80151320D01*
X108094061Y-80211622D01*
X108084756Y-80309756D01*
X108079609Y-80457737D01*
X108077423Y-80667579D01*
X108077000Y-80918632D01*
X108078051Y-81202254D01*
X108081821Y-81413007D01*
X108089238Y-81562671D01*
X108101229Y-81663024D01*
X108118721Y-81725846D01*
X108142641Y-81762916D01*
X108143524Y-81763810D01*
X108235304Y-81823555D01*
X108332978Y-81809350D01*
X108395664Y-81771991D01*
X108466868Y-81741528D01*
X108576329Y-81731259D01*
X108743915Y-81739832D01*
X108796667Y-81744706D01*
X108970181Y-81757903D01*
X109196815Y-81769837D01*
X109445023Y-81779064D01*
X109647027Y-81783663D01*
X109875066Y-81785500D01*
X110034469Y-81781906D01*
X110141188Y-81771132D01*
X110211173Y-81751429D01*
X110260375Y-81721047D01*
X110266677Y-81715699D01*
X110337982Y-81631997D01*
X110391789Y-81514272D01*
X110430985Y-81350138D01*
X110458459Y-81127210D01*
X110477097Y-80833100D01*
X110478191Y-80808465D01*
X110501414Y-80273430D01*
X110392712Y-80202207D01*
X110295244Y-80156374D01*
X110211759Y-80170159D01*
X110196506Y-80177814D01*
X110127713Y-80237293D01*
X110109000Y-80283698D01*
X110105444Y-80500630D01*
X110095751Y-80724926D01*
X110081384Y-80938867D01*
X110063806Y-81124730D01*
X110044481Y-81264793D01*
X110024871Y-81341335D01*
X110021186Y-81347293D01*
X109942893Y-81387349D01*
X109804485Y-81406221D01*
X109765150Y-81407000D01*
X109558667Y-81407000D01*
X109555989Y-81205917D01*
X109554687Y-81106116D01*
X109552506Y-80936603D01*
X109549637Y-80712321D01*
X109546270Y-80448219D01*
X109542598Y-80159243D01*
X109540580Y-80000108D01*
X109535468Y-79660647D01*
X109528602Y-79396477D01*
X109518232Y-79198221D01*
X109502609Y-79056504D01*
X109479982Y-78961950D01*
X109448603Y-78905182D01*
X109406721Y-78876825D01*
X109352586Y-78867502D01*
X109329117Y-78867000D01*
X109274716Y-78869737D01*
G36*
X104805791Y-78091324D02*
X104743079Y-78167794D01*
X104739919Y-78277827D01*
X104797290Y-78407173D01*
X104895418Y-78522641D01*
X105005313Y-78637675D01*
X105134326Y-78789929D01*
X105271667Y-78964485D01*
X105406543Y-79146426D01*
X105528162Y-79320834D01*
X105625731Y-79472793D01*
X105688460Y-79587385D01*
X105706333Y-79643523D01*
X105665897Y-79659645D01*
X105551088Y-79665931D01*
X105371659Y-79662119D01*
X105251250Y-79655764D01*
X104992526Y-79636872D01*
X104745197Y-79613455D01*
X104522991Y-79587373D01*
X104339636Y-79560486D01*
X104208858Y-79534653D01*
X104144386Y-79511734D01*
X104140000Y-79505221D01*
X104162931Y-79452161D01*
X104202154Y-79393675D01*
X104257454Y-79273105D01*
X104256139Y-79154826D01*
X104207999Y-79059414D01*
X104122828Y-79007447D01*
X104021984Y-79015050D01*
X103973569Y-79058373D01*
X103890369Y-79159668D01*
X103782757Y-79305287D01*
X103661105Y-79481583D01*
X103618537Y-79545860D01*
X103465657Y-79787546D01*
X103363509Y-79972027D01*
X103309745Y-80108058D01*
X103302019Y-80204397D01*
X103337984Y-80269800D01*
X103413123Y-80312234D01*
X103493555Y-80323896D01*
X103570311Y-80282890D01*
X103624790Y-80230911D01*
X103726794Y-80117863D01*
X103818912Y-80005139D01*
X103822500Y-80000377D01*
X103907167Y-79887366D01*
X104203500Y-79945930D01*
X104555882Y-80000514D01*
X104983234Y-80040438D01*
X105477014Y-80064968D01*
X105642833Y-80069344D01*
X105873476Y-80072448D01*
X106034064Y-80068377D01*
X106139096Y-80054339D01*
X106203072Y-80027542D01*
X106240490Y-79985194D01*
X106256199Y-79951222D01*
X106254303Y-79857549D01*
X106204257Y-79712746D01*
X106114438Y-79528716D01*
X105993223Y-79317362D01*
X105848990Y-79090586D01*
X105690114Y-78860292D01*
X105524974Y-78638382D01*
X105361946Y-78436760D01*
X105209407Y-78267327D01*
X105075735Y-78141988D01*
X104969306Y-78072646D01*
X104927074Y-78062667D01*
X104805791Y-78091324D01*
X104805791Y-78091324D01*
G37*
X104805791Y-78091324D02*
X104743079Y-78167794D01*
X104739919Y-78277827D01*
X104797290Y-78407173D01*
X104895418Y-78522641D01*
X105005313Y-78637675D01*
X105134326Y-78789929D01*
X105271667Y-78964485D01*
X105406543Y-79146426D01*
X105528162Y-79320834D01*
X105625731Y-79472793D01*
X105688460Y-79587385D01*
X105706333Y-79643523D01*
X105665897Y-79659645D01*
X105551088Y-79665931D01*
X105371659Y-79662119D01*
X105251250Y-79655764D01*
X104992526Y-79636872D01*
X104745197Y-79613455D01*
X104522991Y-79587373D01*
X104339636Y-79560486D01*
X104208858Y-79534653D01*
X104144386Y-79511734D01*
X104140000Y-79505221D01*
X104162931Y-79452161D01*
X104202154Y-79393675D01*
X104257454Y-79273105D01*
X104256139Y-79154826D01*
X104207999Y-79059414D01*
X104122828Y-79007447D01*
X104021984Y-79015050D01*
X103973569Y-79058373D01*
X103890369Y-79159668D01*
X103782757Y-79305287D01*
X103661105Y-79481583D01*
X103618537Y-79545860D01*
X103465657Y-79787546D01*
X103363509Y-79972027D01*
X103309745Y-80108058D01*
X103302019Y-80204397D01*
X103337984Y-80269800D01*
X103413123Y-80312234D01*
X103493555Y-80323896D01*
X103570311Y-80282890D01*
X103624790Y-80230911D01*
X103726794Y-80117863D01*
X103818912Y-80005139D01*
X103822500Y-80000377D01*
X103907167Y-79887366D01*
X104203500Y-79945930D01*
X104555882Y-80000514D01*
X104983234Y-80040438D01*
X105477014Y-80064968D01*
X105642833Y-80069344D01*
X105873476Y-80072448D01*
X106034064Y-80068377D01*
X106139096Y-80054339D01*
X106203072Y-80027542D01*
X106240490Y-79985194D01*
X106256199Y-79951222D01*
X106254303Y-79857549D01*
X106204257Y-79712746D01*
X106114438Y-79528716D01*
X105993223Y-79317362D01*
X105848990Y-79090586D01*
X105690114Y-78860292D01*
X105524974Y-78638382D01*
X105361946Y-78436760D01*
X105209407Y-78267327D01*
X105075735Y-78141988D01*
X104969306Y-78072646D01*
X104927074Y-78062667D01*
X104805791Y-78091324D01*
G36*
X106721154Y-64167858D02*
X106357085Y-64196169D01*
X106087333Y-64233876D01*
X105335337Y-64412227D01*
X104618851Y-64665165D01*
X103941995Y-64988646D01*
X103308889Y-65378627D01*
X102723652Y-65831061D01*
X102190404Y-66341905D01*
X101713265Y-66907115D01*
X101296355Y-67522644D01*
X100943794Y-68184450D01*
X100659700Y-68888486D01*
X100448195Y-69630710D01*
X100409991Y-69807667D01*
X100360989Y-70115598D01*
X100324701Y-70479266D01*
X100302246Y-70870539D01*
X100294748Y-71261282D01*
X100303326Y-71623365D01*
X100326342Y-71906666D01*
X100456245Y-72657557D01*
X100659143Y-73383706D01*
X100931474Y-74076650D01*
X101269676Y-74727931D01*
X101670186Y-75329088D01*
X101877074Y-75589690D01*
X102054743Y-75798976D01*
X102200559Y-75962913D01*
X102335351Y-76102436D01*
X102479946Y-76238477D01*
X102655172Y-76391970D01*
X102785333Y-76502551D01*
X103396073Y-76963247D01*
X104051868Y-77352842D01*
X104749512Y-77669797D01*
X105485796Y-77912573D01*
X105960333Y-78025177D01*
X106150517Y-78054772D01*
X106403780Y-78081231D01*
X106698563Y-78103547D01*
X107013304Y-78120713D01*
X107326444Y-78131724D01*
X107616423Y-78135573D01*
X107861680Y-78131254D01*
X108013500Y-78120997D01*
X108501441Y-78041500D01*
X108246333Y-78041500D01*
X108225167Y-78062667D01*
X108204000Y-78041500D01*
X108225167Y-78020334D01*
X108246333Y-78041500D01*
X108501441Y-78041500D01*
X108757305Y-77999814D01*
X109481734Y-77799932D01*
X110179934Y-77525536D01*
X110845050Y-77180816D01*
X111470228Y-76769959D01*
X112048615Y-76297153D01*
X112573355Y-75766585D01*
X113037595Y-75182442D01*
X113189276Y-74958788D01*
X113561653Y-74308208D01*
X113860283Y-73622223D01*
X114084114Y-72908829D01*
X114232096Y-72176019D01*
X114303178Y-71431791D01*
X114297724Y-70838134D01*
X114260810Y-70838134D01*
X114252199Y-71584682D01*
X114164839Y-72326883D01*
X113999040Y-73056709D01*
X113755111Y-73766131D01*
X113600536Y-74117889D01*
X113265826Y-74733654D01*
X112858515Y-75328016D01*
X112390379Y-75886557D01*
X111873196Y-76394863D01*
X111467863Y-76728644D01*
X110959489Y-77072111D01*
X110390346Y-77380263D01*
X109780242Y-77643768D01*
X109148989Y-77853299D01*
X108987167Y-77896933D01*
X108766390Y-77950439D01*
X108582921Y-77988911D01*
X108444420Y-78011720D01*
X108358544Y-78018235D01*
X108332953Y-78007827D01*
X108375307Y-77979866D01*
X108479167Y-77938702D01*
X108957009Y-77724345D01*
X109395652Y-77439296D01*
X109787994Y-77091212D01*
X110126935Y-76687750D01*
X110405373Y-76236564D01*
X110616208Y-75745310D01*
X110669172Y-75577666D01*
X110728002Y-75295885D01*
X110762412Y-74960904D01*
X110772402Y-74600589D01*
X110757971Y-74242809D01*
X110753540Y-74205470D01*
X108317316Y-74205470D01*
X108306765Y-74282388D01*
X108269465Y-74324895D01*
X108260571Y-74330207D01*
X108168971Y-74356487D01*
X108105791Y-74311243D01*
X108096831Y-74284292D01*
X107652257Y-74284292D01*
X107647397Y-74456817D01*
X107628732Y-74627908D01*
X107597358Y-74769445D01*
X107586994Y-74798585D01*
X107484253Y-74958628D01*
X107319472Y-75104572D01*
X107115097Y-75216790D01*
X107103333Y-75221522D01*
X106970174Y-75254974D01*
X106822128Y-75264700D01*
X106690117Y-75251427D01*
X106605062Y-75215884D01*
X106599056Y-75209652D01*
X106582278Y-75138458D01*
X106629901Y-75070450D01*
X106723074Y-75024228D01*
X106796658Y-75014667D01*
X106942235Y-74987488D01*
X107101763Y-74917748D01*
X107243195Y-74823143D01*
X107334488Y-74721368D01*
X107337322Y-74716100D01*
X107386489Y-74613107D01*
X107393242Y-74563967D01*
X107357941Y-74549469D01*
X107340472Y-74549000D01*
X107276284Y-74535155D01*
X107154290Y-74498092D01*
X106995881Y-74444520D01*
X106915035Y-74415583D01*
X106740242Y-74349271D01*
X106632193Y-74299527D01*
X106576861Y-74257534D01*
X106560219Y-74214474D01*
X106561480Y-74193333D01*
X106585656Y-74133681D01*
X106651368Y-74110477D01*
X106731331Y-74109188D01*
X106864316Y-74129386D01*
X107023729Y-74175345D01*
X107099012Y-74204438D01*
X107247369Y-74265056D01*
X107336052Y-74287037D01*
X107381980Y-74267821D01*
X107402075Y-74204848D01*
X107407568Y-74157764D01*
X107441949Y-74055057D01*
X107506351Y-74001418D01*
X107578418Y-74008671D01*
X107616196Y-74047418D01*
X107642221Y-74138452D01*
X107652257Y-74284292D01*
X108096831Y-74284292D01*
X108065229Y-74189242D01*
X108058181Y-74147734D01*
X108021407Y-74010879D01*
X107965574Y-73937155D01*
X107958552Y-73933672D01*
X107894491Y-73922852D01*
X107760767Y-73911290D01*
X107572366Y-73899906D01*
X107344275Y-73889618D01*
X107115932Y-73882014D01*
X106345363Y-73860515D01*
X106353932Y-74046008D01*
X106354967Y-74161345D01*
X106335973Y-74215332D01*
X106285094Y-74230891D01*
X106257992Y-74231500D01*
X106189223Y-74217309D01*
X106137094Y-74161864D01*
X106084655Y-74045858D01*
X106076882Y-74025188D01*
X106027536Y-73851039D01*
X106033311Y-73733459D01*
X106096022Y-73663243D01*
X106152356Y-73642234D01*
X106257707Y-73628279D01*
X106429124Y-73619465D01*
X106648178Y-73615547D01*
X106896439Y-73616278D01*
X107155478Y-73621412D01*
X107406866Y-73630701D01*
X107632174Y-73643898D01*
X107812973Y-73660758D01*
X107844576Y-73664883D01*
X108034937Y-73694460D01*
X108158336Y-73728998D01*
X108231876Y-73783535D01*
X108272660Y-73873115D01*
X108297789Y-74012776D01*
X108305258Y-74070032D01*
X108317316Y-74205470D01*
X110753540Y-74205470D01*
X110719120Y-73915429D01*
X110669172Y-73689668D01*
X110484499Y-73193918D01*
X110353677Y-72956435D01*
X107856971Y-72956435D01*
X107838561Y-73008383D01*
X107788279Y-73037946D01*
X107685334Y-73053436D01*
X107600750Y-73058863D01*
X107461577Y-73070068D01*
X107387757Y-73090123D01*
X107359985Y-73126581D01*
X107357333Y-73154113D01*
X107386464Y-73221773D01*
X107452583Y-73237245D01*
X107620686Y-73256258D01*
X107714616Y-73311809D01*
X107738333Y-73386243D01*
X107719726Y-73468819D01*
X107689561Y-73499869D01*
X107626147Y-73505525D01*
X107502267Y-73506291D01*
X107341924Y-73503045D01*
X107169123Y-73496663D01*
X107007867Y-73488022D01*
X106882161Y-73477999D01*
X106817583Y-73468013D01*
X106771915Y-73417730D01*
X106771040Y-73338941D01*
X106812127Y-73273144D01*
X106831629Y-73262363D01*
X106926600Y-73241920D01*
X107003907Y-73236667D01*
X107081277Y-73221867D01*
X107098080Y-73162861D01*
X107095694Y-73141417D01*
X107067770Y-73072268D01*
X106994998Y-73057047D01*
X106968062Y-73059477D01*
X106842684Y-73051418D01*
X106738301Y-73006816D01*
X106682919Y-72939310D01*
X106680000Y-72919167D01*
X106718122Y-72845809D01*
X106820201Y-72800257D01*
X106965750Y-72790660D01*
X107061324Y-72787960D01*
X107098666Y-72752282D01*
X107103333Y-72705878D01*
X107130207Y-72606790D01*
X107166294Y-72559781D01*
X107254372Y-72523922D01*
X107323399Y-72561637D01*
X107356494Y-72661861D01*
X107357333Y-72685005D01*
X107364664Y-72769199D01*
X107403307Y-72805368D01*
X107498243Y-72813796D01*
X107516083Y-72813912D01*
X107701594Y-72825082D01*
X107812565Y-72859134D01*
X107856822Y-72919337D01*
X107856971Y-72956435D01*
X110353677Y-72956435D01*
X110230391Y-72732633D01*
X109914644Y-72314622D01*
X109545052Y-71948695D01*
X109129410Y-71643663D01*
X108675513Y-71408335D01*
X108636532Y-71392279D01*
X108382441Y-71298936D01*
X108132544Y-71229084D01*
X107862825Y-71177851D01*
X107549265Y-71140366D01*
X107293833Y-71119903D01*
X106884302Y-71081181D01*
X106535699Y-71022805D01*
X106225449Y-70939101D01*
X105930978Y-70824396D01*
X105730503Y-70726976D01*
X105260845Y-70437763D01*
X104852357Y-70093128D01*
X104508403Y-69698556D01*
X104232344Y-69259536D01*
X104027541Y-68781553D01*
X103897358Y-68270095D01*
X103845157Y-67730648D01*
X103844260Y-67648667D01*
X103884658Y-67110830D01*
X104002784Y-66598762D01*
X104194035Y-66118482D01*
X104453807Y-65676008D01*
X104777498Y-65277359D01*
X105160504Y-64928554D01*
X105598222Y-64635611D01*
X106086050Y-64404550D01*
X106408421Y-64295938D01*
X106552195Y-64257752D01*
X106687879Y-64231082D01*
X106835628Y-64214044D01*
X107015597Y-64204753D01*
X107247939Y-64201325D01*
X107420833Y-64201299D01*
X108183279Y-64243359D01*
X108916609Y-64364916D01*
X109620730Y-64565932D01*
X110295551Y-64846368D01*
X110940980Y-65206184D01*
X111556923Y-65645341D01*
X112143289Y-66163800D01*
X112208168Y-66227853D01*
X112659096Y-66711155D01*
X113039310Y-67194390D01*
X113360783Y-67695672D01*
X113635491Y-68233119D01*
X113811060Y-68652678D01*
X114040550Y-69364104D01*
X114190364Y-70095265D01*
X114260810Y-70838134D01*
X114297724Y-70838134D01*
X114296308Y-70684138D01*
X114210437Y-69941058D01*
X114044513Y-69210545D01*
X113974802Y-68982167D01*
X113699392Y-68267837D01*
X113353364Y-67596667D01*
X112941092Y-66972518D01*
X112466952Y-66399251D01*
X111935317Y-65880727D01*
X111350564Y-65420806D01*
X110717067Y-65023348D01*
X110039201Y-64692215D01*
X109321341Y-64431268D01*
X108616979Y-64254019D01*
X108308160Y-64207065D01*
X107940046Y-64174780D01*
X107536757Y-64157356D01*
X107122419Y-64154984D01*
X106721154Y-64167858D01*
X106721154Y-64167858D01*
G37*
X106721154Y-64167858D02*
X106357085Y-64196169D01*
X106087333Y-64233876D01*
X105335337Y-64412227D01*
X104618851Y-64665165D01*
X103941995Y-64988646D01*
X103308889Y-65378627D01*
X102723652Y-65831061D01*
X102190404Y-66341905D01*
X101713265Y-66907115D01*
X101296355Y-67522644D01*
X100943794Y-68184450D01*
X100659700Y-68888486D01*
X100448195Y-69630710D01*
X100409991Y-69807667D01*
X100360989Y-70115598D01*
X100324701Y-70479266D01*
X100302246Y-70870539D01*
X100294748Y-71261282D01*
X100303326Y-71623365D01*
X100326342Y-71906666D01*
X100456245Y-72657557D01*
X100659143Y-73383706D01*
X100931474Y-74076650D01*
X101269676Y-74727931D01*
X101670186Y-75329088D01*
X101877074Y-75589690D01*
X102054743Y-75798976D01*
X102200559Y-75962913D01*
X102335351Y-76102436D01*
X102479946Y-76238477D01*
X102655172Y-76391970D01*
X102785333Y-76502551D01*
X103396073Y-76963247D01*
X104051868Y-77352842D01*
X104749512Y-77669797D01*
X105485796Y-77912573D01*
X105960333Y-78025177D01*
X106150517Y-78054772D01*
X106403780Y-78081231D01*
X106698563Y-78103547D01*
X107013304Y-78120713D01*
X107326444Y-78131724D01*
X107616423Y-78135573D01*
X107861680Y-78131254D01*
X108013500Y-78120997D01*
X108501441Y-78041500D01*
X108246333Y-78041500D01*
X108225167Y-78062667D01*
X108204000Y-78041500D01*
X108225167Y-78020334D01*
X108246333Y-78041500D01*
X108501441Y-78041500D01*
X108757305Y-77999814D01*
X109481734Y-77799932D01*
X110179934Y-77525536D01*
X110845050Y-77180816D01*
X111470228Y-76769959D01*
X112048615Y-76297153D01*
X112573355Y-75766585D01*
X113037595Y-75182442D01*
X113189276Y-74958788D01*
X113561653Y-74308208D01*
X113860283Y-73622223D01*
X114084114Y-72908829D01*
X114232096Y-72176019D01*
X114303178Y-71431791D01*
X114297724Y-70838134D01*
X114260810Y-70838134D01*
X114252199Y-71584682D01*
X114164839Y-72326883D01*
X113999040Y-73056709D01*
X113755111Y-73766131D01*
X113600536Y-74117889D01*
X113265826Y-74733654D01*
X112858515Y-75328016D01*
X112390379Y-75886557D01*
X111873196Y-76394863D01*
X111467863Y-76728644D01*
X110959489Y-77072111D01*
X110390346Y-77380263D01*
X109780242Y-77643768D01*
X109148989Y-77853299D01*
X108987167Y-77896933D01*
X108766390Y-77950439D01*
X108582921Y-77988911D01*
X108444420Y-78011720D01*
X108358544Y-78018235D01*
X108332953Y-78007827D01*
X108375307Y-77979866D01*
X108479167Y-77938702D01*
X108957009Y-77724345D01*
X109395652Y-77439296D01*
X109787994Y-77091212D01*
X110126935Y-76687750D01*
X110405373Y-76236564D01*
X110616208Y-75745310D01*
X110669172Y-75577666D01*
X110728002Y-75295885D01*
X110762412Y-74960904D01*
X110772402Y-74600589D01*
X110757971Y-74242809D01*
X110753540Y-74205470D01*
X108317316Y-74205470D01*
X108306765Y-74282388D01*
X108269465Y-74324895D01*
X108260571Y-74330207D01*
X108168971Y-74356487D01*
X108105791Y-74311243D01*
X108096831Y-74284292D01*
X107652257Y-74284292D01*
X107647397Y-74456817D01*
X107628732Y-74627908D01*
X107597358Y-74769445D01*
X107586994Y-74798585D01*
X107484253Y-74958628D01*
X107319472Y-75104572D01*
X107115097Y-75216790D01*
X107103333Y-75221522D01*
X106970174Y-75254974D01*
X106822128Y-75264700D01*
X106690117Y-75251427D01*
X106605062Y-75215884D01*
X106599056Y-75209652D01*
X106582278Y-75138458D01*
X106629901Y-75070450D01*
X106723074Y-75024228D01*
X106796658Y-75014667D01*
X106942235Y-74987488D01*
X107101763Y-74917748D01*
X107243195Y-74823143D01*
X107334488Y-74721368D01*
X107337322Y-74716100D01*
X107386489Y-74613107D01*
X107393242Y-74563967D01*
X107357941Y-74549469D01*
X107340472Y-74549000D01*
X107276284Y-74535155D01*
X107154290Y-74498092D01*
X106995881Y-74444520D01*
X106915035Y-74415583D01*
X106740242Y-74349271D01*
X106632193Y-74299527D01*
X106576861Y-74257534D01*
X106560219Y-74214474D01*
X106561480Y-74193333D01*
X106585656Y-74133681D01*
X106651368Y-74110477D01*
X106731331Y-74109188D01*
X106864316Y-74129386D01*
X107023729Y-74175345D01*
X107099012Y-74204438D01*
X107247369Y-74265056D01*
X107336052Y-74287037D01*
X107381980Y-74267821D01*
X107402075Y-74204848D01*
X107407568Y-74157764D01*
X107441949Y-74055057D01*
X107506351Y-74001418D01*
X107578418Y-74008671D01*
X107616196Y-74047418D01*
X107642221Y-74138452D01*
X107652257Y-74284292D01*
X108096831Y-74284292D01*
X108065229Y-74189242D01*
X108058181Y-74147734D01*
X108021407Y-74010879D01*
X107965574Y-73937155D01*
X107958552Y-73933672D01*
X107894491Y-73922852D01*
X107760767Y-73911290D01*
X107572366Y-73899906D01*
X107344275Y-73889618D01*
X107115932Y-73882014D01*
X106345363Y-73860515D01*
X106353932Y-74046008D01*
X106354967Y-74161345D01*
X106335973Y-74215332D01*
X106285094Y-74230891D01*
X106257992Y-74231500D01*
X106189223Y-74217309D01*
X106137094Y-74161864D01*
X106084655Y-74045858D01*
X106076882Y-74025188D01*
X106027536Y-73851039D01*
X106033311Y-73733459D01*
X106096022Y-73663243D01*
X106152356Y-73642234D01*
X106257707Y-73628279D01*
X106429124Y-73619465D01*
X106648178Y-73615547D01*
X106896439Y-73616278D01*
X107155478Y-73621412D01*
X107406866Y-73630701D01*
X107632174Y-73643898D01*
X107812973Y-73660758D01*
X107844576Y-73664883D01*
X108034937Y-73694460D01*
X108158336Y-73728998D01*
X108231876Y-73783535D01*
X108272660Y-73873115D01*
X108297789Y-74012776D01*
X108305258Y-74070032D01*
X108317316Y-74205470D01*
X110753540Y-74205470D01*
X110719120Y-73915429D01*
X110669172Y-73689668D01*
X110484499Y-73193918D01*
X110353677Y-72956435D01*
X107856971Y-72956435D01*
X107838561Y-73008383D01*
X107788279Y-73037946D01*
X107685334Y-73053436D01*
X107600750Y-73058863D01*
X107461577Y-73070068D01*
X107387757Y-73090123D01*
X107359985Y-73126581D01*
X107357333Y-73154113D01*
X107386464Y-73221773D01*
X107452583Y-73237245D01*
X107620686Y-73256258D01*
X107714616Y-73311809D01*
X107738333Y-73386243D01*
X107719726Y-73468819D01*
X107689561Y-73499869D01*
X107626147Y-73505525D01*
X107502267Y-73506291D01*
X107341924Y-73503045D01*
X107169123Y-73496663D01*
X107007867Y-73488022D01*
X106882161Y-73477999D01*
X106817583Y-73468013D01*
X106771915Y-73417730D01*
X106771040Y-73338941D01*
X106812127Y-73273144D01*
X106831629Y-73262363D01*
X106926600Y-73241920D01*
X107003907Y-73236667D01*
X107081277Y-73221867D01*
X107098080Y-73162861D01*
X107095694Y-73141417D01*
X107067770Y-73072268D01*
X106994998Y-73057047D01*
X106968062Y-73059477D01*
X106842684Y-73051418D01*
X106738301Y-73006816D01*
X106682919Y-72939310D01*
X106680000Y-72919167D01*
X106718122Y-72845809D01*
X106820201Y-72800257D01*
X106965750Y-72790660D01*
X107061324Y-72787960D01*
X107098666Y-72752282D01*
X107103333Y-72705878D01*
X107130207Y-72606790D01*
X107166294Y-72559781D01*
X107254372Y-72523922D01*
X107323399Y-72561637D01*
X107356494Y-72661861D01*
X107357333Y-72685005D01*
X107364664Y-72769199D01*
X107403307Y-72805368D01*
X107498243Y-72813796D01*
X107516083Y-72813912D01*
X107701594Y-72825082D01*
X107812565Y-72859134D01*
X107856822Y-72919337D01*
X107856971Y-72956435D01*
X110353677Y-72956435D01*
X110230391Y-72732633D01*
X109914644Y-72314622D01*
X109545052Y-71948695D01*
X109129410Y-71643663D01*
X108675513Y-71408335D01*
X108636532Y-71392279D01*
X108382441Y-71298936D01*
X108132544Y-71229084D01*
X107862825Y-71177851D01*
X107549265Y-71140366D01*
X107293833Y-71119903D01*
X106884302Y-71081181D01*
X106535699Y-71022805D01*
X106225449Y-70939101D01*
X105930978Y-70824396D01*
X105730503Y-70726976D01*
X105260845Y-70437763D01*
X104852357Y-70093128D01*
X104508403Y-69698556D01*
X104232344Y-69259536D01*
X104027541Y-68781553D01*
X103897358Y-68270095D01*
X103845157Y-67730648D01*
X103844260Y-67648667D01*
X103884658Y-67110830D01*
X104002784Y-66598762D01*
X104194035Y-66118482D01*
X104453807Y-65676008D01*
X104777498Y-65277359D01*
X105160504Y-64928554D01*
X105598222Y-64635611D01*
X106086050Y-64404550D01*
X106408421Y-64295938D01*
X106552195Y-64257752D01*
X106687879Y-64231082D01*
X106835628Y-64214044D01*
X107015597Y-64204753D01*
X107247939Y-64201325D01*
X107420833Y-64201299D01*
X108183279Y-64243359D01*
X108916609Y-64364916D01*
X109620730Y-64565932D01*
X110295551Y-64846368D01*
X110940980Y-65206184D01*
X111556923Y-65645341D01*
X112143289Y-66163800D01*
X112208168Y-66227853D01*
X112659096Y-66711155D01*
X113039310Y-67194390D01*
X113360783Y-67695672D01*
X113635491Y-68233119D01*
X113811060Y-68652678D01*
X114040550Y-69364104D01*
X114190364Y-70095265D01*
X114260810Y-70838134D01*
X114297724Y-70838134D01*
X114296308Y-70684138D01*
X114210437Y-69941058D01*
X114044513Y-69210545D01*
X113974802Y-68982167D01*
X113699392Y-68267837D01*
X113353364Y-67596667D01*
X112941092Y-66972518D01*
X112466952Y-66399251D01*
X111935317Y-65880727D01*
X111350564Y-65420806D01*
X110717067Y-65023348D01*
X110039201Y-64692215D01*
X109321341Y-64431268D01*
X108616979Y-64254019D01*
X108308160Y-64207065D01*
X107940046Y-64174780D01*
X107536757Y-64157356D01*
X107122419Y-64154984D01*
X106721154Y-64167858D01*
G36*
X107199160Y-67423938D02*
X107131827Y-67489731D01*
X107003416Y-67589681D01*
X106857085Y-67661078D01*
X106828167Y-67669648D01*
X106697236Y-67722046D01*
X106641509Y-67797609D01*
X106660989Y-67900844D01*
X106755680Y-68036258D01*
X106828572Y-68114745D01*
X106933465Y-68231726D01*
X106983906Y-68312336D01*
X106980393Y-68344658D01*
X106944421Y-68405157D01*
X106934000Y-68476665D01*
X106958098Y-68560151D01*
X107026779Y-68576517D01*
X107134625Y-68526969D01*
X107276220Y-68412713D01*
X107293090Y-68396757D01*
X107393970Y-68289179D01*
X107463268Y-68194402D01*
X107484333Y-68141428D01*
X107451902Y-68066111D01*
X107376292Y-68040199D01*
X107292053Y-68073478D01*
X107236016Y-68100020D01*
X107172841Y-68071627D01*
X107123259Y-68028501D01*
X107052402Y-67954900D01*
X107019043Y-67906401D01*
X107018667Y-67903805D01*
X107057688Y-67893644D01*
X107161827Y-67889254D01*
X107311698Y-67891177D01*
X107378394Y-67893757D01*
X107557654Y-67899554D01*
X107669802Y-67895439D01*
X107732058Y-67879019D01*
X107761640Y-67847903D01*
X107765015Y-67840060D01*
X107767136Y-67757460D01*
X107696364Y-67699740D01*
X107547850Y-67663139D01*
X107534674Y-67661305D01*
X107428487Y-67642471D01*
X107390747Y-67616540D01*
X107405425Y-67570715D01*
X107410584Y-67562250D01*
X107434857Y-67479648D01*
X107402520Y-67419271D01*
X107342517Y-67365249D01*
X107281192Y-67365123D01*
X107199160Y-67423938D01*
X107199160Y-67423938D01*
G37*
X107199160Y-67423938D02*
X107131827Y-67489731D01*
X107003416Y-67589681D01*
X106857085Y-67661078D01*
X106828167Y-67669648D01*
X106697236Y-67722046D01*
X106641509Y-67797609D01*
X106660989Y-67900844D01*
X106755680Y-68036258D01*
X106828572Y-68114745D01*
X106933465Y-68231726D01*
X106983906Y-68312336D01*
X106980393Y-68344658D01*
X106944421Y-68405157D01*
X106934000Y-68476665D01*
X106958098Y-68560151D01*
X107026779Y-68576517D01*
X107134625Y-68526969D01*
X107276220Y-68412713D01*
X107293090Y-68396757D01*
X107393970Y-68289179D01*
X107463268Y-68194402D01*
X107484333Y-68141428D01*
X107451902Y-68066111D01*
X107376292Y-68040199D01*
X107292053Y-68073478D01*
X107236016Y-68100020D01*
X107172841Y-68071627D01*
X107123259Y-68028501D01*
X107052402Y-67954900D01*
X107019043Y-67906401D01*
X107018667Y-67903805D01*
X107057688Y-67893644D01*
X107161827Y-67889254D01*
X107311698Y-67891177D01*
X107378394Y-67893757D01*
X107557654Y-67899554D01*
X107669802Y-67895439D01*
X107732058Y-67879019D01*
X107761640Y-67847903D01*
X107765015Y-67840060D01*
X107767136Y-67757460D01*
X107696364Y-67699740D01*
X107547850Y-67663139D01*
X107534674Y-67661305D01*
X107428487Y-67642471D01*
X107390747Y-67616540D01*
X107405425Y-67570715D01*
X107410584Y-67562250D01*
X107434857Y-67479648D01*
X107402520Y-67419271D01*
X107342517Y-67365249D01*
X107281192Y-67365123D01*
X107199160Y-67423938D01*
G36*
X106770519Y-65668513D02*
X106692023Y-65675141D01*
X106683376Y-65678080D01*
X106641308Y-65745083D01*
X106650254Y-65830180D01*
X106704629Y-65887304D01*
X106787176Y-65903292D01*
X106912911Y-65912282D01*
X106958629Y-65913000D01*
X107082931Y-65921612D01*
X107138775Y-65950791D01*
X107145667Y-65976500D01*
X107129766Y-66008776D01*
X107072185Y-66028593D01*
X106958104Y-66038724D01*
X106796417Y-66041844D01*
X106516914Y-66051600D01*
X106292420Y-66076588D01*
X106132230Y-66115195D01*
X106045642Y-66165810D01*
X106040494Y-66172842D01*
X106009758Y-66269987D01*
X106004702Y-66402975D01*
X106021055Y-66547215D01*
X106054543Y-66678115D01*
X106100895Y-66771084D01*
X106149791Y-66802000D01*
X106235789Y-66765639D01*
X106281999Y-66668000D01*
X106280491Y-66526251D01*
X106279554Y-66521115D01*
X106268418Y-66424811D01*
X106286367Y-66360416D01*
X106346059Y-66321579D01*
X106460157Y-66301949D01*
X106641321Y-66295174D01*
X106730999Y-66294648D01*
X107099497Y-66294000D01*
X107126603Y-66438486D01*
X107137710Y-66563784D01*
X107127084Y-66666775D01*
X107126356Y-66669154D01*
X107135219Y-66774104D01*
X107185835Y-66842168D01*
X107235086Y-66902795D01*
X107233802Y-66928975D01*
X107232864Y-66929000D01*
X107182420Y-66953026D01*
X107084382Y-67016729D01*
X106957787Y-67107552D01*
X106925947Y-67131477D01*
X106749326Y-67258199D01*
X106543083Y-67395767D01*
X106351917Y-67514367D01*
X106184984Y-67618475D01*
X106087369Y-67697541D01*
X106051379Y-67761702D01*
X106069319Y-67821097D01*
X106095800Y-67851867D01*
X106131126Y-67884139D01*
X106166903Y-67895344D01*
X106221001Y-67880233D01*
X106311289Y-67833558D01*
X106455637Y-67750071D01*
X106469005Y-67742259D01*
X106655723Y-67628275D01*
X106859831Y-67496367D01*
X107003220Y-67398688D01*
X107262940Y-67215526D01*
X107532387Y-67421951D01*
X107801884Y-67618165D01*
X108015673Y-67751106D01*
X108174135Y-67820920D01*
X108277653Y-67827756D01*
X108326609Y-67771763D01*
X108331000Y-67731472D01*
X108293607Y-67665605D01*
X108184315Y-67566746D01*
X108007461Y-67438743D01*
X107981750Y-67421504D01*
X107716182Y-67236070D01*
X107520879Y-67080464D01*
X107397569Y-66956345D01*
X107347979Y-66865371D01*
X107357919Y-66822461D01*
X107383401Y-66748822D01*
X107395382Y-66624349D01*
X107394336Y-66539733D01*
X107382483Y-66315167D01*
X107581575Y-66310370D01*
X107711869Y-66315291D01*
X107772980Y-66334109D01*
X107759946Y-66361101D01*
X107667804Y-66390548D01*
X107653667Y-66393484D01*
X107560021Y-66428548D01*
X107527788Y-66496192D01*
X107526667Y-66521246D01*
X107554633Y-66618316D01*
X107638102Y-66651756D01*
X107776427Y-66621309D01*
X107776450Y-66621300D01*
X107893666Y-66556104D01*
X107927407Y-66480971D01*
X107881678Y-66401059D01*
X107846286Y-66356411D01*
X107873110Y-66338972D01*
X107946976Y-66336334D01*
X108028583Y-66342179D01*
X108066201Y-66375468D01*
X108076990Y-66459826D01*
X108077648Y-66516250D01*
X108090733Y-66679793D01*
X108131415Y-66768904D01*
X108204028Y-66790559D01*
X108242768Y-66781965D01*
X108289001Y-66760666D01*
X108315227Y-66720579D01*
X108325752Y-66642505D01*
X108324884Y-66507245D01*
X108322136Y-66428185D01*
X108309833Y-66103500D01*
X108161667Y-66093166D01*
X107886439Y-66073036D01*
X107684946Y-66055553D01*
X107546368Y-66039019D01*
X107459885Y-66021737D01*
X107414677Y-66002009D01*
X107399924Y-65978138D01*
X107399667Y-65973622D01*
X107422442Y-65937995D01*
X107500932Y-65924548D01*
X107613357Y-65927505D01*
X107787462Y-65922597D01*
X107897339Y-65885138D01*
X107936162Y-65818345D01*
X107928380Y-65778917D01*
X107903806Y-65750187D01*
X107846833Y-65728190D01*
X107744855Y-65710896D01*
X107585264Y-65696273D01*
X107355455Y-65682290D01*
X107315619Y-65680199D01*
X107099115Y-65671098D01*
X106911816Y-65667183D01*
X106770519Y-65668513D01*
X106770519Y-65668513D01*
G37*
X106770519Y-65668513D02*
X106692023Y-65675141D01*
X106683376Y-65678080D01*
X106641308Y-65745083D01*
X106650254Y-65830180D01*
X106704629Y-65887304D01*
X106787176Y-65903292D01*
X106912911Y-65912282D01*
X106958629Y-65913000D01*
X107082931Y-65921612D01*
X107138775Y-65950791D01*
X107145667Y-65976500D01*
X107129766Y-66008776D01*
X107072185Y-66028593D01*
X106958104Y-66038724D01*
X106796417Y-66041844D01*
X106516914Y-66051600D01*
X106292420Y-66076588D01*
X106132230Y-66115195D01*
X106045642Y-66165810D01*
X106040494Y-66172842D01*
X106009758Y-66269987D01*
X106004702Y-66402975D01*
X106021055Y-66547215D01*
X106054543Y-66678115D01*
X106100895Y-66771084D01*
X106149791Y-66802000D01*
X106235789Y-66765639D01*
X106281999Y-66668000D01*
X106280491Y-66526251D01*
X106279554Y-66521115D01*
X106268418Y-66424811D01*
X106286367Y-66360416D01*
X106346059Y-66321579D01*
X106460157Y-66301949D01*
X106641321Y-66295174D01*
X106730999Y-66294648D01*
X107099497Y-66294000D01*
X107126603Y-66438486D01*
X107137710Y-66563784D01*
X107127084Y-66666775D01*
X107126356Y-66669154D01*
X107135219Y-66774104D01*
X107185835Y-66842168D01*
X107235086Y-66902795D01*
X107233802Y-66928975D01*
X107232864Y-66929000D01*
X107182420Y-66953026D01*
X107084382Y-67016729D01*
X106957787Y-67107552D01*
X106925947Y-67131477D01*
X106749326Y-67258199D01*
X106543083Y-67395767D01*
X106351917Y-67514367D01*
X106184984Y-67618475D01*
X106087369Y-67697541D01*
X106051379Y-67761702D01*
X106069319Y-67821097D01*
X106095800Y-67851867D01*
X106131126Y-67884139D01*
X106166903Y-67895344D01*
X106221001Y-67880233D01*
X106311289Y-67833558D01*
X106455637Y-67750071D01*
X106469005Y-67742259D01*
X106655723Y-67628275D01*
X106859831Y-67496367D01*
X107003220Y-67398688D01*
X107262940Y-67215526D01*
X107532387Y-67421951D01*
X107801884Y-67618165D01*
X108015673Y-67751106D01*
X108174135Y-67820920D01*
X108277653Y-67827756D01*
X108326609Y-67771763D01*
X108331000Y-67731472D01*
X108293607Y-67665605D01*
X108184315Y-67566746D01*
X108007461Y-67438743D01*
X107981750Y-67421504D01*
X107716182Y-67236070D01*
X107520879Y-67080464D01*
X107397569Y-66956345D01*
X107347979Y-66865371D01*
X107357919Y-66822461D01*
X107383401Y-66748822D01*
X107395382Y-66624349D01*
X107394336Y-66539733D01*
X107382483Y-66315167D01*
X107581575Y-66310370D01*
X107711869Y-66315291D01*
X107772980Y-66334109D01*
X107759946Y-66361101D01*
X107667804Y-66390548D01*
X107653667Y-66393484D01*
X107560021Y-66428548D01*
X107527788Y-66496192D01*
X107526667Y-66521246D01*
X107554633Y-66618316D01*
X107638102Y-66651756D01*
X107776427Y-66621309D01*
X107776450Y-66621300D01*
X107893666Y-66556104D01*
X107927407Y-66480971D01*
X107881678Y-66401059D01*
X107846286Y-66356411D01*
X107873110Y-66338972D01*
X107946976Y-66336334D01*
X108028583Y-66342179D01*
X108066201Y-66375468D01*
X108076990Y-66459826D01*
X108077648Y-66516250D01*
X108090733Y-66679793D01*
X108131415Y-66768904D01*
X108204028Y-66790559D01*
X108242768Y-66781965D01*
X108289001Y-66760666D01*
X108315227Y-66720579D01*
X108325752Y-66642505D01*
X108324884Y-66507245D01*
X108322136Y-66428185D01*
X108309833Y-66103500D01*
X108161667Y-66093166D01*
X107886439Y-66073036D01*
X107684946Y-66055553D01*
X107546368Y-66039019D01*
X107459885Y-66021737D01*
X107414677Y-66002009D01*
X107399924Y-65978138D01*
X107399667Y-65973622D01*
X107422442Y-65937995D01*
X107500932Y-65924548D01*
X107613357Y-65927505D01*
X107787462Y-65922597D01*
X107897339Y-65885138D01*
X107936162Y-65818345D01*
X107928380Y-65778917D01*
X107903806Y-65750187D01*
X107846833Y-65728190D01*
X107744855Y-65710896D01*
X107585264Y-65696273D01*
X107355455Y-65682290D01*
X107315619Y-65680199D01*
X107099115Y-65671098D01*
X106911816Y-65667183D01*
X106770519Y-65668513D01*
G36*
X107799615Y-66693361D02*
X107719109Y-66716693D01*
X107608005Y-66775572D01*
X107568661Y-66843575D01*
X107591458Y-66906452D01*
X107666781Y-66949949D01*
X107785013Y-66959816D01*
X107872312Y-66943730D01*
X107951355Y-66887278D01*
X107971734Y-66799639D01*
X107934741Y-66726265D01*
X107878186Y-66690091D01*
X107799615Y-66693361D01*
X107799615Y-66693361D01*
G37*
X107799615Y-66693361D02*
X107719109Y-66716693D01*
X107608005Y-66775572D01*
X107568661Y-66843575D01*
X107591458Y-66906452D01*
X107666781Y-66949949D01*
X107785013Y-66959816D01*
X107872312Y-66943730D01*
X107951355Y-66887278D01*
X107971734Y-66799639D01*
X107934741Y-66726265D01*
X107878186Y-66690091D01*
X107799615Y-66693361D01*
G36*
X106631493Y-66719891D02*
X106539563Y-66777853D01*
X106518266Y-66854191D01*
X106519096Y-66860945D01*
X106564477Y-66938340D01*
X106665486Y-66958096D01*
X106814757Y-66919148D01*
X106841986Y-66907680D01*
X106943468Y-66841868D01*
X106972986Y-66776122D01*
X106942566Y-66721173D01*
X106864238Y-66687751D01*
X106750028Y-66686586D01*
X106631493Y-66719891D01*
X106631493Y-66719891D01*
G37*
X106631493Y-66719891D02*
X106539563Y-66777853D01*
X106518266Y-66854191D01*
X106519096Y-66860945D01*
X106564477Y-66938340D01*
X106665486Y-66958096D01*
X106814757Y-66919148D01*
X106841986Y-66907680D01*
X106943468Y-66841868D01*
X106972986Y-66776122D01*
X106942566Y-66721173D01*
X106864238Y-66687751D01*
X106750028Y-66686586D01*
X106631493Y-66719891D01*
G36*
X106752501Y-66349530D02*
X106597244Y-66390109D01*
X106505656Y-66457423D01*
X106487056Y-66543869D01*
X106492474Y-66561651D01*
X106533041Y-66612968D01*
X106611366Y-66625191D01*
X106744487Y-66599686D01*
X106794333Y-66585845D01*
X106914295Y-66538418D01*
X106961366Y-66479407D01*
X106948962Y-66398930D01*
X106911377Y-66353019D01*
X106832421Y-66341818D01*
X106752501Y-66349530D01*
X106752501Y-66349530D01*
G37*
X106752501Y-66349530D02*
X106597244Y-66390109D01*
X106505656Y-66457423D01*
X106487056Y-66543869D01*
X106492474Y-66561651D01*
X106533041Y-66612968D01*
X106611366Y-66625191D01*
X106744487Y-66599686D01*
X106794333Y-66585845D01*
X106914295Y-66538418D01*
X106961366Y-66479407D01*
X106948962Y-66398930D01*
X106911377Y-66353019D01*
X106832421Y-66341818D01*
X106752501Y-66349530D01*
D11*
X95670476Y-68397381D02*
X95670476Y-67397381D01*
X95289523Y-67397381D01*
X95194285Y-67445000D01*
X95146666Y-67492619D01*
X95099047Y-67587857D01*
X95099047Y-67730714D01*
X95146666Y-67825952D01*
X95194285Y-67873571D01*
X95289523Y-67921190D01*
X95670476Y-67921190D01*
X94146666Y-68397381D02*
X94718095Y-68397381D01*
X94432381Y-68397381D02*
X94432381Y-67397381D01*
X94527619Y-67540238D01*
X94622857Y-67635476D01*
X94718095Y-67683095D01*
X93527619Y-67397381D02*
X93432380Y-67397381D01*
X93337142Y-67445000D01*
X93289523Y-67492619D01*
X93241904Y-67587857D01*
X93194285Y-67778333D01*
X93194285Y-68016429D01*
X93241904Y-68206905D01*
X93289523Y-68302143D01*
X93337142Y-68349762D01*
X93432380Y-68397381D01*
X93527619Y-68397381D01*
X93622857Y-68349762D01*
X93670476Y-68302143D01*
X93718095Y-68206905D01*
X93765714Y-68016429D01*
X93765714Y-67778333D01*
X93718095Y-67587857D01*
X93670476Y-67492619D01*
X93622857Y-67445000D01*
X93527619Y-67397381D01*
X92241904Y-68397381D02*
X92813333Y-68397381D01*
X92527619Y-68397381D02*
X92527619Y-67397381D01*
X92622857Y-67540238D01*
X92718095Y-67635476D01*
X92813333Y-67683095D01*
X117050476Y-91172381D02*
X117050476Y-90172381D01*
X116669523Y-90172381D01*
X116574285Y-90220000D01*
X116526666Y-90267619D01*
X116479047Y-90362857D01*
X116479047Y-90505714D01*
X116526666Y-90600952D01*
X116574285Y-90648571D01*
X116669523Y-90696190D01*
X117050476Y-90696190D01*
X115526666Y-91172381D02*
X116098095Y-91172381D01*
X115812381Y-91172381D02*
X115812381Y-90172381D01*
X115907619Y-90315238D01*
X116002857Y-90410476D01*
X116098095Y-90458095D01*
X114907619Y-90172381D02*
X114812380Y-90172381D01*
X114717142Y-90220000D01*
X114669523Y-90267619D01*
X114621904Y-90362857D01*
X114574285Y-90553333D01*
X114574285Y-90791429D01*
X114621904Y-90981905D01*
X114669523Y-91077143D01*
X114717142Y-91124762D01*
X114812380Y-91172381D01*
X114907619Y-91172381D01*
X115002857Y-91124762D01*
X115050476Y-91077143D01*
X115098095Y-90981905D01*
X115145714Y-90791429D01*
X115145714Y-90553333D01*
X115098095Y-90362857D01*
X115050476Y-90267619D01*
X115002857Y-90220000D01*
X114907619Y-90172381D01*
X114193333Y-90267619D02*
X114145714Y-90220000D01*
X114050476Y-90172381D01*
X113812380Y-90172381D01*
X113717142Y-90220000D01*
X113669523Y-90267619D01*
X113621904Y-90362857D01*
X113621904Y-90458095D01*
X113669523Y-90600952D01*
X114240952Y-91172381D01*
X113621904Y-91172381D01*
M02*
